G04 MADE WITH FRITZING*
G04 WWW.FRITZING.ORG*
G04 DOUBLE SIDED*
G04 HOLES PLATED*
G04 CONTOUR ON CENTER OF CONTOUR VECTOR*
%ASAXBY*%
%FSLAX23Y23*%
%MOIN*%
%OFA0B0*%
%SFA1.0B1.0*%
%ADD10C,0.078000*%
%ADD11C,0.075000*%
%ADD12C,0.074000*%
%ADD13C,0.070000*%
%ADD14C,0.055118*%
%ADD15C,0.082000*%
%ADD16C,0.039370*%
%ADD17R,0.075000X0.075000*%
%ADD18R,0.082000X0.082000*%
%ADD19C,0.012000*%
%LNCOPPER1*%
G90*
G70*
G54D10*
X815Y1635D03*
X815Y1535D03*
X815Y1435D03*
X918Y2214D03*
X818Y2214D03*
X718Y2214D03*
X618Y2214D03*
G54D11*
X513Y1041D03*
X813Y1041D03*
X568Y1994D03*
X968Y1994D03*
X568Y1894D03*
X968Y1894D03*
G54D12*
X2389Y831D03*
X2489Y881D03*
X2389Y931D03*
X2489Y981D03*
X2389Y1031D03*
X2489Y1081D03*
X2389Y831D03*
X2489Y881D03*
X2389Y931D03*
X2489Y981D03*
X2389Y1031D03*
X2489Y1081D03*
X2389Y1392D03*
X2489Y1442D03*
X2389Y1492D03*
X2489Y1542D03*
X2389Y1592D03*
X2489Y1642D03*
X2389Y1392D03*
X2489Y1442D03*
X2389Y1492D03*
X2489Y1542D03*
X2389Y1592D03*
X2489Y1642D03*
X2389Y1955D03*
X2489Y2005D03*
X2389Y2055D03*
X2489Y2105D03*
X2389Y2155D03*
X2489Y2205D03*
X2389Y1955D03*
X2489Y2005D03*
X2389Y2055D03*
X2489Y2105D03*
X2389Y2155D03*
X2489Y2205D03*
G54D11*
X2091Y647D03*
X1891Y647D03*
G54D13*
X1935Y372D03*
X2035Y372D03*
G54D10*
X673Y639D03*
X673Y138D03*
X1588Y639D03*
X1588Y539D03*
X1588Y239D03*
X1588Y138D03*
G54D14*
X1331Y1993D03*
X1331Y1893D03*
X1331Y1793D03*
X1331Y1693D03*
X1331Y1593D03*
X1331Y1493D03*
X1331Y1393D03*
X1331Y1293D03*
X1232Y1993D03*
X1232Y1893D03*
X1232Y1793D03*
X1232Y1693D03*
X1232Y1593D03*
X1232Y1493D03*
X1232Y1393D03*
X1232Y1293D03*
X231Y1993D03*
X231Y1893D03*
X231Y1793D03*
X231Y1693D03*
X231Y1593D03*
X231Y1493D03*
X231Y1393D03*
X231Y1293D03*
X331Y1993D03*
X331Y1893D03*
X331Y1793D03*
X331Y1693D03*
X331Y1593D03*
X331Y1493D03*
X331Y1393D03*
X331Y1293D03*
G54D10*
X231Y153D03*
X81Y153D03*
G54D15*
X529Y645D03*
X231Y645D03*
G54D10*
X1696Y2314D03*
X1696Y2214D03*
X1696Y2114D03*
X1696Y2014D03*
X2118Y259D03*
X2118Y159D03*
X1867Y259D03*
X1867Y159D03*
G54D14*
X1331Y1195D03*
X1331Y1095D03*
X1231Y1195D03*
X1231Y1095D03*
X331Y1195D03*
X331Y1095D03*
X231Y1195D03*
X231Y1095D03*
G54D16*
X713Y869D03*
X2144Y869D03*
X813Y961D03*
X2073Y961D03*
G54D17*
X2091Y647D03*
G54D18*
X530Y645D03*
G54D19*
X2131Y869D02*
X726Y869D01*
D02*
X2054Y961D02*
X832Y961D01*
G04 End of Copper1*
M02*