G04 MADE WITH FRITZING*
G04 WWW.FRITZING.ORG*
G04 DOUBLE SIDED*
G04 HOLES PLATED*
G04 CONTOUR ON CENTER OF CONTOUR VECTOR*
%ASAXBY*%
%FSLAX23Y23*%
%MOIN*%
%OFA0B0*%
%SFA1.0B1.0*%
%ADD10R,0.001000X0.001000*%
%LNSILK0*%
G90*
G70*
G54D10*
X0Y2362D02*
X2951Y2362D01*
X0Y2361D02*
X2951Y2361D01*
X0Y2360D02*
X2951Y2360D01*
X0Y2359D02*
X2951Y2359D01*
X0Y2358D02*
X1692Y2358D01*
X1698Y2358D02*
X2951Y2358D01*
X0Y2357D02*
X1685Y2357D01*
X1705Y2357D02*
X2951Y2357D01*
X0Y2356D02*
X1681Y2356D01*
X1709Y2356D02*
X2951Y2356D01*
X0Y2355D02*
X1678Y2355D01*
X1712Y2355D02*
X2951Y2355D01*
X0Y2354D02*
X7Y2354D01*
X2944Y2354D02*
X2951Y2354D01*
X0Y2353D02*
X7Y2353D01*
X2944Y2353D02*
X2951Y2353D01*
X0Y2352D02*
X7Y2352D01*
X2944Y2352D02*
X2951Y2352D01*
X0Y2351D02*
X7Y2351D01*
X2944Y2351D02*
X2951Y2351D01*
X0Y2350D02*
X7Y2350D01*
X2944Y2350D02*
X2951Y2350D01*
X0Y2349D02*
X7Y2349D01*
X2944Y2349D02*
X2951Y2349D01*
X0Y2348D02*
X7Y2348D01*
X2944Y2348D02*
X2951Y2348D01*
X0Y2347D02*
X7Y2347D01*
X2944Y2347D02*
X2951Y2347D01*
X0Y2346D02*
X7Y2346D01*
X2944Y2346D02*
X2951Y2346D01*
X0Y2345D02*
X7Y2345D01*
X2944Y2345D02*
X2951Y2345D01*
X0Y2344D02*
X7Y2344D01*
X2944Y2344D02*
X2951Y2344D01*
X0Y2343D02*
X7Y2343D01*
X2944Y2343D02*
X2951Y2343D01*
X0Y2342D02*
X7Y2342D01*
X2944Y2342D02*
X2951Y2342D01*
X0Y2341D02*
X7Y2341D01*
X2944Y2341D02*
X2951Y2341D01*
X0Y2340D02*
X7Y2340D01*
X2944Y2340D02*
X2951Y2340D01*
X0Y2339D02*
X7Y2339D01*
X2944Y2339D02*
X2951Y2339D01*
X0Y2338D02*
X7Y2338D01*
X2944Y2338D02*
X2951Y2338D01*
X0Y2337D02*
X7Y2337D01*
X2944Y2337D02*
X2951Y2337D01*
X0Y2336D02*
X7Y2336D01*
X2944Y2336D02*
X2951Y2336D01*
X0Y2335D02*
X7Y2335D01*
X2944Y2335D02*
X2951Y2335D01*
X0Y2334D02*
X7Y2334D01*
X2944Y2334D02*
X2951Y2334D01*
X0Y2333D02*
X7Y2333D01*
X2944Y2333D02*
X2951Y2333D01*
X0Y2332D02*
X7Y2332D01*
X2944Y2332D02*
X2951Y2332D01*
X0Y2331D02*
X7Y2331D01*
X2944Y2331D02*
X2951Y2331D01*
X0Y2330D02*
X7Y2330D01*
X2944Y2330D02*
X2951Y2330D01*
X0Y2329D02*
X7Y2329D01*
X2944Y2329D02*
X2951Y2329D01*
X0Y2328D02*
X7Y2328D01*
X2944Y2328D02*
X2951Y2328D01*
X0Y2327D02*
X7Y2327D01*
X2944Y2327D02*
X2951Y2327D01*
X0Y2326D02*
X7Y2326D01*
X2944Y2326D02*
X2951Y2326D01*
X0Y2325D02*
X7Y2325D01*
X2944Y2325D02*
X2951Y2325D01*
X0Y2324D02*
X7Y2324D01*
X2944Y2324D02*
X2951Y2324D01*
X0Y2323D02*
X7Y2323D01*
X2944Y2323D02*
X2951Y2323D01*
X0Y2322D02*
X7Y2322D01*
X2944Y2322D02*
X2951Y2322D01*
X0Y2321D02*
X7Y2321D01*
X2944Y2321D02*
X2951Y2321D01*
X0Y2320D02*
X7Y2320D01*
X2944Y2320D02*
X2951Y2320D01*
X0Y2319D02*
X7Y2319D01*
X2944Y2319D02*
X2951Y2319D01*
X0Y2318D02*
X7Y2318D01*
X2944Y2318D02*
X2951Y2318D01*
X0Y2317D02*
X7Y2317D01*
X2944Y2317D02*
X2951Y2317D01*
X0Y2316D02*
X7Y2316D01*
X2944Y2316D02*
X2951Y2316D01*
X0Y2315D02*
X7Y2315D01*
X2944Y2315D02*
X2951Y2315D01*
X0Y2314D02*
X7Y2314D01*
X2944Y2314D02*
X2951Y2314D01*
X0Y2313D02*
X7Y2313D01*
X2944Y2313D02*
X2951Y2313D01*
X0Y2312D02*
X7Y2312D01*
X2944Y2312D02*
X2951Y2312D01*
X0Y2311D02*
X7Y2311D01*
X2944Y2311D02*
X2951Y2311D01*
X0Y2310D02*
X7Y2310D01*
X2944Y2310D02*
X2951Y2310D01*
X0Y2309D02*
X7Y2309D01*
X2944Y2309D02*
X2951Y2309D01*
X0Y2308D02*
X7Y2308D01*
X2944Y2308D02*
X2951Y2308D01*
X0Y2307D02*
X7Y2307D01*
X2944Y2307D02*
X2951Y2307D01*
X0Y2306D02*
X7Y2306D01*
X2944Y2306D02*
X2951Y2306D01*
X0Y2305D02*
X7Y2305D01*
X2944Y2305D02*
X2951Y2305D01*
X0Y2304D02*
X7Y2304D01*
X2944Y2304D02*
X2951Y2304D01*
X0Y2303D02*
X7Y2303D01*
X2944Y2303D02*
X2951Y2303D01*
X0Y2302D02*
X7Y2302D01*
X2944Y2302D02*
X2951Y2302D01*
X0Y2301D02*
X7Y2301D01*
X2944Y2301D02*
X2951Y2301D01*
X0Y2300D02*
X7Y2300D01*
X2944Y2300D02*
X2951Y2300D01*
X0Y2299D02*
X7Y2299D01*
X2944Y2299D02*
X2951Y2299D01*
X0Y2298D02*
X7Y2298D01*
X2944Y2298D02*
X2951Y2298D01*
X0Y2297D02*
X7Y2297D01*
X2944Y2297D02*
X2951Y2297D01*
X0Y2296D02*
X7Y2296D01*
X2944Y2296D02*
X2951Y2296D01*
X0Y2295D02*
X7Y2295D01*
X2944Y2295D02*
X2951Y2295D01*
X0Y2294D02*
X7Y2294D01*
X2944Y2294D02*
X2951Y2294D01*
X0Y2293D02*
X7Y2293D01*
X2944Y2293D02*
X2951Y2293D01*
X0Y2292D02*
X7Y2292D01*
X2944Y2292D02*
X2951Y2292D01*
X0Y2291D02*
X7Y2291D01*
X2944Y2291D02*
X2951Y2291D01*
X0Y2290D02*
X7Y2290D01*
X2944Y2290D02*
X2951Y2290D01*
X0Y2289D02*
X7Y2289D01*
X2944Y2289D02*
X2951Y2289D01*
X0Y2288D02*
X7Y2288D01*
X2944Y2288D02*
X2951Y2288D01*
X0Y2287D02*
X7Y2287D01*
X2944Y2287D02*
X2951Y2287D01*
X0Y2286D02*
X7Y2286D01*
X2944Y2286D02*
X2951Y2286D01*
X0Y2285D02*
X7Y2285D01*
X2944Y2285D02*
X2951Y2285D01*
X0Y2284D02*
X7Y2284D01*
X2944Y2284D02*
X2951Y2284D01*
X0Y2283D02*
X7Y2283D01*
X2944Y2283D02*
X2951Y2283D01*
X0Y2282D02*
X7Y2282D01*
X2944Y2282D02*
X2951Y2282D01*
X0Y2281D02*
X7Y2281D01*
X2944Y2281D02*
X2951Y2281D01*
X0Y2280D02*
X7Y2280D01*
X2944Y2280D02*
X2951Y2280D01*
X0Y2279D02*
X7Y2279D01*
X2944Y2279D02*
X2951Y2279D01*
X0Y2278D02*
X7Y2278D01*
X2944Y2278D02*
X2951Y2278D01*
X0Y2277D02*
X7Y2277D01*
X2944Y2277D02*
X2951Y2277D01*
X0Y2276D02*
X7Y2276D01*
X2944Y2276D02*
X2951Y2276D01*
X0Y2275D02*
X7Y2275D01*
X2944Y2275D02*
X2951Y2275D01*
X0Y2274D02*
X7Y2274D01*
X2944Y2274D02*
X2951Y2274D01*
X0Y2273D02*
X7Y2273D01*
X2944Y2273D02*
X2951Y2273D01*
X0Y2272D02*
X7Y2272D01*
X2944Y2272D02*
X2951Y2272D01*
X0Y2271D02*
X7Y2271D01*
X2944Y2271D02*
X2951Y2271D01*
X0Y2270D02*
X7Y2270D01*
X2944Y2270D02*
X2951Y2270D01*
X0Y2269D02*
X7Y2269D01*
X2944Y2269D02*
X2951Y2269D01*
X0Y2268D02*
X7Y2268D01*
X2944Y2268D02*
X2951Y2268D01*
X0Y2267D02*
X7Y2267D01*
X2944Y2267D02*
X2951Y2267D01*
X0Y2266D02*
X7Y2266D01*
X2944Y2266D02*
X2951Y2266D01*
X0Y2265D02*
X7Y2265D01*
X2944Y2265D02*
X2951Y2265D01*
X0Y2264D02*
X7Y2264D01*
X2944Y2264D02*
X2951Y2264D01*
X0Y2263D02*
X7Y2263D01*
X2944Y2263D02*
X2951Y2263D01*
X0Y2262D02*
X7Y2262D01*
X2944Y2262D02*
X2951Y2262D01*
X0Y2261D02*
X7Y2261D01*
X2944Y2261D02*
X2951Y2261D01*
X0Y2260D02*
X7Y2260D01*
X2944Y2260D02*
X2951Y2260D01*
X0Y2259D02*
X7Y2259D01*
X2944Y2259D02*
X2951Y2259D01*
X0Y2258D02*
X7Y2258D01*
X2944Y2258D02*
X2951Y2258D01*
X0Y2257D02*
X7Y2257D01*
X2944Y2257D02*
X2951Y2257D01*
X0Y2256D02*
X7Y2256D01*
X2944Y2256D02*
X2951Y2256D01*
X0Y2255D02*
X7Y2255D01*
X2944Y2255D02*
X2951Y2255D01*
X0Y2254D02*
X7Y2254D01*
X2944Y2254D02*
X2951Y2254D01*
X0Y2253D02*
X7Y2253D01*
X2944Y2253D02*
X2951Y2253D01*
X0Y2252D02*
X7Y2252D01*
X2944Y2252D02*
X2951Y2252D01*
X0Y2251D02*
X7Y2251D01*
X2944Y2251D02*
X2951Y2251D01*
X0Y2250D02*
X7Y2250D01*
X2944Y2250D02*
X2951Y2250D01*
X0Y2249D02*
X7Y2249D01*
X2944Y2249D02*
X2951Y2249D01*
X0Y2248D02*
X7Y2248D01*
X2944Y2248D02*
X2951Y2248D01*
X0Y2247D02*
X7Y2247D01*
X2944Y2247D02*
X2951Y2247D01*
X0Y2246D02*
X7Y2246D01*
X2944Y2246D02*
X2951Y2246D01*
X0Y2245D02*
X7Y2245D01*
X2944Y2245D02*
X2951Y2245D01*
X0Y2244D02*
X7Y2244D01*
X2944Y2244D02*
X2951Y2244D01*
X0Y2243D02*
X7Y2243D01*
X2944Y2243D02*
X2951Y2243D01*
X0Y2242D02*
X7Y2242D01*
X2944Y2242D02*
X2951Y2242D01*
X0Y2241D02*
X7Y2241D01*
X2944Y2241D02*
X2951Y2241D01*
X0Y2240D02*
X7Y2240D01*
X2944Y2240D02*
X2951Y2240D01*
X0Y2239D02*
X7Y2239D01*
X2944Y2239D02*
X2951Y2239D01*
X0Y2238D02*
X7Y2238D01*
X2944Y2238D02*
X2951Y2238D01*
X0Y2237D02*
X7Y2237D01*
X2944Y2237D02*
X2951Y2237D01*
X0Y2236D02*
X7Y2236D01*
X2944Y2236D02*
X2951Y2236D01*
X0Y2235D02*
X7Y2235D01*
X2944Y2235D02*
X2951Y2235D01*
X0Y2234D02*
X7Y2234D01*
X2944Y2234D02*
X2951Y2234D01*
X0Y2233D02*
X7Y2233D01*
X2944Y2233D02*
X2951Y2233D01*
X0Y2232D02*
X7Y2232D01*
X2944Y2232D02*
X2951Y2232D01*
X0Y2231D02*
X7Y2231D01*
X2944Y2231D02*
X2951Y2231D01*
X0Y2230D02*
X7Y2230D01*
X2944Y2230D02*
X2951Y2230D01*
X0Y2229D02*
X7Y2229D01*
X2944Y2229D02*
X2951Y2229D01*
X0Y2228D02*
X7Y2228D01*
X2944Y2228D02*
X2951Y2228D01*
X0Y2227D02*
X7Y2227D01*
X2944Y2227D02*
X2951Y2227D01*
X0Y2226D02*
X7Y2226D01*
X2944Y2226D02*
X2951Y2226D01*
X0Y2225D02*
X7Y2225D01*
X2944Y2225D02*
X2951Y2225D01*
X0Y2224D02*
X7Y2224D01*
X2944Y2224D02*
X2951Y2224D01*
X0Y2223D02*
X7Y2223D01*
X2944Y2223D02*
X2951Y2223D01*
X0Y2222D02*
X7Y2222D01*
X2944Y2222D02*
X2951Y2222D01*
X0Y2221D02*
X7Y2221D01*
X2944Y2221D02*
X2951Y2221D01*
X0Y2220D02*
X7Y2220D01*
X2944Y2220D02*
X2951Y2220D01*
X0Y2219D02*
X7Y2219D01*
X2944Y2219D02*
X2951Y2219D01*
X0Y2218D02*
X7Y2218D01*
X2944Y2218D02*
X2951Y2218D01*
X0Y2217D02*
X7Y2217D01*
X2944Y2217D02*
X2951Y2217D01*
X0Y2216D02*
X7Y2216D01*
X2944Y2216D02*
X2951Y2216D01*
X0Y2215D02*
X7Y2215D01*
X2944Y2215D02*
X2951Y2215D01*
X0Y2214D02*
X7Y2214D01*
X2944Y2214D02*
X2951Y2214D01*
X0Y2213D02*
X7Y2213D01*
X2944Y2213D02*
X2951Y2213D01*
X0Y2212D02*
X7Y2212D01*
X2944Y2212D02*
X2951Y2212D01*
X0Y2211D02*
X7Y2211D01*
X2944Y2211D02*
X2951Y2211D01*
X0Y2210D02*
X7Y2210D01*
X2944Y2210D02*
X2951Y2210D01*
X0Y2209D02*
X7Y2209D01*
X2944Y2209D02*
X2951Y2209D01*
X0Y2208D02*
X7Y2208D01*
X2944Y2208D02*
X2951Y2208D01*
X0Y2207D02*
X7Y2207D01*
X2944Y2207D02*
X2951Y2207D01*
X0Y2206D02*
X7Y2206D01*
X2944Y2206D02*
X2951Y2206D01*
X0Y2205D02*
X7Y2205D01*
X2944Y2205D02*
X2951Y2205D01*
X0Y2204D02*
X7Y2204D01*
X2944Y2204D02*
X2951Y2204D01*
X0Y2203D02*
X7Y2203D01*
X2944Y2203D02*
X2951Y2203D01*
X0Y2202D02*
X7Y2202D01*
X2944Y2202D02*
X2951Y2202D01*
X0Y2201D02*
X7Y2201D01*
X2944Y2201D02*
X2951Y2201D01*
X0Y2200D02*
X7Y2200D01*
X2944Y2200D02*
X2951Y2200D01*
X0Y2199D02*
X7Y2199D01*
X2944Y2199D02*
X2951Y2199D01*
X0Y2198D02*
X7Y2198D01*
X2944Y2198D02*
X2951Y2198D01*
X0Y2197D02*
X7Y2197D01*
X2944Y2197D02*
X2951Y2197D01*
X0Y2196D02*
X7Y2196D01*
X2944Y2196D02*
X2951Y2196D01*
X0Y2195D02*
X7Y2195D01*
X2944Y2195D02*
X2951Y2195D01*
X0Y2194D02*
X7Y2194D01*
X2944Y2194D02*
X2951Y2194D01*
X0Y2193D02*
X7Y2193D01*
X2944Y2193D02*
X2951Y2193D01*
X0Y2192D02*
X7Y2192D01*
X2944Y2192D02*
X2951Y2192D01*
X0Y2191D02*
X7Y2191D01*
X2944Y2191D02*
X2951Y2191D01*
X0Y2190D02*
X7Y2190D01*
X2944Y2190D02*
X2951Y2190D01*
X0Y2189D02*
X7Y2189D01*
X2944Y2189D02*
X2951Y2189D01*
X0Y2188D02*
X7Y2188D01*
X2944Y2188D02*
X2951Y2188D01*
X0Y2187D02*
X7Y2187D01*
X2944Y2187D02*
X2951Y2187D01*
X0Y2186D02*
X7Y2186D01*
X2944Y2186D02*
X2951Y2186D01*
X0Y2185D02*
X7Y2185D01*
X2944Y2185D02*
X2951Y2185D01*
X0Y2184D02*
X7Y2184D01*
X2944Y2184D02*
X2951Y2184D01*
X0Y2183D02*
X7Y2183D01*
X2944Y2183D02*
X2951Y2183D01*
X0Y2182D02*
X7Y2182D01*
X2944Y2182D02*
X2951Y2182D01*
X0Y2181D02*
X7Y2181D01*
X2944Y2181D02*
X2951Y2181D01*
X0Y2180D02*
X7Y2180D01*
X2944Y2180D02*
X2951Y2180D01*
X0Y2179D02*
X7Y2179D01*
X2944Y2179D02*
X2951Y2179D01*
X0Y2178D02*
X7Y2178D01*
X2944Y2178D02*
X2951Y2178D01*
X0Y2177D02*
X7Y2177D01*
X2944Y2177D02*
X2951Y2177D01*
X0Y2176D02*
X7Y2176D01*
X2944Y2176D02*
X2951Y2176D01*
X0Y2175D02*
X7Y2175D01*
X2944Y2175D02*
X2951Y2175D01*
X0Y2174D02*
X7Y2174D01*
X2944Y2174D02*
X2951Y2174D01*
X0Y2173D02*
X7Y2173D01*
X2944Y2173D02*
X2951Y2173D01*
X0Y2172D02*
X7Y2172D01*
X2944Y2172D02*
X2951Y2172D01*
X0Y2171D02*
X7Y2171D01*
X2944Y2171D02*
X2951Y2171D01*
X0Y2170D02*
X7Y2170D01*
X2944Y2170D02*
X2951Y2170D01*
X0Y2169D02*
X7Y2169D01*
X2944Y2169D02*
X2951Y2169D01*
X0Y2168D02*
X7Y2168D01*
X2944Y2168D02*
X2951Y2168D01*
X0Y2167D02*
X7Y2167D01*
X2944Y2167D02*
X2951Y2167D01*
X0Y2166D02*
X7Y2166D01*
X2944Y2166D02*
X2951Y2166D01*
X0Y2165D02*
X7Y2165D01*
X2944Y2165D02*
X2951Y2165D01*
X0Y2164D02*
X7Y2164D01*
X2944Y2164D02*
X2951Y2164D01*
X0Y2163D02*
X7Y2163D01*
X2944Y2163D02*
X2951Y2163D01*
X0Y2162D02*
X7Y2162D01*
X2944Y2162D02*
X2951Y2162D01*
X0Y2161D02*
X7Y2161D01*
X2944Y2161D02*
X2951Y2161D01*
X0Y2160D02*
X7Y2160D01*
X2944Y2160D02*
X2951Y2160D01*
X0Y2159D02*
X7Y2159D01*
X2944Y2159D02*
X2951Y2159D01*
X0Y2158D02*
X7Y2158D01*
X2944Y2158D02*
X2951Y2158D01*
X0Y2157D02*
X7Y2157D01*
X2944Y2157D02*
X2951Y2157D01*
X0Y2156D02*
X7Y2156D01*
X2944Y2156D02*
X2951Y2156D01*
X0Y2155D02*
X7Y2155D01*
X2944Y2155D02*
X2951Y2155D01*
X0Y2154D02*
X7Y2154D01*
X2944Y2154D02*
X2951Y2154D01*
X0Y2153D02*
X7Y2153D01*
X2944Y2153D02*
X2951Y2153D01*
X0Y2152D02*
X7Y2152D01*
X2944Y2152D02*
X2951Y2152D01*
X0Y2151D02*
X7Y2151D01*
X2944Y2151D02*
X2951Y2151D01*
X0Y2150D02*
X7Y2150D01*
X2944Y2150D02*
X2951Y2150D01*
X0Y2149D02*
X7Y2149D01*
X2944Y2149D02*
X2951Y2149D01*
X0Y2148D02*
X7Y2148D01*
X2944Y2148D02*
X2951Y2148D01*
X0Y2147D02*
X7Y2147D01*
X2944Y2147D02*
X2951Y2147D01*
X0Y2146D02*
X7Y2146D01*
X2944Y2146D02*
X2951Y2146D01*
X0Y2145D02*
X7Y2145D01*
X2944Y2145D02*
X2951Y2145D01*
X0Y2144D02*
X7Y2144D01*
X2944Y2144D02*
X2951Y2144D01*
X0Y2143D02*
X7Y2143D01*
X2944Y2143D02*
X2951Y2143D01*
X0Y2142D02*
X7Y2142D01*
X2944Y2142D02*
X2951Y2142D01*
X0Y2141D02*
X7Y2141D01*
X2944Y2141D02*
X2951Y2141D01*
X0Y2140D02*
X7Y2140D01*
X2944Y2140D02*
X2951Y2140D01*
X0Y2139D02*
X7Y2139D01*
X2944Y2139D02*
X2951Y2139D01*
X0Y2138D02*
X7Y2138D01*
X2944Y2138D02*
X2951Y2138D01*
X0Y2137D02*
X7Y2137D01*
X2944Y2137D02*
X2951Y2137D01*
X0Y2136D02*
X7Y2136D01*
X2944Y2136D02*
X2951Y2136D01*
X0Y2135D02*
X7Y2135D01*
X2944Y2135D02*
X2951Y2135D01*
X0Y2134D02*
X7Y2134D01*
X2944Y2134D02*
X2951Y2134D01*
X0Y2133D02*
X7Y2133D01*
X2944Y2133D02*
X2951Y2133D01*
X0Y2132D02*
X7Y2132D01*
X2944Y2132D02*
X2951Y2132D01*
X0Y2131D02*
X7Y2131D01*
X2944Y2131D02*
X2951Y2131D01*
X0Y2130D02*
X7Y2130D01*
X2944Y2130D02*
X2951Y2130D01*
X0Y2129D02*
X7Y2129D01*
X2944Y2129D02*
X2951Y2129D01*
X0Y2128D02*
X7Y2128D01*
X2944Y2128D02*
X2951Y2128D01*
X0Y2127D02*
X7Y2127D01*
X2944Y2127D02*
X2951Y2127D01*
X0Y2126D02*
X7Y2126D01*
X2944Y2126D02*
X2951Y2126D01*
X0Y2125D02*
X7Y2125D01*
X2944Y2125D02*
X2951Y2125D01*
X0Y2124D02*
X7Y2124D01*
X2944Y2124D02*
X2951Y2124D01*
X0Y2123D02*
X7Y2123D01*
X2944Y2123D02*
X2951Y2123D01*
X0Y2122D02*
X7Y2122D01*
X2944Y2122D02*
X2951Y2122D01*
X0Y2121D02*
X7Y2121D01*
X2944Y2121D02*
X2951Y2121D01*
X0Y2120D02*
X7Y2120D01*
X2944Y2120D02*
X2951Y2120D01*
X0Y2119D02*
X7Y2119D01*
X2944Y2119D02*
X2951Y2119D01*
X0Y2118D02*
X7Y2118D01*
X2944Y2118D02*
X2951Y2118D01*
X0Y2117D02*
X7Y2117D01*
X2944Y2117D02*
X2951Y2117D01*
X0Y2116D02*
X7Y2116D01*
X2944Y2116D02*
X2951Y2116D01*
X0Y2115D02*
X7Y2115D01*
X2944Y2115D02*
X2951Y2115D01*
X0Y2114D02*
X7Y2114D01*
X2944Y2114D02*
X2951Y2114D01*
X0Y2113D02*
X7Y2113D01*
X2944Y2113D02*
X2951Y2113D01*
X0Y2112D02*
X7Y2112D01*
X2944Y2112D02*
X2951Y2112D01*
X0Y2111D02*
X7Y2111D01*
X2944Y2111D02*
X2951Y2111D01*
X0Y2110D02*
X7Y2110D01*
X2944Y2110D02*
X2951Y2110D01*
X0Y2109D02*
X7Y2109D01*
X2944Y2109D02*
X2951Y2109D01*
X0Y2108D02*
X7Y2108D01*
X2944Y2108D02*
X2951Y2108D01*
X0Y2107D02*
X7Y2107D01*
X2944Y2107D02*
X2951Y2107D01*
X0Y2106D02*
X7Y2106D01*
X2944Y2106D02*
X2951Y2106D01*
X0Y2105D02*
X7Y2105D01*
X2944Y2105D02*
X2951Y2105D01*
X0Y2104D02*
X7Y2104D01*
X2944Y2104D02*
X2951Y2104D01*
X0Y2103D02*
X7Y2103D01*
X2944Y2103D02*
X2951Y2103D01*
X0Y2102D02*
X7Y2102D01*
X2944Y2102D02*
X2951Y2102D01*
X0Y2101D02*
X7Y2101D01*
X2944Y2101D02*
X2951Y2101D01*
X0Y2100D02*
X7Y2100D01*
X2944Y2100D02*
X2951Y2100D01*
X0Y2099D02*
X7Y2099D01*
X2944Y2099D02*
X2951Y2099D01*
X0Y2098D02*
X7Y2098D01*
X2944Y2098D02*
X2951Y2098D01*
X0Y2097D02*
X7Y2097D01*
X2944Y2097D02*
X2951Y2097D01*
X0Y2096D02*
X7Y2096D01*
X2944Y2096D02*
X2951Y2096D01*
X0Y2095D02*
X7Y2095D01*
X2944Y2095D02*
X2951Y2095D01*
X0Y2094D02*
X7Y2094D01*
X2944Y2094D02*
X2951Y2094D01*
X0Y2093D02*
X7Y2093D01*
X2944Y2093D02*
X2951Y2093D01*
X0Y2092D02*
X7Y2092D01*
X2944Y2092D02*
X2951Y2092D01*
X0Y2091D02*
X7Y2091D01*
X2944Y2091D02*
X2951Y2091D01*
X0Y2090D02*
X7Y2090D01*
X2944Y2090D02*
X2951Y2090D01*
X0Y2089D02*
X7Y2089D01*
X2944Y2089D02*
X2951Y2089D01*
X0Y2088D02*
X7Y2088D01*
X2944Y2088D02*
X2951Y2088D01*
X0Y2087D02*
X7Y2087D01*
X2944Y2087D02*
X2951Y2087D01*
X0Y2086D02*
X7Y2086D01*
X2944Y2086D02*
X2951Y2086D01*
X0Y2085D02*
X7Y2085D01*
X2944Y2085D02*
X2951Y2085D01*
X0Y2084D02*
X7Y2084D01*
X2944Y2084D02*
X2951Y2084D01*
X0Y2083D02*
X7Y2083D01*
X2944Y2083D02*
X2951Y2083D01*
X0Y2082D02*
X7Y2082D01*
X2944Y2082D02*
X2951Y2082D01*
X0Y2081D02*
X7Y2081D01*
X2944Y2081D02*
X2951Y2081D01*
X0Y2080D02*
X7Y2080D01*
X2944Y2080D02*
X2951Y2080D01*
X0Y2079D02*
X7Y2079D01*
X2944Y2079D02*
X2951Y2079D01*
X0Y2078D02*
X7Y2078D01*
X2944Y2078D02*
X2951Y2078D01*
X0Y2077D02*
X7Y2077D01*
X2944Y2077D02*
X2951Y2077D01*
X0Y2076D02*
X7Y2076D01*
X2944Y2076D02*
X2951Y2076D01*
X0Y2075D02*
X7Y2075D01*
X2944Y2075D02*
X2951Y2075D01*
X0Y2074D02*
X7Y2074D01*
X2944Y2074D02*
X2951Y2074D01*
X0Y2073D02*
X7Y2073D01*
X2944Y2073D02*
X2951Y2073D01*
X0Y2072D02*
X7Y2072D01*
X2944Y2072D02*
X2951Y2072D01*
X0Y2071D02*
X7Y2071D01*
X2944Y2071D02*
X2951Y2071D01*
X0Y2070D02*
X7Y2070D01*
X2944Y2070D02*
X2951Y2070D01*
X0Y2069D02*
X7Y2069D01*
X2944Y2069D02*
X2951Y2069D01*
X0Y2068D02*
X7Y2068D01*
X2944Y2068D02*
X2951Y2068D01*
X0Y2067D02*
X7Y2067D01*
X2944Y2067D02*
X2951Y2067D01*
X0Y2066D02*
X7Y2066D01*
X2944Y2066D02*
X2951Y2066D01*
X0Y2065D02*
X7Y2065D01*
X2944Y2065D02*
X2951Y2065D01*
X0Y2064D02*
X7Y2064D01*
X2944Y2064D02*
X2951Y2064D01*
X0Y2063D02*
X7Y2063D01*
X2944Y2063D02*
X2951Y2063D01*
X0Y2062D02*
X7Y2062D01*
X2944Y2062D02*
X2951Y2062D01*
X0Y2061D02*
X7Y2061D01*
X2944Y2061D02*
X2951Y2061D01*
X0Y2060D02*
X7Y2060D01*
X2944Y2060D02*
X2951Y2060D01*
X0Y2059D02*
X7Y2059D01*
X2944Y2059D02*
X2951Y2059D01*
X0Y2058D02*
X7Y2058D01*
X2944Y2058D02*
X2951Y2058D01*
X0Y2057D02*
X7Y2057D01*
X2944Y2057D02*
X2951Y2057D01*
X0Y2056D02*
X7Y2056D01*
X2944Y2056D02*
X2951Y2056D01*
X0Y2055D02*
X7Y2055D01*
X2944Y2055D02*
X2951Y2055D01*
X0Y2054D02*
X7Y2054D01*
X2944Y2054D02*
X2951Y2054D01*
X0Y2053D02*
X7Y2053D01*
X2944Y2053D02*
X2951Y2053D01*
X0Y2052D02*
X7Y2052D01*
X2944Y2052D02*
X2951Y2052D01*
X0Y2051D02*
X7Y2051D01*
X2944Y2051D02*
X2951Y2051D01*
X0Y2050D02*
X7Y2050D01*
X2944Y2050D02*
X2951Y2050D01*
X0Y2049D02*
X7Y2049D01*
X2944Y2049D02*
X2951Y2049D01*
X0Y2048D02*
X7Y2048D01*
X2944Y2048D02*
X2951Y2048D01*
X0Y2047D02*
X7Y2047D01*
X2944Y2047D02*
X2951Y2047D01*
X0Y2046D02*
X7Y2046D01*
X2944Y2046D02*
X2951Y2046D01*
X0Y2045D02*
X7Y2045D01*
X2944Y2045D02*
X2951Y2045D01*
X0Y2044D02*
X7Y2044D01*
X2944Y2044D02*
X2951Y2044D01*
X0Y2043D02*
X7Y2043D01*
X2944Y2043D02*
X2951Y2043D01*
X0Y2042D02*
X7Y2042D01*
X2944Y2042D02*
X2951Y2042D01*
X0Y2041D02*
X7Y2041D01*
X2944Y2041D02*
X2951Y2041D01*
X0Y2040D02*
X7Y2040D01*
X2944Y2040D02*
X2951Y2040D01*
X0Y2039D02*
X7Y2039D01*
X2944Y2039D02*
X2951Y2039D01*
X0Y2038D02*
X7Y2038D01*
X2944Y2038D02*
X2951Y2038D01*
X0Y2037D02*
X7Y2037D01*
X2944Y2037D02*
X2951Y2037D01*
X0Y2036D02*
X7Y2036D01*
X2944Y2036D02*
X2951Y2036D01*
X0Y2035D02*
X7Y2035D01*
X2944Y2035D02*
X2951Y2035D01*
X0Y2034D02*
X7Y2034D01*
X2944Y2034D02*
X2951Y2034D01*
X0Y2033D02*
X7Y2033D01*
X2944Y2033D02*
X2951Y2033D01*
X0Y2032D02*
X7Y2032D01*
X2944Y2032D02*
X2951Y2032D01*
X0Y2031D02*
X7Y2031D01*
X2944Y2031D02*
X2951Y2031D01*
X0Y2030D02*
X7Y2030D01*
X2944Y2030D02*
X2951Y2030D01*
X0Y2029D02*
X7Y2029D01*
X2944Y2029D02*
X2951Y2029D01*
X0Y2028D02*
X7Y2028D01*
X2944Y2028D02*
X2951Y2028D01*
X0Y2027D02*
X7Y2027D01*
X2944Y2027D02*
X2951Y2027D01*
X0Y2026D02*
X7Y2026D01*
X2944Y2026D02*
X2951Y2026D01*
X0Y2025D02*
X7Y2025D01*
X2944Y2025D02*
X2951Y2025D01*
X0Y2024D02*
X7Y2024D01*
X2944Y2024D02*
X2951Y2024D01*
X0Y2023D02*
X7Y2023D01*
X2944Y2023D02*
X2951Y2023D01*
X0Y2022D02*
X7Y2022D01*
X2944Y2022D02*
X2951Y2022D01*
X0Y2021D02*
X7Y2021D01*
X2944Y2021D02*
X2951Y2021D01*
X0Y2020D02*
X7Y2020D01*
X2944Y2020D02*
X2951Y2020D01*
X0Y2019D02*
X7Y2019D01*
X2944Y2019D02*
X2951Y2019D01*
X0Y2018D02*
X7Y2018D01*
X2944Y2018D02*
X2951Y2018D01*
X0Y2017D02*
X7Y2017D01*
X2944Y2017D02*
X2951Y2017D01*
X0Y2016D02*
X7Y2016D01*
X2944Y2016D02*
X2951Y2016D01*
X0Y2015D02*
X7Y2015D01*
X2944Y2015D02*
X2951Y2015D01*
X0Y2014D02*
X7Y2014D01*
X2944Y2014D02*
X2951Y2014D01*
X0Y2013D02*
X7Y2013D01*
X2944Y2013D02*
X2951Y2013D01*
X0Y2012D02*
X7Y2012D01*
X2944Y2012D02*
X2951Y2012D01*
X0Y2011D02*
X7Y2011D01*
X2944Y2011D02*
X2951Y2011D01*
X0Y2010D02*
X7Y2010D01*
X2944Y2010D02*
X2951Y2010D01*
X0Y2009D02*
X7Y2009D01*
X2944Y2009D02*
X2951Y2009D01*
X0Y2008D02*
X7Y2008D01*
X2944Y2008D02*
X2951Y2008D01*
X0Y2007D02*
X7Y2007D01*
X2944Y2007D02*
X2951Y2007D01*
X0Y2006D02*
X7Y2006D01*
X2944Y2006D02*
X2951Y2006D01*
X0Y2005D02*
X7Y2005D01*
X2944Y2005D02*
X2951Y2005D01*
X0Y2004D02*
X7Y2004D01*
X2944Y2004D02*
X2951Y2004D01*
X0Y2003D02*
X7Y2003D01*
X2944Y2003D02*
X2951Y2003D01*
X0Y2002D02*
X7Y2002D01*
X2944Y2002D02*
X2951Y2002D01*
X0Y2001D02*
X7Y2001D01*
X2944Y2001D02*
X2951Y2001D01*
X0Y2000D02*
X7Y2000D01*
X2944Y2000D02*
X2951Y2000D01*
X0Y1999D02*
X7Y1999D01*
X2944Y1999D02*
X2951Y1999D01*
X0Y1998D02*
X7Y1998D01*
X2944Y1998D02*
X2951Y1998D01*
X0Y1997D02*
X7Y1997D01*
X2944Y1997D02*
X2951Y1997D01*
X0Y1996D02*
X7Y1996D01*
X2944Y1996D02*
X2951Y1996D01*
X0Y1995D02*
X7Y1995D01*
X2944Y1995D02*
X2951Y1995D01*
X0Y1994D02*
X7Y1994D01*
X2944Y1994D02*
X2951Y1994D01*
X0Y1993D02*
X7Y1993D01*
X2944Y1993D02*
X2951Y1993D01*
X0Y1992D02*
X7Y1992D01*
X2944Y1992D02*
X2951Y1992D01*
X0Y1991D02*
X7Y1991D01*
X2944Y1991D02*
X2951Y1991D01*
X0Y1990D02*
X7Y1990D01*
X2944Y1990D02*
X2951Y1990D01*
X0Y1989D02*
X7Y1989D01*
X2944Y1989D02*
X2951Y1989D01*
X0Y1988D02*
X7Y1988D01*
X2944Y1988D02*
X2951Y1988D01*
X0Y1987D02*
X7Y1987D01*
X2944Y1987D02*
X2951Y1987D01*
X0Y1986D02*
X7Y1986D01*
X2944Y1986D02*
X2951Y1986D01*
X0Y1985D02*
X7Y1985D01*
X2944Y1985D02*
X2951Y1985D01*
X0Y1984D02*
X7Y1984D01*
X2944Y1984D02*
X2951Y1984D01*
X0Y1983D02*
X7Y1983D01*
X2944Y1983D02*
X2951Y1983D01*
X0Y1982D02*
X7Y1982D01*
X2944Y1982D02*
X2951Y1982D01*
X0Y1981D02*
X7Y1981D01*
X2944Y1981D02*
X2951Y1981D01*
X0Y1980D02*
X7Y1980D01*
X2944Y1980D02*
X2951Y1980D01*
X0Y1979D02*
X7Y1979D01*
X2944Y1979D02*
X2951Y1979D01*
X0Y1978D02*
X7Y1978D01*
X2944Y1978D02*
X2951Y1978D01*
X0Y1977D02*
X7Y1977D01*
X2944Y1977D02*
X2951Y1977D01*
X0Y1976D02*
X7Y1976D01*
X2944Y1976D02*
X2951Y1976D01*
X0Y1975D02*
X7Y1975D01*
X2944Y1975D02*
X2951Y1975D01*
X0Y1974D02*
X7Y1974D01*
X2944Y1974D02*
X2951Y1974D01*
X0Y1973D02*
X7Y1973D01*
X2944Y1973D02*
X2951Y1973D01*
X0Y1972D02*
X7Y1972D01*
X2944Y1972D02*
X2951Y1972D01*
X0Y1971D02*
X7Y1971D01*
X2944Y1971D02*
X2951Y1971D01*
X0Y1970D02*
X7Y1970D01*
X2944Y1970D02*
X2951Y1970D01*
X0Y1969D02*
X7Y1969D01*
X2944Y1969D02*
X2951Y1969D01*
X0Y1968D02*
X7Y1968D01*
X2944Y1968D02*
X2951Y1968D01*
X0Y1967D02*
X7Y1967D01*
X2944Y1967D02*
X2951Y1967D01*
X0Y1966D02*
X7Y1966D01*
X2944Y1966D02*
X2951Y1966D01*
X0Y1965D02*
X7Y1965D01*
X2944Y1965D02*
X2951Y1965D01*
X0Y1964D02*
X7Y1964D01*
X2944Y1964D02*
X2951Y1964D01*
X0Y1963D02*
X7Y1963D01*
X2944Y1963D02*
X2951Y1963D01*
X0Y1962D02*
X7Y1962D01*
X2944Y1962D02*
X2951Y1962D01*
X0Y1961D02*
X7Y1961D01*
X2944Y1961D02*
X2951Y1961D01*
X0Y1960D02*
X7Y1960D01*
X2944Y1960D02*
X2951Y1960D01*
X0Y1959D02*
X7Y1959D01*
X2944Y1959D02*
X2951Y1959D01*
X0Y1958D02*
X7Y1958D01*
X2944Y1958D02*
X2951Y1958D01*
X0Y1957D02*
X7Y1957D01*
X2944Y1957D02*
X2951Y1957D01*
X0Y1956D02*
X7Y1956D01*
X2944Y1956D02*
X2951Y1956D01*
X0Y1955D02*
X7Y1955D01*
X2944Y1955D02*
X2951Y1955D01*
X0Y1954D02*
X7Y1954D01*
X2944Y1954D02*
X2951Y1954D01*
X0Y1953D02*
X7Y1953D01*
X2944Y1953D02*
X2951Y1953D01*
X0Y1952D02*
X7Y1952D01*
X2944Y1952D02*
X2951Y1952D01*
X0Y1951D02*
X7Y1951D01*
X2944Y1951D02*
X2951Y1951D01*
X0Y1950D02*
X7Y1950D01*
X2944Y1950D02*
X2951Y1950D01*
X0Y1949D02*
X7Y1949D01*
X2944Y1949D02*
X2951Y1949D01*
X0Y1948D02*
X7Y1948D01*
X2944Y1948D02*
X2951Y1948D01*
X0Y1947D02*
X7Y1947D01*
X2944Y1947D02*
X2951Y1947D01*
X0Y1946D02*
X7Y1946D01*
X2944Y1946D02*
X2951Y1946D01*
X0Y1945D02*
X7Y1945D01*
X2944Y1945D02*
X2951Y1945D01*
X0Y1944D02*
X7Y1944D01*
X2944Y1944D02*
X2951Y1944D01*
X0Y1943D02*
X7Y1943D01*
X2944Y1943D02*
X2951Y1943D01*
X0Y1942D02*
X7Y1942D01*
X2944Y1942D02*
X2951Y1942D01*
X0Y1941D02*
X7Y1941D01*
X2944Y1941D02*
X2951Y1941D01*
X0Y1940D02*
X7Y1940D01*
X2944Y1940D02*
X2951Y1940D01*
X0Y1939D02*
X7Y1939D01*
X2944Y1939D02*
X2951Y1939D01*
X0Y1938D02*
X7Y1938D01*
X2944Y1938D02*
X2951Y1938D01*
X0Y1937D02*
X7Y1937D01*
X2944Y1937D02*
X2951Y1937D01*
X0Y1936D02*
X7Y1936D01*
X2944Y1936D02*
X2951Y1936D01*
X0Y1935D02*
X7Y1935D01*
X2944Y1935D02*
X2951Y1935D01*
X0Y1934D02*
X7Y1934D01*
X2944Y1934D02*
X2951Y1934D01*
X0Y1933D02*
X7Y1933D01*
X2944Y1933D02*
X2951Y1933D01*
X0Y1932D02*
X7Y1932D01*
X2944Y1932D02*
X2951Y1932D01*
X0Y1931D02*
X7Y1931D01*
X2944Y1931D02*
X2951Y1931D01*
X0Y1930D02*
X7Y1930D01*
X2944Y1930D02*
X2951Y1930D01*
X0Y1929D02*
X7Y1929D01*
X2944Y1929D02*
X2951Y1929D01*
X0Y1928D02*
X7Y1928D01*
X2944Y1928D02*
X2951Y1928D01*
X0Y1927D02*
X7Y1927D01*
X2944Y1927D02*
X2951Y1927D01*
X0Y1926D02*
X7Y1926D01*
X2944Y1926D02*
X2951Y1926D01*
X0Y1925D02*
X7Y1925D01*
X2944Y1925D02*
X2951Y1925D01*
X0Y1924D02*
X7Y1924D01*
X2944Y1924D02*
X2951Y1924D01*
X0Y1923D02*
X7Y1923D01*
X2944Y1923D02*
X2951Y1923D01*
X0Y1922D02*
X7Y1922D01*
X2944Y1922D02*
X2951Y1922D01*
X0Y1921D02*
X7Y1921D01*
X2944Y1921D02*
X2951Y1921D01*
X0Y1920D02*
X7Y1920D01*
X2944Y1920D02*
X2951Y1920D01*
X0Y1919D02*
X7Y1919D01*
X2944Y1919D02*
X2951Y1919D01*
X0Y1918D02*
X7Y1918D01*
X2944Y1918D02*
X2951Y1918D01*
X0Y1917D02*
X7Y1917D01*
X2944Y1917D02*
X2951Y1917D01*
X0Y1916D02*
X7Y1916D01*
X2944Y1916D02*
X2951Y1916D01*
X0Y1915D02*
X7Y1915D01*
X2944Y1915D02*
X2951Y1915D01*
X0Y1914D02*
X7Y1914D01*
X2944Y1914D02*
X2951Y1914D01*
X0Y1913D02*
X7Y1913D01*
X2944Y1913D02*
X2951Y1913D01*
X0Y1912D02*
X7Y1912D01*
X2944Y1912D02*
X2951Y1912D01*
X0Y1911D02*
X7Y1911D01*
X2944Y1911D02*
X2951Y1911D01*
X0Y1910D02*
X7Y1910D01*
X2944Y1910D02*
X2951Y1910D01*
X0Y1909D02*
X7Y1909D01*
X2944Y1909D02*
X2951Y1909D01*
X0Y1908D02*
X7Y1908D01*
X2944Y1908D02*
X2951Y1908D01*
X0Y1907D02*
X7Y1907D01*
X2944Y1907D02*
X2951Y1907D01*
X0Y1906D02*
X7Y1906D01*
X2944Y1906D02*
X2951Y1906D01*
X0Y1905D02*
X7Y1905D01*
X2944Y1905D02*
X2951Y1905D01*
X0Y1904D02*
X7Y1904D01*
X2944Y1904D02*
X2951Y1904D01*
X0Y1903D02*
X7Y1903D01*
X2944Y1903D02*
X2951Y1903D01*
X0Y1902D02*
X7Y1902D01*
X2944Y1902D02*
X2951Y1902D01*
X0Y1901D02*
X7Y1901D01*
X2944Y1901D02*
X2951Y1901D01*
X0Y1900D02*
X7Y1900D01*
X2944Y1900D02*
X2951Y1900D01*
X0Y1899D02*
X7Y1899D01*
X2944Y1899D02*
X2951Y1899D01*
X0Y1898D02*
X7Y1898D01*
X2944Y1898D02*
X2951Y1898D01*
X0Y1897D02*
X7Y1897D01*
X2944Y1897D02*
X2951Y1897D01*
X0Y1896D02*
X7Y1896D01*
X2944Y1896D02*
X2951Y1896D01*
X0Y1895D02*
X7Y1895D01*
X2944Y1895D02*
X2951Y1895D01*
X0Y1894D02*
X7Y1894D01*
X2944Y1894D02*
X2951Y1894D01*
X0Y1893D02*
X7Y1893D01*
X2944Y1893D02*
X2951Y1893D01*
X0Y1892D02*
X7Y1892D01*
X2944Y1892D02*
X2951Y1892D01*
X0Y1891D02*
X7Y1891D01*
X2944Y1891D02*
X2951Y1891D01*
X0Y1890D02*
X7Y1890D01*
X2944Y1890D02*
X2951Y1890D01*
X0Y1889D02*
X7Y1889D01*
X2944Y1889D02*
X2951Y1889D01*
X0Y1888D02*
X7Y1888D01*
X2944Y1888D02*
X2951Y1888D01*
X0Y1887D02*
X7Y1887D01*
X2944Y1887D02*
X2951Y1887D01*
X0Y1886D02*
X7Y1886D01*
X2944Y1886D02*
X2951Y1886D01*
X0Y1885D02*
X7Y1885D01*
X2944Y1885D02*
X2951Y1885D01*
X0Y1884D02*
X7Y1884D01*
X2944Y1884D02*
X2951Y1884D01*
X0Y1883D02*
X7Y1883D01*
X2944Y1883D02*
X2951Y1883D01*
X0Y1882D02*
X7Y1882D01*
X2944Y1882D02*
X2951Y1882D01*
X0Y1881D02*
X7Y1881D01*
X2944Y1881D02*
X2951Y1881D01*
X0Y1880D02*
X7Y1880D01*
X2944Y1880D02*
X2951Y1880D01*
X0Y1879D02*
X7Y1879D01*
X2944Y1879D02*
X2951Y1879D01*
X0Y1878D02*
X7Y1878D01*
X2944Y1878D02*
X2951Y1878D01*
X0Y1877D02*
X7Y1877D01*
X2944Y1877D02*
X2951Y1877D01*
X0Y1876D02*
X7Y1876D01*
X2944Y1876D02*
X2951Y1876D01*
X0Y1875D02*
X7Y1875D01*
X2944Y1875D02*
X2951Y1875D01*
X0Y1874D02*
X7Y1874D01*
X2944Y1874D02*
X2951Y1874D01*
X0Y1873D02*
X7Y1873D01*
X2944Y1873D02*
X2951Y1873D01*
X0Y1872D02*
X7Y1872D01*
X2944Y1872D02*
X2951Y1872D01*
X0Y1871D02*
X7Y1871D01*
X2944Y1871D02*
X2951Y1871D01*
X0Y1870D02*
X7Y1870D01*
X2944Y1870D02*
X2951Y1870D01*
X0Y1869D02*
X7Y1869D01*
X2944Y1869D02*
X2951Y1869D01*
X0Y1868D02*
X7Y1868D01*
X2944Y1868D02*
X2951Y1868D01*
X0Y1867D02*
X7Y1867D01*
X2944Y1867D02*
X2951Y1867D01*
X0Y1866D02*
X7Y1866D01*
X2944Y1866D02*
X2951Y1866D01*
X0Y1865D02*
X7Y1865D01*
X2944Y1865D02*
X2951Y1865D01*
X0Y1864D02*
X7Y1864D01*
X2944Y1864D02*
X2951Y1864D01*
X0Y1863D02*
X7Y1863D01*
X2944Y1863D02*
X2951Y1863D01*
X0Y1862D02*
X7Y1862D01*
X2944Y1862D02*
X2951Y1862D01*
X0Y1861D02*
X7Y1861D01*
X2944Y1861D02*
X2951Y1861D01*
X0Y1860D02*
X7Y1860D01*
X2944Y1860D02*
X2951Y1860D01*
X0Y1859D02*
X7Y1859D01*
X2944Y1859D02*
X2951Y1859D01*
X0Y1858D02*
X7Y1858D01*
X2944Y1858D02*
X2951Y1858D01*
X0Y1857D02*
X7Y1857D01*
X2944Y1857D02*
X2951Y1857D01*
X0Y1856D02*
X7Y1856D01*
X2944Y1856D02*
X2951Y1856D01*
X0Y1855D02*
X7Y1855D01*
X2944Y1855D02*
X2951Y1855D01*
X0Y1854D02*
X7Y1854D01*
X2944Y1854D02*
X2951Y1854D01*
X0Y1853D02*
X7Y1853D01*
X2944Y1853D02*
X2951Y1853D01*
X0Y1852D02*
X7Y1852D01*
X2944Y1852D02*
X2951Y1852D01*
X0Y1851D02*
X7Y1851D01*
X2944Y1851D02*
X2951Y1851D01*
X0Y1850D02*
X7Y1850D01*
X2944Y1850D02*
X2951Y1850D01*
X0Y1849D02*
X7Y1849D01*
X2944Y1849D02*
X2951Y1849D01*
X0Y1848D02*
X7Y1848D01*
X2944Y1848D02*
X2951Y1848D01*
X0Y1847D02*
X7Y1847D01*
X2944Y1847D02*
X2951Y1847D01*
X0Y1846D02*
X7Y1846D01*
X2944Y1846D02*
X2951Y1846D01*
X0Y1845D02*
X7Y1845D01*
X2944Y1845D02*
X2951Y1845D01*
X0Y1844D02*
X7Y1844D01*
X2944Y1844D02*
X2951Y1844D01*
X0Y1843D02*
X7Y1843D01*
X2944Y1843D02*
X2951Y1843D01*
X0Y1842D02*
X7Y1842D01*
X2944Y1842D02*
X2951Y1842D01*
X0Y1841D02*
X7Y1841D01*
X2944Y1841D02*
X2951Y1841D01*
X0Y1840D02*
X7Y1840D01*
X2944Y1840D02*
X2951Y1840D01*
X0Y1839D02*
X7Y1839D01*
X2944Y1839D02*
X2951Y1839D01*
X0Y1838D02*
X7Y1838D01*
X2944Y1838D02*
X2951Y1838D01*
X0Y1837D02*
X7Y1837D01*
X2944Y1837D02*
X2951Y1837D01*
X0Y1836D02*
X7Y1836D01*
X2944Y1836D02*
X2951Y1836D01*
X0Y1835D02*
X7Y1835D01*
X2944Y1835D02*
X2951Y1835D01*
X0Y1834D02*
X7Y1834D01*
X2944Y1834D02*
X2951Y1834D01*
X0Y1833D02*
X7Y1833D01*
X2944Y1833D02*
X2951Y1833D01*
X0Y1832D02*
X7Y1832D01*
X2944Y1832D02*
X2951Y1832D01*
X0Y1831D02*
X7Y1831D01*
X2944Y1831D02*
X2951Y1831D01*
X0Y1830D02*
X7Y1830D01*
X2944Y1830D02*
X2951Y1830D01*
X0Y1829D02*
X7Y1829D01*
X2944Y1829D02*
X2951Y1829D01*
X0Y1828D02*
X7Y1828D01*
X2944Y1828D02*
X2951Y1828D01*
X0Y1827D02*
X7Y1827D01*
X2944Y1827D02*
X2951Y1827D01*
X0Y1826D02*
X7Y1826D01*
X2944Y1826D02*
X2951Y1826D01*
X0Y1825D02*
X7Y1825D01*
X2944Y1825D02*
X2951Y1825D01*
X0Y1824D02*
X7Y1824D01*
X2944Y1824D02*
X2951Y1824D01*
X0Y1823D02*
X7Y1823D01*
X2944Y1823D02*
X2951Y1823D01*
X0Y1822D02*
X7Y1822D01*
X2944Y1822D02*
X2951Y1822D01*
X0Y1821D02*
X7Y1821D01*
X2944Y1821D02*
X2951Y1821D01*
X0Y1820D02*
X7Y1820D01*
X2944Y1820D02*
X2951Y1820D01*
X0Y1819D02*
X7Y1819D01*
X2944Y1819D02*
X2951Y1819D01*
X0Y1818D02*
X7Y1818D01*
X2944Y1818D02*
X2951Y1818D01*
X0Y1817D02*
X7Y1817D01*
X2944Y1817D02*
X2951Y1817D01*
X0Y1816D02*
X7Y1816D01*
X2944Y1816D02*
X2951Y1816D01*
X0Y1815D02*
X7Y1815D01*
X2944Y1815D02*
X2951Y1815D01*
X0Y1814D02*
X7Y1814D01*
X2944Y1814D02*
X2951Y1814D01*
X0Y1813D02*
X7Y1813D01*
X2944Y1813D02*
X2951Y1813D01*
X0Y1812D02*
X7Y1812D01*
X2944Y1812D02*
X2951Y1812D01*
X0Y1811D02*
X7Y1811D01*
X2944Y1811D02*
X2951Y1811D01*
X0Y1810D02*
X7Y1810D01*
X2944Y1810D02*
X2951Y1810D01*
X0Y1809D02*
X7Y1809D01*
X2944Y1809D02*
X2951Y1809D01*
X0Y1808D02*
X7Y1808D01*
X2944Y1808D02*
X2951Y1808D01*
X0Y1807D02*
X7Y1807D01*
X2944Y1807D02*
X2951Y1807D01*
X0Y1806D02*
X7Y1806D01*
X2944Y1806D02*
X2951Y1806D01*
X0Y1805D02*
X7Y1805D01*
X2944Y1805D02*
X2951Y1805D01*
X0Y1804D02*
X7Y1804D01*
X2944Y1804D02*
X2951Y1804D01*
X0Y1803D02*
X7Y1803D01*
X2944Y1803D02*
X2951Y1803D01*
X0Y1802D02*
X7Y1802D01*
X2944Y1802D02*
X2951Y1802D01*
X0Y1801D02*
X7Y1801D01*
X2944Y1801D02*
X2951Y1801D01*
X0Y1800D02*
X7Y1800D01*
X2944Y1800D02*
X2951Y1800D01*
X0Y1799D02*
X7Y1799D01*
X2944Y1799D02*
X2951Y1799D01*
X0Y1798D02*
X7Y1798D01*
X2944Y1798D02*
X2951Y1798D01*
X0Y1797D02*
X7Y1797D01*
X2944Y1797D02*
X2951Y1797D01*
X0Y1796D02*
X7Y1796D01*
X2944Y1796D02*
X2951Y1796D01*
X0Y1795D02*
X7Y1795D01*
X2944Y1795D02*
X2951Y1795D01*
X0Y1794D02*
X7Y1794D01*
X2944Y1794D02*
X2951Y1794D01*
X0Y1793D02*
X7Y1793D01*
X2944Y1793D02*
X2951Y1793D01*
X0Y1792D02*
X7Y1792D01*
X2944Y1792D02*
X2951Y1792D01*
X0Y1791D02*
X7Y1791D01*
X2944Y1791D02*
X2951Y1791D01*
X0Y1790D02*
X7Y1790D01*
X2944Y1790D02*
X2951Y1790D01*
X0Y1789D02*
X7Y1789D01*
X2944Y1789D02*
X2951Y1789D01*
X0Y1788D02*
X7Y1788D01*
X2944Y1788D02*
X2951Y1788D01*
X0Y1787D02*
X7Y1787D01*
X2944Y1787D02*
X2951Y1787D01*
X0Y1786D02*
X7Y1786D01*
X2944Y1786D02*
X2951Y1786D01*
X0Y1785D02*
X7Y1785D01*
X2944Y1785D02*
X2951Y1785D01*
X0Y1784D02*
X7Y1784D01*
X2944Y1784D02*
X2951Y1784D01*
X0Y1783D02*
X7Y1783D01*
X2944Y1783D02*
X2951Y1783D01*
X0Y1782D02*
X7Y1782D01*
X2944Y1782D02*
X2951Y1782D01*
X0Y1781D02*
X7Y1781D01*
X2944Y1781D02*
X2951Y1781D01*
X0Y1780D02*
X7Y1780D01*
X2944Y1780D02*
X2951Y1780D01*
X0Y1779D02*
X7Y1779D01*
X2944Y1779D02*
X2951Y1779D01*
X0Y1778D02*
X7Y1778D01*
X2944Y1778D02*
X2951Y1778D01*
X0Y1777D02*
X7Y1777D01*
X2944Y1777D02*
X2951Y1777D01*
X0Y1776D02*
X7Y1776D01*
X2944Y1776D02*
X2951Y1776D01*
X0Y1775D02*
X7Y1775D01*
X2944Y1775D02*
X2951Y1775D01*
X0Y1774D02*
X7Y1774D01*
X2944Y1774D02*
X2951Y1774D01*
X0Y1773D02*
X7Y1773D01*
X2944Y1773D02*
X2951Y1773D01*
X0Y1772D02*
X7Y1772D01*
X2944Y1772D02*
X2951Y1772D01*
X0Y1771D02*
X7Y1771D01*
X2944Y1771D02*
X2951Y1771D01*
X0Y1770D02*
X7Y1770D01*
X2944Y1770D02*
X2951Y1770D01*
X0Y1769D02*
X7Y1769D01*
X2944Y1769D02*
X2951Y1769D01*
X0Y1768D02*
X7Y1768D01*
X2944Y1768D02*
X2951Y1768D01*
X0Y1767D02*
X7Y1767D01*
X2944Y1767D02*
X2951Y1767D01*
X0Y1766D02*
X7Y1766D01*
X2944Y1766D02*
X2951Y1766D01*
X0Y1765D02*
X7Y1765D01*
X2944Y1765D02*
X2951Y1765D01*
X0Y1764D02*
X7Y1764D01*
X2944Y1764D02*
X2951Y1764D01*
X0Y1763D02*
X7Y1763D01*
X2944Y1763D02*
X2951Y1763D01*
X0Y1762D02*
X7Y1762D01*
X2944Y1762D02*
X2951Y1762D01*
X0Y1761D02*
X7Y1761D01*
X2944Y1761D02*
X2951Y1761D01*
X0Y1760D02*
X7Y1760D01*
X2944Y1760D02*
X2951Y1760D01*
X0Y1759D02*
X7Y1759D01*
X2944Y1759D02*
X2951Y1759D01*
X0Y1758D02*
X7Y1758D01*
X2944Y1758D02*
X2951Y1758D01*
X0Y1757D02*
X7Y1757D01*
X2944Y1757D02*
X2951Y1757D01*
X0Y1756D02*
X7Y1756D01*
X2944Y1756D02*
X2951Y1756D01*
X0Y1755D02*
X7Y1755D01*
X2944Y1755D02*
X2951Y1755D01*
X0Y1754D02*
X7Y1754D01*
X2944Y1754D02*
X2951Y1754D01*
X0Y1753D02*
X7Y1753D01*
X2944Y1753D02*
X2951Y1753D01*
X0Y1752D02*
X7Y1752D01*
X2944Y1752D02*
X2951Y1752D01*
X0Y1751D02*
X7Y1751D01*
X2944Y1751D02*
X2951Y1751D01*
X0Y1750D02*
X7Y1750D01*
X2944Y1750D02*
X2951Y1750D01*
X0Y1749D02*
X7Y1749D01*
X2944Y1749D02*
X2951Y1749D01*
X0Y1748D02*
X7Y1748D01*
X2944Y1748D02*
X2951Y1748D01*
X0Y1747D02*
X7Y1747D01*
X2944Y1747D02*
X2951Y1747D01*
X0Y1746D02*
X7Y1746D01*
X2944Y1746D02*
X2951Y1746D01*
X0Y1745D02*
X7Y1745D01*
X2944Y1745D02*
X2951Y1745D01*
X0Y1744D02*
X7Y1744D01*
X2944Y1744D02*
X2951Y1744D01*
X0Y1743D02*
X7Y1743D01*
X2944Y1743D02*
X2951Y1743D01*
X0Y1742D02*
X7Y1742D01*
X2944Y1742D02*
X2951Y1742D01*
X0Y1741D02*
X7Y1741D01*
X2944Y1741D02*
X2951Y1741D01*
X0Y1740D02*
X7Y1740D01*
X2944Y1740D02*
X2951Y1740D01*
X0Y1739D02*
X7Y1739D01*
X2944Y1739D02*
X2951Y1739D01*
X0Y1738D02*
X7Y1738D01*
X2944Y1738D02*
X2951Y1738D01*
X0Y1737D02*
X7Y1737D01*
X2944Y1737D02*
X2951Y1737D01*
X0Y1736D02*
X7Y1736D01*
X2944Y1736D02*
X2951Y1736D01*
X0Y1735D02*
X7Y1735D01*
X2944Y1735D02*
X2951Y1735D01*
X0Y1734D02*
X7Y1734D01*
X2944Y1734D02*
X2951Y1734D01*
X0Y1733D02*
X7Y1733D01*
X2944Y1733D02*
X2951Y1733D01*
X0Y1732D02*
X7Y1732D01*
X2944Y1732D02*
X2951Y1732D01*
X0Y1731D02*
X7Y1731D01*
X2944Y1731D02*
X2951Y1731D01*
X0Y1730D02*
X7Y1730D01*
X2944Y1730D02*
X2951Y1730D01*
X0Y1729D02*
X7Y1729D01*
X2944Y1729D02*
X2951Y1729D01*
X0Y1728D02*
X7Y1728D01*
X2944Y1728D02*
X2951Y1728D01*
X0Y1727D02*
X7Y1727D01*
X2944Y1727D02*
X2951Y1727D01*
X0Y1726D02*
X7Y1726D01*
X2944Y1726D02*
X2951Y1726D01*
X0Y1725D02*
X7Y1725D01*
X2944Y1725D02*
X2951Y1725D01*
X0Y1724D02*
X7Y1724D01*
X2944Y1724D02*
X2951Y1724D01*
X0Y1723D02*
X7Y1723D01*
X2944Y1723D02*
X2951Y1723D01*
X0Y1722D02*
X7Y1722D01*
X2944Y1722D02*
X2951Y1722D01*
X0Y1721D02*
X7Y1721D01*
X2944Y1721D02*
X2951Y1721D01*
X0Y1720D02*
X7Y1720D01*
X2944Y1720D02*
X2951Y1720D01*
X0Y1719D02*
X7Y1719D01*
X2944Y1719D02*
X2951Y1719D01*
X0Y1718D02*
X7Y1718D01*
X2944Y1718D02*
X2951Y1718D01*
X0Y1717D02*
X7Y1717D01*
X2944Y1717D02*
X2951Y1717D01*
X0Y1716D02*
X7Y1716D01*
X2944Y1716D02*
X2951Y1716D01*
X0Y1715D02*
X7Y1715D01*
X2944Y1715D02*
X2951Y1715D01*
X0Y1714D02*
X7Y1714D01*
X2944Y1714D02*
X2951Y1714D01*
X0Y1713D02*
X7Y1713D01*
X2944Y1713D02*
X2951Y1713D01*
X0Y1712D02*
X7Y1712D01*
X2944Y1712D02*
X2951Y1712D01*
X0Y1711D02*
X7Y1711D01*
X2944Y1711D02*
X2951Y1711D01*
X0Y1710D02*
X7Y1710D01*
X2944Y1710D02*
X2951Y1710D01*
X0Y1709D02*
X7Y1709D01*
X2944Y1709D02*
X2951Y1709D01*
X0Y1708D02*
X7Y1708D01*
X2944Y1708D02*
X2951Y1708D01*
X0Y1707D02*
X7Y1707D01*
X2944Y1707D02*
X2951Y1707D01*
X0Y1706D02*
X7Y1706D01*
X2944Y1706D02*
X2951Y1706D01*
X0Y1705D02*
X7Y1705D01*
X2944Y1705D02*
X2951Y1705D01*
X0Y1704D02*
X7Y1704D01*
X2944Y1704D02*
X2951Y1704D01*
X0Y1703D02*
X7Y1703D01*
X2944Y1703D02*
X2951Y1703D01*
X0Y1702D02*
X7Y1702D01*
X2944Y1702D02*
X2951Y1702D01*
X0Y1701D02*
X7Y1701D01*
X2944Y1701D02*
X2951Y1701D01*
X0Y1700D02*
X7Y1700D01*
X2944Y1700D02*
X2951Y1700D01*
X0Y1699D02*
X7Y1699D01*
X2944Y1699D02*
X2951Y1699D01*
X0Y1698D02*
X7Y1698D01*
X2944Y1698D02*
X2951Y1698D01*
X0Y1697D02*
X7Y1697D01*
X2944Y1697D02*
X2951Y1697D01*
X0Y1696D02*
X7Y1696D01*
X2944Y1696D02*
X2951Y1696D01*
X0Y1695D02*
X7Y1695D01*
X2944Y1695D02*
X2951Y1695D01*
X0Y1694D02*
X7Y1694D01*
X2944Y1694D02*
X2951Y1694D01*
X0Y1693D02*
X7Y1693D01*
X2944Y1693D02*
X2951Y1693D01*
X0Y1692D02*
X7Y1692D01*
X2944Y1692D02*
X2951Y1692D01*
X0Y1691D02*
X7Y1691D01*
X2944Y1691D02*
X2951Y1691D01*
X0Y1690D02*
X7Y1690D01*
X2944Y1690D02*
X2951Y1690D01*
X0Y1689D02*
X7Y1689D01*
X2944Y1689D02*
X2951Y1689D01*
X0Y1688D02*
X7Y1688D01*
X2944Y1688D02*
X2951Y1688D01*
X0Y1687D02*
X7Y1687D01*
X2944Y1687D02*
X2951Y1687D01*
X0Y1686D02*
X7Y1686D01*
X2944Y1686D02*
X2951Y1686D01*
X0Y1685D02*
X7Y1685D01*
X2944Y1685D02*
X2951Y1685D01*
X0Y1684D02*
X7Y1684D01*
X2944Y1684D02*
X2951Y1684D01*
X0Y1683D02*
X7Y1683D01*
X2944Y1683D02*
X2951Y1683D01*
X0Y1682D02*
X7Y1682D01*
X2944Y1682D02*
X2951Y1682D01*
X0Y1681D02*
X7Y1681D01*
X2944Y1681D02*
X2951Y1681D01*
X0Y1680D02*
X7Y1680D01*
X2944Y1680D02*
X2951Y1680D01*
X0Y1679D02*
X7Y1679D01*
X2944Y1679D02*
X2951Y1679D01*
X0Y1678D02*
X7Y1678D01*
X2944Y1678D02*
X2951Y1678D01*
X0Y1677D02*
X7Y1677D01*
X2944Y1677D02*
X2951Y1677D01*
X0Y1676D02*
X7Y1676D01*
X2944Y1676D02*
X2951Y1676D01*
X0Y1675D02*
X7Y1675D01*
X2944Y1675D02*
X2951Y1675D01*
X0Y1674D02*
X7Y1674D01*
X2944Y1674D02*
X2951Y1674D01*
X0Y1673D02*
X7Y1673D01*
X2944Y1673D02*
X2951Y1673D01*
X0Y1672D02*
X7Y1672D01*
X2944Y1672D02*
X2951Y1672D01*
X0Y1671D02*
X7Y1671D01*
X2944Y1671D02*
X2951Y1671D01*
X0Y1670D02*
X7Y1670D01*
X2944Y1670D02*
X2951Y1670D01*
X0Y1669D02*
X7Y1669D01*
X2944Y1669D02*
X2951Y1669D01*
X0Y1668D02*
X7Y1668D01*
X2944Y1668D02*
X2951Y1668D01*
X0Y1667D02*
X7Y1667D01*
X2944Y1667D02*
X2951Y1667D01*
X0Y1666D02*
X7Y1666D01*
X2944Y1666D02*
X2951Y1666D01*
X0Y1665D02*
X7Y1665D01*
X2944Y1665D02*
X2951Y1665D01*
X0Y1664D02*
X7Y1664D01*
X2944Y1664D02*
X2951Y1664D01*
X0Y1663D02*
X7Y1663D01*
X2944Y1663D02*
X2951Y1663D01*
X0Y1662D02*
X7Y1662D01*
X2944Y1662D02*
X2951Y1662D01*
X0Y1661D02*
X7Y1661D01*
X2944Y1661D02*
X2951Y1661D01*
X0Y1660D02*
X7Y1660D01*
X2944Y1660D02*
X2951Y1660D01*
X0Y1659D02*
X7Y1659D01*
X2944Y1659D02*
X2951Y1659D01*
X0Y1658D02*
X7Y1658D01*
X2944Y1658D02*
X2951Y1658D01*
X0Y1657D02*
X7Y1657D01*
X2944Y1657D02*
X2951Y1657D01*
X0Y1656D02*
X7Y1656D01*
X2944Y1656D02*
X2951Y1656D01*
X0Y1655D02*
X7Y1655D01*
X2944Y1655D02*
X2951Y1655D01*
X0Y1654D02*
X7Y1654D01*
X2944Y1654D02*
X2951Y1654D01*
X0Y1653D02*
X7Y1653D01*
X2944Y1653D02*
X2951Y1653D01*
X0Y1652D02*
X7Y1652D01*
X2944Y1652D02*
X2951Y1652D01*
X0Y1651D02*
X7Y1651D01*
X2944Y1651D02*
X2951Y1651D01*
X0Y1650D02*
X7Y1650D01*
X2944Y1650D02*
X2951Y1650D01*
X0Y1649D02*
X7Y1649D01*
X2944Y1649D02*
X2951Y1649D01*
X0Y1648D02*
X7Y1648D01*
X2944Y1648D02*
X2951Y1648D01*
X0Y1647D02*
X7Y1647D01*
X2944Y1647D02*
X2951Y1647D01*
X0Y1646D02*
X7Y1646D01*
X2944Y1646D02*
X2951Y1646D01*
X0Y1645D02*
X7Y1645D01*
X2944Y1645D02*
X2951Y1645D01*
X0Y1644D02*
X7Y1644D01*
X2944Y1644D02*
X2951Y1644D01*
X0Y1643D02*
X7Y1643D01*
X2944Y1643D02*
X2951Y1643D01*
X0Y1642D02*
X7Y1642D01*
X2944Y1642D02*
X2951Y1642D01*
X0Y1641D02*
X7Y1641D01*
X2944Y1641D02*
X2951Y1641D01*
X0Y1640D02*
X7Y1640D01*
X2944Y1640D02*
X2951Y1640D01*
X0Y1639D02*
X7Y1639D01*
X2944Y1639D02*
X2951Y1639D01*
X0Y1638D02*
X7Y1638D01*
X2944Y1638D02*
X2951Y1638D01*
X0Y1637D02*
X7Y1637D01*
X2944Y1637D02*
X2951Y1637D01*
X0Y1636D02*
X7Y1636D01*
X2944Y1636D02*
X2951Y1636D01*
X0Y1635D02*
X7Y1635D01*
X2944Y1635D02*
X2951Y1635D01*
X0Y1634D02*
X7Y1634D01*
X2944Y1634D02*
X2951Y1634D01*
X0Y1633D02*
X7Y1633D01*
X2944Y1633D02*
X2951Y1633D01*
X0Y1632D02*
X7Y1632D01*
X2944Y1632D02*
X2951Y1632D01*
X0Y1631D02*
X7Y1631D01*
X2944Y1631D02*
X2951Y1631D01*
X0Y1630D02*
X7Y1630D01*
X2944Y1630D02*
X2951Y1630D01*
X0Y1629D02*
X7Y1629D01*
X2944Y1629D02*
X2951Y1629D01*
X0Y1628D02*
X7Y1628D01*
X2944Y1628D02*
X2951Y1628D01*
X0Y1627D02*
X7Y1627D01*
X2944Y1627D02*
X2951Y1627D01*
X0Y1626D02*
X7Y1626D01*
X2944Y1626D02*
X2951Y1626D01*
X0Y1625D02*
X7Y1625D01*
X2944Y1625D02*
X2951Y1625D01*
X0Y1624D02*
X7Y1624D01*
X2944Y1624D02*
X2951Y1624D01*
X0Y1623D02*
X7Y1623D01*
X2944Y1623D02*
X2951Y1623D01*
X0Y1622D02*
X7Y1622D01*
X2944Y1622D02*
X2951Y1622D01*
X0Y1621D02*
X7Y1621D01*
X2944Y1621D02*
X2951Y1621D01*
X0Y1620D02*
X7Y1620D01*
X2944Y1620D02*
X2951Y1620D01*
X0Y1619D02*
X7Y1619D01*
X2944Y1619D02*
X2951Y1619D01*
X0Y1618D02*
X7Y1618D01*
X2944Y1618D02*
X2951Y1618D01*
X0Y1617D02*
X7Y1617D01*
X2944Y1617D02*
X2951Y1617D01*
X0Y1616D02*
X7Y1616D01*
X2944Y1616D02*
X2951Y1616D01*
X0Y1615D02*
X7Y1615D01*
X2944Y1615D02*
X2951Y1615D01*
X0Y1614D02*
X7Y1614D01*
X2944Y1614D02*
X2951Y1614D01*
X0Y1613D02*
X7Y1613D01*
X2944Y1613D02*
X2951Y1613D01*
X0Y1612D02*
X7Y1612D01*
X2944Y1612D02*
X2951Y1612D01*
X0Y1611D02*
X7Y1611D01*
X2944Y1611D02*
X2951Y1611D01*
X0Y1610D02*
X7Y1610D01*
X2944Y1610D02*
X2951Y1610D01*
X0Y1609D02*
X7Y1609D01*
X2944Y1609D02*
X2951Y1609D01*
X0Y1608D02*
X7Y1608D01*
X2944Y1608D02*
X2951Y1608D01*
X0Y1607D02*
X7Y1607D01*
X2944Y1607D02*
X2951Y1607D01*
X0Y1606D02*
X7Y1606D01*
X2944Y1606D02*
X2951Y1606D01*
X0Y1605D02*
X7Y1605D01*
X2944Y1605D02*
X2951Y1605D01*
X0Y1604D02*
X7Y1604D01*
X2944Y1604D02*
X2951Y1604D01*
X0Y1603D02*
X7Y1603D01*
X2944Y1603D02*
X2951Y1603D01*
X0Y1602D02*
X7Y1602D01*
X2944Y1602D02*
X2951Y1602D01*
X0Y1601D02*
X7Y1601D01*
X2944Y1601D02*
X2951Y1601D01*
X0Y1600D02*
X7Y1600D01*
X2944Y1600D02*
X2951Y1600D01*
X0Y1599D02*
X7Y1599D01*
X2944Y1599D02*
X2951Y1599D01*
X0Y1598D02*
X7Y1598D01*
X2944Y1598D02*
X2951Y1598D01*
X0Y1597D02*
X7Y1597D01*
X2944Y1597D02*
X2951Y1597D01*
X0Y1596D02*
X7Y1596D01*
X2944Y1596D02*
X2951Y1596D01*
X0Y1595D02*
X7Y1595D01*
X2944Y1595D02*
X2951Y1595D01*
X0Y1594D02*
X7Y1594D01*
X2944Y1594D02*
X2951Y1594D01*
X0Y1593D02*
X7Y1593D01*
X2944Y1593D02*
X2951Y1593D01*
X0Y1592D02*
X7Y1592D01*
X2944Y1592D02*
X2951Y1592D01*
X0Y1591D02*
X7Y1591D01*
X2944Y1591D02*
X2951Y1591D01*
X0Y1590D02*
X7Y1590D01*
X2944Y1590D02*
X2951Y1590D01*
X0Y1589D02*
X7Y1589D01*
X2944Y1589D02*
X2951Y1589D01*
X0Y1588D02*
X7Y1588D01*
X2944Y1588D02*
X2951Y1588D01*
X0Y1587D02*
X7Y1587D01*
X2944Y1587D02*
X2951Y1587D01*
X0Y1586D02*
X7Y1586D01*
X2944Y1586D02*
X2951Y1586D01*
X0Y1585D02*
X7Y1585D01*
X2944Y1585D02*
X2951Y1585D01*
X0Y1584D02*
X7Y1584D01*
X2944Y1584D02*
X2951Y1584D01*
X0Y1583D02*
X7Y1583D01*
X2944Y1583D02*
X2951Y1583D01*
X0Y1582D02*
X7Y1582D01*
X2944Y1582D02*
X2951Y1582D01*
X0Y1581D02*
X7Y1581D01*
X2944Y1581D02*
X2951Y1581D01*
X0Y1580D02*
X7Y1580D01*
X2944Y1580D02*
X2951Y1580D01*
X0Y1579D02*
X7Y1579D01*
X2944Y1579D02*
X2951Y1579D01*
X0Y1578D02*
X7Y1578D01*
X2944Y1578D02*
X2951Y1578D01*
X0Y1577D02*
X7Y1577D01*
X2944Y1577D02*
X2951Y1577D01*
X0Y1576D02*
X7Y1576D01*
X2944Y1576D02*
X2951Y1576D01*
X0Y1575D02*
X7Y1575D01*
X2944Y1575D02*
X2951Y1575D01*
X0Y1574D02*
X7Y1574D01*
X2944Y1574D02*
X2951Y1574D01*
X0Y1573D02*
X7Y1573D01*
X2944Y1573D02*
X2951Y1573D01*
X0Y1572D02*
X7Y1572D01*
X2944Y1572D02*
X2951Y1572D01*
X0Y1571D02*
X7Y1571D01*
X2944Y1571D02*
X2951Y1571D01*
X0Y1570D02*
X7Y1570D01*
X2944Y1570D02*
X2951Y1570D01*
X0Y1569D02*
X7Y1569D01*
X2944Y1569D02*
X2951Y1569D01*
X0Y1568D02*
X7Y1568D01*
X2944Y1568D02*
X2951Y1568D01*
X0Y1567D02*
X7Y1567D01*
X2944Y1567D02*
X2951Y1567D01*
X0Y1566D02*
X7Y1566D01*
X2944Y1566D02*
X2951Y1566D01*
X0Y1565D02*
X7Y1565D01*
X2944Y1565D02*
X2951Y1565D01*
X0Y1564D02*
X7Y1564D01*
X2944Y1564D02*
X2951Y1564D01*
X0Y1563D02*
X7Y1563D01*
X2944Y1563D02*
X2951Y1563D01*
X0Y1562D02*
X7Y1562D01*
X2944Y1562D02*
X2951Y1562D01*
X0Y1561D02*
X7Y1561D01*
X2944Y1561D02*
X2951Y1561D01*
X0Y1560D02*
X7Y1560D01*
X2944Y1560D02*
X2951Y1560D01*
X0Y1559D02*
X7Y1559D01*
X2944Y1559D02*
X2951Y1559D01*
X0Y1558D02*
X7Y1558D01*
X2944Y1558D02*
X2951Y1558D01*
X0Y1557D02*
X7Y1557D01*
X2944Y1557D02*
X2951Y1557D01*
X0Y1556D02*
X7Y1556D01*
X2944Y1556D02*
X2951Y1556D01*
X0Y1555D02*
X7Y1555D01*
X2944Y1555D02*
X2951Y1555D01*
X0Y1554D02*
X7Y1554D01*
X2944Y1554D02*
X2951Y1554D01*
X0Y1553D02*
X7Y1553D01*
X2944Y1553D02*
X2951Y1553D01*
X0Y1552D02*
X7Y1552D01*
X2944Y1552D02*
X2951Y1552D01*
X0Y1551D02*
X7Y1551D01*
X2944Y1551D02*
X2951Y1551D01*
X0Y1550D02*
X7Y1550D01*
X2944Y1550D02*
X2951Y1550D01*
X0Y1549D02*
X7Y1549D01*
X2944Y1549D02*
X2951Y1549D01*
X0Y1548D02*
X7Y1548D01*
X2944Y1548D02*
X2951Y1548D01*
X0Y1547D02*
X7Y1547D01*
X2944Y1547D02*
X2951Y1547D01*
X0Y1546D02*
X7Y1546D01*
X2944Y1546D02*
X2951Y1546D01*
X0Y1545D02*
X7Y1545D01*
X2944Y1545D02*
X2951Y1545D01*
X0Y1544D02*
X7Y1544D01*
X2944Y1544D02*
X2951Y1544D01*
X0Y1543D02*
X7Y1543D01*
X2944Y1543D02*
X2951Y1543D01*
X0Y1542D02*
X7Y1542D01*
X2944Y1542D02*
X2951Y1542D01*
X0Y1541D02*
X7Y1541D01*
X2944Y1541D02*
X2951Y1541D01*
X0Y1540D02*
X7Y1540D01*
X2944Y1540D02*
X2951Y1540D01*
X0Y1539D02*
X7Y1539D01*
X2944Y1539D02*
X2951Y1539D01*
X0Y1538D02*
X7Y1538D01*
X2944Y1538D02*
X2951Y1538D01*
X0Y1537D02*
X7Y1537D01*
X2944Y1537D02*
X2951Y1537D01*
X0Y1536D02*
X7Y1536D01*
X2944Y1536D02*
X2951Y1536D01*
X0Y1535D02*
X7Y1535D01*
X2944Y1535D02*
X2951Y1535D01*
X0Y1534D02*
X7Y1534D01*
X2944Y1534D02*
X2951Y1534D01*
X0Y1533D02*
X7Y1533D01*
X2944Y1533D02*
X2951Y1533D01*
X0Y1532D02*
X7Y1532D01*
X2944Y1532D02*
X2951Y1532D01*
X0Y1531D02*
X7Y1531D01*
X2944Y1531D02*
X2951Y1531D01*
X0Y1530D02*
X7Y1530D01*
X2944Y1530D02*
X2951Y1530D01*
X0Y1529D02*
X7Y1529D01*
X2944Y1529D02*
X2951Y1529D01*
X0Y1528D02*
X7Y1528D01*
X2944Y1528D02*
X2951Y1528D01*
X0Y1527D02*
X7Y1527D01*
X2944Y1527D02*
X2951Y1527D01*
X0Y1526D02*
X7Y1526D01*
X2944Y1526D02*
X2951Y1526D01*
X0Y1525D02*
X7Y1525D01*
X2944Y1525D02*
X2951Y1525D01*
X0Y1524D02*
X7Y1524D01*
X2944Y1524D02*
X2951Y1524D01*
X0Y1523D02*
X7Y1523D01*
X2944Y1523D02*
X2951Y1523D01*
X0Y1522D02*
X7Y1522D01*
X2944Y1522D02*
X2951Y1522D01*
X0Y1521D02*
X7Y1521D01*
X2944Y1521D02*
X2951Y1521D01*
X0Y1520D02*
X7Y1520D01*
X2944Y1520D02*
X2951Y1520D01*
X0Y1519D02*
X7Y1519D01*
X2944Y1519D02*
X2951Y1519D01*
X0Y1518D02*
X7Y1518D01*
X2944Y1518D02*
X2951Y1518D01*
X0Y1517D02*
X7Y1517D01*
X2944Y1517D02*
X2951Y1517D01*
X0Y1516D02*
X7Y1516D01*
X2944Y1516D02*
X2951Y1516D01*
X0Y1515D02*
X7Y1515D01*
X2944Y1515D02*
X2951Y1515D01*
X0Y1514D02*
X7Y1514D01*
X2944Y1514D02*
X2951Y1514D01*
X0Y1513D02*
X7Y1513D01*
X2944Y1513D02*
X2951Y1513D01*
X0Y1512D02*
X7Y1512D01*
X2944Y1512D02*
X2951Y1512D01*
X0Y1511D02*
X7Y1511D01*
X2944Y1511D02*
X2951Y1511D01*
X0Y1510D02*
X7Y1510D01*
X2944Y1510D02*
X2951Y1510D01*
X0Y1509D02*
X7Y1509D01*
X2944Y1509D02*
X2951Y1509D01*
X0Y1508D02*
X7Y1508D01*
X2944Y1508D02*
X2951Y1508D01*
X0Y1507D02*
X7Y1507D01*
X2944Y1507D02*
X2951Y1507D01*
X0Y1506D02*
X7Y1506D01*
X2944Y1506D02*
X2951Y1506D01*
X0Y1505D02*
X7Y1505D01*
X2944Y1505D02*
X2951Y1505D01*
X0Y1504D02*
X7Y1504D01*
X2944Y1504D02*
X2951Y1504D01*
X0Y1503D02*
X7Y1503D01*
X2944Y1503D02*
X2951Y1503D01*
X0Y1502D02*
X7Y1502D01*
X2944Y1502D02*
X2951Y1502D01*
X0Y1501D02*
X7Y1501D01*
X2944Y1501D02*
X2951Y1501D01*
X0Y1500D02*
X7Y1500D01*
X2944Y1500D02*
X2951Y1500D01*
X0Y1499D02*
X7Y1499D01*
X2944Y1499D02*
X2951Y1499D01*
X0Y1498D02*
X7Y1498D01*
X2944Y1498D02*
X2951Y1498D01*
X0Y1497D02*
X7Y1497D01*
X2944Y1497D02*
X2951Y1497D01*
X0Y1496D02*
X7Y1496D01*
X2944Y1496D02*
X2951Y1496D01*
X0Y1495D02*
X7Y1495D01*
X2944Y1495D02*
X2951Y1495D01*
X0Y1494D02*
X7Y1494D01*
X2944Y1494D02*
X2951Y1494D01*
X0Y1493D02*
X7Y1493D01*
X2944Y1493D02*
X2951Y1493D01*
X0Y1492D02*
X7Y1492D01*
X2944Y1492D02*
X2951Y1492D01*
X0Y1491D02*
X7Y1491D01*
X2944Y1491D02*
X2951Y1491D01*
X0Y1490D02*
X7Y1490D01*
X2944Y1490D02*
X2951Y1490D01*
X0Y1489D02*
X7Y1489D01*
X2944Y1489D02*
X2951Y1489D01*
X0Y1488D02*
X7Y1488D01*
X2944Y1488D02*
X2951Y1488D01*
X0Y1487D02*
X7Y1487D01*
X2944Y1487D02*
X2951Y1487D01*
X0Y1486D02*
X7Y1486D01*
X2944Y1486D02*
X2951Y1486D01*
X0Y1485D02*
X7Y1485D01*
X2944Y1485D02*
X2951Y1485D01*
X0Y1484D02*
X7Y1484D01*
X2944Y1484D02*
X2951Y1484D01*
X0Y1483D02*
X7Y1483D01*
X2944Y1483D02*
X2951Y1483D01*
X0Y1482D02*
X7Y1482D01*
X2944Y1482D02*
X2951Y1482D01*
X0Y1481D02*
X7Y1481D01*
X2944Y1481D02*
X2951Y1481D01*
X0Y1480D02*
X7Y1480D01*
X2944Y1480D02*
X2951Y1480D01*
X0Y1479D02*
X7Y1479D01*
X2944Y1479D02*
X2951Y1479D01*
X0Y1478D02*
X7Y1478D01*
X2944Y1478D02*
X2951Y1478D01*
X0Y1477D02*
X7Y1477D01*
X2944Y1477D02*
X2951Y1477D01*
X0Y1476D02*
X7Y1476D01*
X2944Y1476D02*
X2951Y1476D01*
X0Y1475D02*
X7Y1475D01*
X2944Y1475D02*
X2951Y1475D01*
X0Y1474D02*
X7Y1474D01*
X2944Y1474D02*
X2951Y1474D01*
X0Y1473D02*
X7Y1473D01*
X2944Y1473D02*
X2951Y1473D01*
X0Y1472D02*
X7Y1472D01*
X2944Y1472D02*
X2951Y1472D01*
X0Y1471D02*
X7Y1471D01*
X2944Y1471D02*
X2951Y1471D01*
X0Y1470D02*
X7Y1470D01*
X2944Y1470D02*
X2951Y1470D01*
X0Y1469D02*
X7Y1469D01*
X2944Y1469D02*
X2951Y1469D01*
X0Y1468D02*
X7Y1468D01*
X2944Y1468D02*
X2951Y1468D01*
X0Y1467D02*
X7Y1467D01*
X2944Y1467D02*
X2951Y1467D01*
X0Y1466D02*
X7Y1466D01*
X2944Y1466D02*
X2951Y1466D01*
X0Y1465D02*
X7Y1465D01*
X2944Y1465D02*
X2951Y1465D01*
X0Y1464D02*
X7Y1464D01*
X2944Y1464D02*
X2951Y1464D01*
X0Y1463D02*
X7Y1463D01*
X2944Y1463D02*
X2951Y1463D01*
X0Y1462D02*
X7Y1462D01*
X2944Y1462D02*
X2951Y1462D01*
X0Y1461D02*
X7Y1461D01*
X2944Y1461D02*
X2951Y1461D01*
X0Y1460D02*
X7Y1460D01*
X2944Y1460D02*
X2951Y1460D01*
X0Y1459D02*
X7Y1459D01*
X2944Y1459D02*
X2951Y1459D01*
X0Y1458D02*
X7Y1458D01*
X2944Y1458D02*
X2951Y1458D01*
X0Y1457D02*
X7Y1457D01*
X2944Y1457D02*
X2951Y1457D01*
X0Y1456D02*
X7Y1456D01*
X2944Y1456D02*
X2951Y1456D01*
X0Y1455D02*
X7Y1455D01*
X2944Y1455D02*
X2951Y1455D01*
X0Y1454D02*
X7Y1454D01*
X2944Y1454D02*
X2951Y1454D01*
X0Y1453D02*
X7Y1453D01*
X2944Y1453D02*
X2951Y1453D01*
X0Y1452D02*
X7Y1452D01*
X2944Y1452D02*
X2951Y1452D01*
X0Y1451D02*
X7Y1451D01*
X2944Y1451D02*
X2951Y1451D01*
X0Y1450D02*
X7Y1450D01*
X2944Y1450D02*
X2951Y1450D01*
X0Y1449D02*
X7Y1449D01*
X2944Y1449D02*
X2951Y1449D01*
X0Y1448D02*
X7Y1448D01*
X2944Y1448D02*
X2951Y1448D01*
X0Y1447D02*
X7Y1447D01*
X2944Y1447D02*
X2951Y1447D01*
X0Y1446D02*
X7Y1446D01*
X2944Y1446D02*
X2951Y1446D01*
X0Y1445D02*
X7Y1445D01*
X2944Y1445D02*
X2951Y1445D01*
X0Y1444D02*
X7Y1444D01*
X2944Y1444D02*
X2951Y1444D01*
X0Y1443D02*
X7Y1443D01*
X2944Y1443D02*
X2951Y1443D01*
X0Y1442D02*
X7Y1442D01*
X2944Y1442D02*
X2951Y1442D01*
X0Y1441D02*
X7Y1441D01*
X2944Y1441D02*
X2951Y1441D01*
X0Y1440D02*
X7Y1440D01*
X2944Y1440D02*
X2951Y1440D01*
X0Y1439D02*
X7Y1439D01*
X2944Y1439D02*
X2951Y1439D01*
X0Y1438D02*
X7Y1438D01*
X2944Y1438D02*
X2951Y1438D01*
X0Y1437D02*
X7Y1437D01*
X2944Y1437D02*
X2951Y1437D01*
X0Y1436D02*
X7Y1436D01*
X2944Y1436D02*
X2951Y1436D01*
X0Y1435D02*
X7Y1435D01*
X2944Y1435D02*
X2951Y1435D01*
X0Y1434D02*
X7Y1434D01*
X2944Y1434D02*
X2951Y1434D01*
X0Y1433D02*
X7Y1433D01*
X2944Y1433D02*
X2951Y1433D01*
X0Y1432D02*
X7Y1432D01*
X2944Y1432D02*
X2951Y1432D01*
X0Y1431D02*
X7Y1431D01*
X2944Y1431D02*
X2951Y1431D01*
X0Y1430D02*
X7Y1430D01*
X2944Y1430D02*
X2951Y1430D01*
X0Y1429D02*
X7Y1429D01*
X2944Y1429D02*
X2951Y1429D01*
X0Y1428D02*
X7Y1428D01*
X2944Y1428D02*
X2951Y1428D01*
X0Y1427D02*
X7Y1427D01*
X2944Y1427D02*
X2951Y1427D01*
X0Y1426D02*
X7Y1426D01*
X2944Y1426D02*
X2951Y1426D01*
X0Y1425D02*
X7Y1425D01*
X2944Y1425D02*
X2951Y1425D01*
X0Y1424D02*
X7Y1424D01*
X2944Y1424D02*
X2951Y1424D01*
X0Y1423D02*
X7Y1423D01*
X2944Y1423D02*
X2951Y1423D01*
X0Y1422D02*
X7Y1422D01*
X2944Y1422D02*
X2951Y1422D01*
X0Y1421D02*
X7Y1421D01*
X2944Y1421D02*
X2951Y1421D01*
X0Y1420D02*
X7Y1420D01*
X2944Y1420D02*
X2951Y1420D01*
X0Y1419D02*
X7Y1419D01*
X2944Y1419D02*
X2951Y1419D01*
X0Y1418D02*
X7Y1418D01*
X2944Y1418D02*
X2951Y1418D01*
X0Y1417D02*
X7Y1417D01*
X2944Y1417D02*
X2951Y1417D01*
X0Y1416D02*
X7Y1416D01*
X2944Y1416D02*
X2951Y1416D01*
X0Y1415D02*
X7Y1415D01*
X2944Y1415D02*
X2951Y1415D01*
X0Y1414D02*
X7Y1414D01*
X2944Y1414D02*
X2951Y1414D01*
X0Y1413D02*
X7Y1413D01*
X2944Y1413D02*
X2951Y1413D01*
X0Y1412D02*
X7Y1412D01*
X2944Y1412D02*
X2951Y1412D01*
X0Y1411D02*
X7Y1411D01*
X2944Y1411D02*
X2951Y1411D01*
X0Y1410D02*
X7Y1410D01*
X2944Y1410D02*
X2951Y1410D01*
X0Y1409D02*
X7Y1409D01*
X2944Y1409D02*
X2951Y1409D01*
X0Y1408D02*
X7Y1408D01*
X2944Y1408D02*
X2951Y1408D01*
X0Y1407D02*
X7Y1407D01*
X2944Y1407D02*
X2951Y1407D01*
X0Y1406D02*
X7Y1406D01*
X2944Y1406D02*
X2951Y1406D01*
X0Y1405D02*
X7Y1405D01*
X2944Y1405D02*
X2951Y1405D01*
X0Y1404D02*
X7Y1404D01*
X2944Y1404D02*
X2951Y1404D01*
X0Y1403D02*
X7Y1403D01*
X2944Y1403D02*
X2951Y1403D01*
X0Y1402D02*
X7Y1402D01*
X2944Y1402D02*
X2951Y1402D01*
X0Y1401D02*
X7Y1401D01*
X2944Y1401D02*
X2951Y1401D01*
X0Y1400D02*
X7Y1400D01*
X2944Y1400D02*
X2951Y1400D01*
X0Y1399D02*
X7Y1399D01*
X2944Y1399D02*
X2951Y1399D01*
X0Y1398D02*
X7Y1398D01*
X2944Y1398D02*
X2951Y1398D01*
X0Y1397D02*
X7Y1397D01*
X2944Y1397D02*
X2951Y1397D01*
X0Y1396D02*
X7Y1396D01*
X2944Y1396D02*
X2951Y1396D01*
X0Y1395D02*
X7Y1395D01*
X2944Y1395D02*
X2951Y1395D01*
X0Y1394D02*
X7Y1394D01*
X2944Y1394D02*
X2951Y1394D01*
X0Y1393D02*
X7Y1393D01*
X2944Y1393D02*
X2951Y1393D01*
X0Y1392D02*
X7Y1392D01*
X2944Y1392D02*
X2951Y1392D01*
X0Y1391D02*
X7Y1391D01*
X2944Y1391D02*
X2951Y1391D01*
X0Y1390D02*
X7Y1390D01*
X2944Y1390D02*
X2951Y1390D01*
X0Y1389D02*
X7Y1389D01*
X2944Y1389D02*
X2951Y1389D01*
X0Y1388D02*
X7Y1388D01*
X2944Y1388D02*
X2951Y1388D01*
X0Y1387D02*
X7Y1387D01*
X2944Y1387D02*
X2951Y1387D01*
X0Y1386D02*
X7Y1386D01*
X2944Y1386D02*
X2951Y1386D01*
X0Y1385D02*
X7Y1385D01*
X2944Y1385D02*
X2951Y1385D01*
X0Y1384D02*
X7Y1384D01*
X2944Y1384D02*
X2951Y1384D01*
X0Y1383D02*
X7Y1383D01*
X2944Y1383D02*
X2951Y1383D01*
X0Y1382D02*
X7Y1382D01*
X2944Y1382D02*
X2951Y1382D01*
X0Y1381D02*
X7Y1381D01*
X2944Y1381D02*
X2951Y1381D01*
X0Y1380D02*
X7Y1380D01*
X2944Y1380D02*
X2951Y1380D01*
X0Y1379D02*
X7Y1379D01*
X2944Y1379D02*
X2951Y1379D01*
X0Y1378D02*
X7Y1378D01*
X2944Y1378D02*
X2951Y1378D01*
X0Y1377D02*
X7Y1377D01*
X2944Y1377D02*
X2951Y1377D01*
X0Y1376D02*
X7Y1376D01*
X2944Y1376D02*
X2951Y1376D01*
X0Y1375D02*
X7Y1375D01*
X2944Y1375D02*
X2951Y1375D01*
X0Y1374D02*
X7Y1374D01*
X2944Y1374D02*
X2951Y1374D01*
X0Y1373D02*
X7Y1373D01*
X2944Y1373D02*
X2951Y1373D01*
X0Y1372D02*
X7Y1372D01*
X2944Y1372D02*
X2951Y1372D01*
X0Y1371D02*
X7Y1371D01*
X2944Y1371D02*
X2951Y1371D01*
X0Y1370D02*
X7Y1370D01*
X2944Y1370D02*
X2951Y1370D01*
X0Y1369D02*
X7Y1369D01*
X2944Y1369D02*
X2951Y1369D01*
X0Y1368D02*
X7Y1368D01*
X2944Y1368D02*
X2951Y1368D01*
X0Y1367D02*
X7Y1367D01*
X2944Y1367D02*
X2951Y1367D01*
X0Y1366D02*
X7Y1366D01*
X2944Y1366D02*
X2951Y1366D01*
X0Y1365D02*
X7Y1365D01*
X2944Y1365D02*
X2951Y1365D01*
X0Y1364D02*
X7Y1364D01*
X2944Y1364D02*
X2951Y1364D01*
X0Y1363D02*
X7Y1363D01*
X2944Y1363D02*
X2951Y1363D01*
X0Y1362D02*
X7Y1362D01*
X2944Y1362D02*
X2951Y1362D01*
X0Y1361D02*
X7Y1361D01*
X2944Y1361D02*
X2951Y1361D01*
X0Y1360D02*
X7Y1360D01*
X2944Y1360D02*
X2951Y1360D01*
X0Y1359D02*
X7Y1359D01*
X2944Y1359D02*
X2951Y1359D01*
X0Y1358D02*
X7Y1358D01*
X2944Y1358D02*
X2951Y1358D01*
X0Y1357D02*
X7Y1357D01*
X2944Y1357D02*
X2951Y1357D01*
X0Y1356D02*
X7Y1356D01*
X2944Y1356D02*
X2951Y1356D01*
X0Y1355D02*
X7Y1355D01*
X2944Y1355D02*
X2951Y1355D01*
X0Y1354D02*
X7Y1354D01*
X2944Y1354D02*
X2951Y1354D01*
X0Y1353D02*
X7Y1353D01*
X2944Y1353D02*
X2951Y1353D01*
X0Y1352D02*
X7Y1352D01*
X2944Y1352D02*
X2951Y1352D01*
X0Y1351D02*
X7Y1351D01*
X2944Y1351D02*
X2951Y1351D01*
X0Y1350D02*
X7Y1350D01*
X2944Y1350D02*
X2951Y1350D01*
X0Y1349D02*
X7Y1349D01*
X2944Y1349D02*
X2951Y1349D01*
X0Y1348D02*
X7Y1348D01*
X2944Y1348D02*
X2951Y1348D01*
X0Y1347D02*
X7Y1347D01*
X2944Y1347D02*
X2951Y1347D01*
X0Y1346D02*
X7Y1346D01*
X2944Y1346D02*
X2951Y1346D01*
X0Y1345D02*
X7Y1345D01*
X2944Y1345D02*
X2951Y1345D01*
X0Y1344D02*
X7Y1344D01*
X2944Y1344D02*
X2951Y1344D01*
X0Y1343D02*
X7Y1343D01*
X2944Y1343D02*
X2951Y1343D01*
X0Y1342D02*
X7Y1342D01*
X2944Y1342D02*
X2951Y1342D01*
X0Y1341D02*
X7Y1341D01*
X2944Y1341D02*
X2951Y1341D01*
X0Y1340D02*
X7Y1340D01*
X2944Y1340D02*
X2951Y1340D01*
X0Y1339D02*
X7Y1339D01*
X2944Y1339D02*
X2951Y1339D01*
X0Y1338D02*
X7Y1338D01*
X2944Y1338D02*
X2951Y1338D01*
X0Y1337D02*
X7Y1337D01*
X2944Y1337D02*
X2951Y1337D01*
X0Y1336D02*
X7Y1336D01*
X2944Y1336D02*
X2951Y1336D01*
X0Y1335D02*
X7Y1335D01*
X2944Y1335D02*
X2951Y1335D01*
X0Y1334D02*
X7Y1334D01*
X2944Y1334D02*
X2951Y1334D01*
X0Y1333D02*
X7Y1333D01*
X2944Y1333D02*
X2951Y1333D01*
X0Y1332D02*
X7Y1332D01*
X2944Y1332D02*
X2951Y1332D01*
X0Y1331D02*
X7Y1331D01*
X2944Y1331D02*
X2951Y1331D01*
X0Y1330D02*
X7Y1330D01*
X2944Y1330D02*
X2951Y1330D01*
X0Y1329D02*
X7Y1329D01*
X2944Y1329D02*
X2951Y1329D01*
X0Y1328D02*
X7Y1328D01*
X2944Y1328D02*
X2951Y1328D01*
X0Y1327D02*
X7Y1327D01*
X2944Y1327D02*
X2951Y1327D01*
X0Y1326D02*
X7Y1326D01*
X2944Y1326D02*
X2951Y1326D01*
X0Y1325D02*
X7Y1325D01*
X2944Y1325D02*
X2951Y1325D01*
X0Y1324D02*
X7Y1324D01*
X2944Y1324D02*
X2951Y1324D01*
X0Y1323D02*
X7Y1323D01*
X2944Y1323D02*
X2951Y1323D01*
X0Y1322D02*
X7Y1322D01*
X2944Y1322D02*
X2951Y1322D01*
X0Y1321D02*
X7Y1321D01*
X2944Y1321D02*
X2951Y1321D01*
X0Y1320D02*
X7Y1320D01*
X2944Y1320D02*
X2951Y1320D01*
X0Y1319D02*
X7Y1319D01*
X2944Y1319D02*
X2951Y1319D01*
X0Y1318D02*
X7Y1318D01*
X2944Y1318D02*
X2951Y1318D01*
X0Y1317D02*
X7Y1317D01*
X2944Y1317D02*
X2951Y1317D01*
X0Y1316D02*
X7Y1316D01*
X2944Y1316D02*
X2951Y1316D01*
X0Y1315D02*
X7Y1315D01*
X2944Y1315D02*
X2951Y1315D01*
X0Y1314D02*
X7Y1314D01*
X2944Y1314D02*
X2951Y1314D01*
X0Y1313D02*
X7Y1313D01*
X2944Y1313D02*
X2951Y1313D01*
X0Y1312D02*
X7Y1312D01*
X2944Y1312D02*
X2951Y1312D01*
X0Y1311D02*
X7Y1311D01*
X2944Y1311D02*
X2951Y1311D01*
X0Y1310D02*
X7Y1310D01*
X2944Y1310D02*
X2951Y1310D01*
X0Y1309D02*
X7Y1309D01*
X2944Y1309D02*
X2951Y1309D01*
X0Y1308D02*
X7Y1308D01*
X2944Y1308D02*
X2951Y1308D01*
X0Y1307D02*
X7Y1307D01*
X2944Y1307D02*
X2951Y1307D01*
X0Y1306D02*
X7Y1306D01*
X2944Y1306D02*
X2951Y1306D01*
X0Y1305D02*
X7Y1305D01*
X2944Y1305D02*
X2951Y1305D01*
X0Y1304D02*
X7Y1304D01*
X2944Y1304D02*
X2951Y1304D01*
X0Y1303D02*
X7Y1303D01*
X2944Y1303D02*
X2951Y1303D01*
X0Y1302D02*
X7Y1302D01*
X2944Y1302D02*
X2951Y1302D01*
X0Y1301D02*
X7Y1301D01*
X2944Y1301D02*
X2951Y1301D01*
X0Y1300D02*
X7Y1300D01*
X2944Y1300D02*
X2951Y1300D01*
X0Y1299D02*
X7Y1299D01*
X2944Y1299D02*
X2951Y1299D01*
X0Y1298D02*
X7Y1298D01*
X2944Y1298D02*
X2951Y1298D01*
X0Y1297D02*
X7Y1297D01*
X2944Y1297D02*
X2951Y1297D01*
X0Y1296D02*
X7Y1296D01*
X2944Y1296D02*
X2951Y1296D01*
X0Y1295D02*
X7Y1295D01*
X2944Y1295D02*
X2951Y1295D01*
X0Y1294D02*
X7Y1294D01*
X2944Y1294D02*
X2951Y1294D01*
X0Y1293D02*
X7Y1293D01*
X2944Y1293D02*
X2951Y1293D01*
X0Y1292D02*
X7Y1292D01*
X2944Y1292D02*
X2951Y1292D01*
X0Y1291D02*
X7Y1291D01*
X2944Y1291D02*
X2951Y1291D01*
X0Y1290D02*
X7Y1290D01*
X2944Y1290D02*
X2951Y1290D01*
X0Y1289D02*
X7Y1289D01*
X2944Y1289D02*
X2951Y1289D01*
X0Y1288D02*
X7Y1288D01*
X2944Y1288D02*
X2951Y1288D01*
X0Y1287D02*
X7Y1287D01*
X2944Y1287D02*
X2951Y1287D01*
X0Y1286D02*
X7Y1286D01*
X2944Y1286D02*
X2951Y1286D01*
X0Y1285D02*
X7Y1285D01*
X2944Y1285D02*
X2951Y1285D01*
X0Y1284D02*
X7Y1284D01*
X2944Y1284D02*
X2951Y1284D01*
X0Y1283D02*
X7Y1283D01*
X2944Y1283D02*
X2951Y1283D01*
X0Y1282D02*
X7Y1282D01*
X2944Y1282D02*
X2951Y1282D01*
X0Y1281D02*
X7Y1281D01*
X2944Y1281D02*
X2951Y1281D01*
X0Y1280D02*
X7Y1280D01*
X2944Y1280D02*
X2951Y1280D01*
X0Y1279D02*
X7Y1279D01*
X2944Y1279D02*
X2951Y1279D01*
X0Y1278D02*
X7Y1278D01*
X2944Y1278D02*
X2951Y1278D01*
X0Y1277D02*
X7Y1277D01*
X2944Y1277D02*
X2951Y1277D01*
X0Y1276D02*
X7Y1276D01*
X2944Y1276D02*
X2951Y1276D01*
X0Y1275D02*
X7Y1275D01*
X2944Y1275D02*
X2951Y1275D01*
X0Y1274D02*
X7Y1274D01*
X2944Y1274D02*
X2951Y1274D01*
X0Y1273D02*
X7Y1273D01*
X2944Y1273D02*
X2951Y1273D01*
X0Y1272D02*
X7Y1272D01*
X2944Y1272D02*
X2951Y1272D01*
X0Y1271D02*
X7Y1271D01*
X2944Y1271D02*
X2951Y1271D01*
X0Y1270D02*
X7Y1270D01*
X2944Y1270D02*
X2951Y1270D01*
X0Y1269D02*
X7Y1269D01*
X2944Y1269D02*
X2951Y1269D01*
X0Y1268D02*
X7Y1268D01*
X2944Y1268D02*
X2951Y1268D01*
X0Y1267D02*
X7Y1267D01*
X2944Y1267D02*
X2951Y1267D01*
X0Y1266D02*
X7Y1266D01*
X2944Y1266D02*
X2951Y1266D01*
X0Y1265D02*
X7Y1265D01*
X2944Y1265D02*
X2951Y1265D01*
X0Y1264D02*
X7Y1264D01*
X2944Y1264D02*
X2951Y1264D01*
X0Y1263D02*
X7Y1263D01*
X2944Y1263D02*
X2951Y1263D01*
X0Y1262D02*
X7Y1262D01*
X2944Y1262D02*
X2951Y1262D01*
X0Y1261D02*
X7Y1261D01*
X2944Y1261D02*
X2951Y1261D01*
X0Y1260D02*
X7Y1260D01*
X2944Y1260D02*
X2951Y1260D01*
X0Y1259D02*
X7Y1259D01*
X2944Y1259D02*
X2951Y1259D01*
X0Y1258D02*
X7Y1258D01*
X2944Y1258D02*
X2951Y1258D01*
X0Y1257D02*
X7Y1257D01*
X2944Y1257D02*
X2951Y1257D01*
X0Y1256D02*
X7Y1256D01*
X2944Y1256D02*
X2951Y1256D01*
X0Y1255D02*
X7Y1255D01*
X2944Y1255D02*
X2951Y1255D01*
X0Y1254D02*
X7Y1254D01*
X2944Y1254D02*
X2951Y1254D01*
X0Y1253D02*
X7Y1253D01*
X2944Y1253D02*
X2951Y1253D01*
X0Y1252D02*
X7Y1252D01*
X2944Y1252D02*
X2951Y1252D01*
X0Y1251D02*
X7Y1251D01*
X2944Y1251D02*
X2951Y1251D01*
X0Y1250D02*
X7Y1250D01*
X2944Y1250D02*
X2951Y1250D01*
X0Y1249D02*
X7Y1249D01*
X2944Y1249D02*
X2951Y1249D01*
X0Y1248D02*
X7Y1248D01*
X2944Y1248D02*
X2951Y1248D01*
X0Y1247D02*
X7Y1247D01*
X2944Y1247D02*
X2951Y1247D01*
X0Y1246D02*
X7Y1246D01*
X2944Y1246D02*
X2951Y1246D01*
X0Y1245D02*
X7Y1245D01*
X2944Y1245D02*
X2951Y1245D01*
X0Y1244D02*
X7Y1244D01*
X2944Y1244D02*
X2951Y1244D01*
X0Y1243D02*
X7Y1243D01*
X2944Y1243D02*
X2951Y1243D01*
X0Y1242D02*
X7Y1242D01*
X2944Y1242D02*
X2951Y1242D01*
X0Y1241D02*
X7Y1241D01*
X2944Y1241D02*
X2951Y1241D01*
X0Y1240D02*
X7Y1240D01*
X2944Y1240D02*
X2951Y1240D01*
X0Y1239D02*
X7Y1239D01*
X2944Y1239D02*
X2951Y1239D01*
X0Y1238D02*
X7Y1238D01*
X2944Y1238D02*
X2951Y1238D01*
X0Y1237D02*
X7Y1237D01*
X2944Y1237D02*
X2951Y1237D01*
X0Y1236D02*
X7Y1236D01*
X2944Y1236D02*
X2951Y1236D01*
X0Y1235D02*
X7Y1235D01*
X2944Y1235D02*
X2951Y1235D01*
X0Y1234D02*
X7Y1234D01*
X2944Y1234D02*
X2951Y1234D01*
X0Y1233D02*
X7Y1233D01*
X2944Y1233D02*
X2951Y1233D01*
X0Y1232D02*
X7Y1232D01*
X2944Y1232D02*
X2951Y1232D01*
X0Y1231D02*
X7Y1231D01*
X2944Y1231D02*
X2951Y1231D01*
X0Y1230D02*
X7Y1230D01*
X2944Y1230D02*
X2951Y1230D01*
X0Y1229D02*
X7Y1229D01*
X2944Y1229D02*
X2951Y1229D01*
X0Y1228D02*
X7Y1228D01*
X2944Y1228D02*
X2951Y1228D01*
X0Y1227D02*
X7Y1227D01*
X2944Y1227D02*
X2951Y1227D01*
X0Y1226D02*
X7Y1226D01*
X2944Y1226D02*
X2951Y1226D01*
X0Y1225D02*
X7Y1225D01*
X2944Y1225D02*
X2951Y1225D01*
X0Y1224D02*
X7Y1224D01*
X2944Y1224D02*
X2951Y1224D01*
X0Y1223D02*
X7Y1223D01*
X2944Y1223D02*
X2951Y1223D01*
X0Y1222D02*
X7Y1222D01*
X2944Y1222D02*
X2951Y1222D01*
X0Y1221D02*
X7Y1221D01*
X2944Y1221D02*
X2951Y1221D01*
X0Y1220D02*
X7Y1220D01*
X2944Y1220D02*
X2951Y1220D01*
X0Y1219D02*
X7Y1219D01*
X2944Y1219D02*
X2951Y1219D01*
X0Y1218D02*
X7Y1218D01*
X2944Y1218D02*
X2951Y1218D01*
X0Y1217D02*
X7Y1217D01*
X2944Y1217D02*
X2951Y1217D01*
X0Y1216D02*
X7Y1216D01*
X2944Y1216D02*
X2951Y1216D01*
X0Y1215D02*
X7Y1215D01*
X2944Y1215D02*
X2951Y1215D01*
X0Y1214D02*
X7Y1214D01*
X2944Y1214D02*
X2951Y1214D01*
X0Y1213D02*
X7Y1213D01*
X2944Y1213D02*
X2951Y1213D01*
X0Y1212D02*
X7Y1212D01*
X2944Y1212D02*
X2951Y1212D01*
X0Y1211D02*
X7Y1211D01*
X2944Y1211D02*
X2951Y1211D01*
X0Y1210D02*
X7Y1210D01*
X2944Y1210D02*
X2951Y1210D01*
X0Y1209D02*
X7Y1209D01*
X2944Y1209D02*
X2951Y1209D01*
X0Y1208D02*
X7Y1208D01*
X2944Y1208D02*
X2951Y1208D01*
X0Y1207D02*
X7Y1207D01*
X2944Y1207D02*
X2951Y1207D01*
X0Y1206D02*
X7Y1206D01*
X2944Y1206D02*
X2951Y1206D01*
X0Y1205D02*
X7Y1205D01*
X2944Y1205D02*
X2951Y1205D01*
X0Y1204D02*
X7Y1204D01*
X2944Y1204D02*
X2951Y1204D01*
X0Y1203D02*
X7Y1203D01*
X2944Y1203D02*
X2951Y1203D01*
X0Y1202D02*
X7Y1202D01*
X2944Y1202D02*
X2951Y1202D01*
X0Y1201D02*
X7Y1201D01*
X2944Y1201D02*
X2951Y1201D01*
X0Y1200D02*
X7Y1200D01*
X2944Y1200D02*
X2951Y1200D01*
X0Y1199D02*
X7Y1199D01*
X2944Y1199D02*
X2951Y1199D01*
X0Y1198D02*
X7Y1198D01*
X2944Y1198D02*
X2951Y1198D01*
X0Y1197D02*
X7Y1197D01*
X2944Y1197D02*
X2951Y1197D01*
X0Y1196D02*
X7Y1196D01*
X2944Y1196D02*
X2951Y1196D01*
X0Y1195D02*
X7Y1195D01*
X2944Y1195D02*
X2951Y1195D01*
X0Y1194D02*
X7Y1194D01*
X2944Y1194D02*
X2951Y1194D01*
X0Y1193D02*
X7Y1193D01*
X2944Y1193D02*
X2951Y1193D01*
X0Y1192D02*
X7Y1192D01*
X2944Y1192D02*
X2951Y1192D01*
X0Y1191D02*
X7Y1191D01*
X2944Y1191D02*
X2951Y1191D01*
X0Y1190D02*
X7Y1190D01*
X2944Y1190D02*
X2951Y1190D01*
X0Y1189D02*
X7Y1189D01*
X2944Y1189D02*
X2951Y1189D01*
X0Y1188D02*
X7Y1188D01*
X2944Y1188D02*
X2951Y1188D01*
X0Y1187D02*
X7Y1187D01*
X2944Y1187D02*
X2951Y1187D01*
X0Y1186D02*
X7Y1186D01*
X2944Y1186D02*
X2951Y1186D01*
X0Y1185D02*
X7Y1185D01*
X2944Y1185D02*
X2951Y1185D01*
X0Y1184D02*
X7Y1184D01*
X2944Y1184D02*
X2951Y1184D01*
X0Y1183D02*
X7Y1183D01*
X2944Y1183D02*
X2951Y1183D01*
X0Y1182D02*
X7Y1182D01*
X2944Y1182D02*
X2951Y1182D01*
X0Y1181D02*
X7Y1181D01*
X2944Y1181D02*
X2951Y1181D01*
X0Y1180D02*
X7Y1180D01*
X2944Y1180D02*
X2951Y1180D01*
X0Y1179D02*
X7Y1179D01*
X2944Y1179D02*
X2951Y1179D01*
X0Y1178D02*
X7Y1178D01*
X2944Y1178D02*
X2951Y1178D01*
X0Y1177D02*
X7Y1177D01*
X2944Y1177D02*
X2951Y1177D01*
X0Y1176D02*
X7Y1176D01*
X2944Y1176D02*
X2951Y1176D01*
X0Y1175D02*
X7Y1175D01*
X2944Y1175D02*
X2951Y1175D01*
X0Y1174D02*
X7Y1174D01*
X2944Y1174D02*
X2951Y1174D01*
X0Y1173D02*
X7Y1173D01*
X2944Y1173D02*
X2951Y1173D01*
X0Y1172D02*
X7Y1172D01*
X2944Y1172D02*
X2951Y1172D01*
X0Y1171D02*
X7Y1171D01*
X2944Y1171D02*
X2951Y1171D01*
X0Y1170D02*
X7Y1170D01*
X2944Y1170D02*
X2951Y1170D01*
X0Y1169D02*
X7Y1169D01*
X2944Y1169D02*
X2951Y1169D01*
X0Y1168D02*
X7Y1168D01*
X2944Y1168D02*
X2951Y1168D01*
X0Y1167D02*
X7Y1167D01*
X2944Y1167D02*
X2951Y1167D01*
X0Y1166D02*
X7Y1166D01*
X2944Y1166D02*
X2951Y1166D01*
X0Y1165D02*
X7Y1165D01*
X2944Y1165D02*
X2951Y1165D01*
X0Y1164D02*
X7Y1164D01*
X2944Y1164D02*
X2951Y1164D01*
X0Y1163D02*
X7Y1163D01*
X2944Y1163D02*
X2951Y1163D01*
X0Y1162D02*
X7Y1162D01*
X2944Y1162D02*
X2951Y1162D01*
X0Y1161D02*
X7Y1161D01*
X2944Y1161D02*
X2951Y1161D01*
X0Y1160D02*
X7Y1160D01*
X2944Y1160D02*
X2951Y1160D01*
X0Y1159D02*
X7Y1159D01*
X2944Y1159D02*
X2951Y1159D01*
X0Y1158D02*
X7Y1158D01*
X2944Y1158D02*
X2951Y1158D01*
X0Y1157D02*
X7Y1157D01*
X2944Y1157D02*
X2951Y1157D01*
X0Y1156D02*
X7Y1156D01*
X2944Y1156D02*
X2951Y1156D01*
X0Y1155D02*
X7Y1155D01*
X2944Y1155D02*
X2951Y1155D01*
X0Y1154D02*
X7Y1154D01*
X2944Y1154D02*
X2951Y1154D01*
X0Y1153D02*
X7Y1153D01*
X2944Y1153D02*
X2951Y1153D01*
X0Y1152D02*
X7Y1152D01*
X2944Y1152D02*
X2951Y1152D01*
X0Y1151D02*
X7Y1151D01*
X2944Y1151D02*
X2951Y1151D01*
X0Y1150D02*
X7Y1150D01*
X2944Y1150D02*
X2951Y1150D01*
X0Y1149D02*
X7Y1149D01*
X2944Y1149D02*
X2951Y1149D01*
X0Y1148D02*
X7Y1148D01*
X2944Y1148D02*
X2951Y1148D01*
X0Y1147D02*
X7Y1147D01*
X2944Y1147D02*
X2951Y1147D01*
X0Y1146D02*
X7Y1146D01*
X2944Y1146D02*
X2951Y1146D01*
X0Y1145D02*
X7Y1145D01*
X2944Y1145D02*
X2951Y1145D01*
X0Y1144D02*
X7Y1144D01*
X2944Y1144D02*
X2951Y1144D01*
X0Y1143D02*
X7Y1143D01*
X2944Y1143D02*
X2951Y1143D01*
X0Y1142D02*
X7Y1142D01*
X2944Y1142D02*
X2951Y1142D01*
X0Y1141D02*
X7Y1141D01*
X2944Y1141D02*
X2951Y1141D01*
X0Y1140D02*
X7Y1140D01*
X2944Y1140D02*
X2951Y1140D01*
X0Y1139D02*
X7Y1139D01*
X2944Y1139D02*
X2951Y1139D01*
X0Y1138D02*
X7Y1138D01*
X2944Y1138D02*
X2951Y1138D01*
X0Y1137D02*
X7Y1137D01*
X2944Y1137D02*
X2951Y1137D01*
X0Y1136D02*
X7Y1136D01*
X2944Y1136D02*
X2951Y1136D01*
X0Y1135D02*
X7Y1135D01*
X2944Y1135D02*
X2951Y1135D01*
X0Y1134D02*
X7Y1134D01*
X2944Y1134D02*
X2951Y1134D01*
X0Y1133D02*
X7Y1133D01*
X2944Y1133D02*
X2951Y1133D01*
X0Y1132D02*
X7Y1132D01*
X2944Y1132D02*
X2951Y1132D01*
X0Y1131D02*
X7Y1131D01*
X2944Y1131D02*
X2951Y1131D01*
X0Y1130D02*
X7Y1130D01*
X2944Y1130D02*
X2951Y1130D01*
X0Y1129D02*
X7Y1129D01*
X2944Y1129D02*
X2951Y1129D01*
X0Y1128D02*
X7Y1128D01*
X2944Y1128D02*
X2951Y1128D01*
X0Y1127D02*
X7Y1127D01*
X2944Y1127D02*
X2951Y1127D01*
X0Y1126D02*
X7Y1126D01*
X2944Y1126D02*
X2951Y1126D01*
X0Y1125D02*
X7Y1125D01*
X2944Y1125D02*
X2951Y1125D01*
X0Y1124D02*
X7Y1124D01*
X2944Y1124D02*
X2951Y1124D01*
X0Y1123D02*
X7Y1123D01*
X2944Y1123D02*
X2951Y1123D01*
X0Y1122D02*
X7Y1122D01*
X2944Y1122D02*
X2951Y1122D01*
X0Y1121D02*
X7Y1121D01*
X2944Y1121D02*
X2951Y1121D01*
X0Y1120D02*
X7Y1120D01*
X2944Y1120D02*
X2951Y1120D01*
X0Y1119D02*
X7Y1119D01*
X2944Y1119D02*
X2951Y1119D01*
X0Y1118D02*
X7Y1118D01*
X2944Y1118D02*
X2951Y1118D01*
X0Y1117D02*
X7Y1117D01*
X2944Y1117D02*
X2951Y1117D01*
X0Y1116D02*
X7Y1116D01*
X2944Y1116D02*
X2951Y1116D01*
X0Y1115D02*
X7Y1115D01*
X2944Y1115D02*
X2951Y1115D01*
X0Y1114D02*
X7Y1114D01*
X2944Y1114D02*
X2951Y1114D01*
X0Y1113D02*
X7Y1113D01*
X2944Y1113D02*
X2951Y1113D01*
X0Y1112D02*
X7Y1112D01*
X2944Y1112D02*
X2951Y1112D01*
X0Y1111D02*
X7Y1111D01*
X2944Y1111D02*
X2951Y1111D01*
X0Y1110D02*
X7Y1110D01*
X2944Y1110D02*
X2951Y1110D01*
X0Y1109D02*
X7Y1109D01*
X2944Y1109D02*
X2951Y1109D01*
X0Y1108D02*
X7Y1108D01*
X2944Y1108D02*
X2951Y1108D01*
X0Y1107D02*
X7Y1107D01*
X2944Y1107D02*
X2951Y1107D01*
X0Y1106D02*
X7Y1106D01*
X2944Y1106D02*
X2951Y1106D01*
X0Y1105D02*
X7Y1105D01*
X2944Y1105D02*
X2951Y1105D01*
X0Y1104D02*
X7Y1104D01*
X2944Y1104D02*
X2951Y1104D01*
X0Y1103D02*
X7Y1103D01*
X2944Y1103D02*
X2951Y1103D01*
X0Y1102D02*
X7Y1102D01*
X2944Y1102D02*
X2951Y1102D01*
X0Y1101D02*
X7Y1101D01*
X2944Y1101D02*
X2951Y1101D01*
X0Y1100D02*
X7Y1100D01*
X2944Y1100D02*
X2951Y1100D01*
X0Y1099D02*
X7Y1099D01*
X2944Y1099D02*
X2951Y1099D01*
X0Y1098D02*
X7Y1098D01*
X2944Y1098D02*
X2951Y1098D01*
X0Y1097D02*
X7Y1097D01*
X2944Y1097D02*
X2951Y1097D01*
X0Y1096D02*
X7Y1096D01*
X2944Y1096D02*
X2951Y1096D01*
X0Y1095D02*
X7Y1095D01*
X2944Y1095D02*
X2951Y1095D01*
X0Y1094D02*
X7Y1094D01*
X2944Y1094D02*
X2951Y1094D01*
X0Y1093D02*
X7Y1093D01*
X2944Y1093D02*
X2951Y1093D01*
X0Y1092D02*
X7Y1092D01*
X2944Y1092D02*
X2951Y1092D01*
X0Y1091D02*
X7Y1091D01*
X2944Y1091D02*
X2951Y1091D01*
X0Y1090D02*
X7Y1090D01*
X2944Y1090D02*
X2951Y1090D01*
X0Y1089D02*
X7Y1089D01*
X2944Y1089D02*
X2951Y1089D01*
X0Y1088D02*
X7Y1088D01*
X2944Y1088D02*
X2951Y1088D01*
X0Y1087D02*
X7Y1087D01*
X2944Y1087D02*
X2951Y1087D01*
X0Y1086D02*
X7Y1086D01*
X2944Y1086D02*
X2951Y1086D01*
X0Y1085D02*
X7Y1085D01*
X2944Y1085D02*
X2951Y1085D01*
X0Y1084D02*
X7Y1084D01*
X2944Y1084D02*
X2951Y1084D01*
X0Y1083D02*
X7Y1083D01*
X2944Y1083D02*
X2951Y1083D01*
X0Y1082D02*
X7Y1082D01*
X2944Y1082D02*
X2951Y1082D01*
X0Y1081D02*
X7Y1081D01*
X2944Y1081D02*
X2951Y1081D01*
X0Y1080D02*
X7Y1080D01*
X2944Y1080D02*
X2951Y1080D01*
X0Y1079D02*
X7Y1079D01*
X2944Y1079D02*
X2951Y1079D01*
X0Y1078D02*
X7Y1078D01*
X2944Y1078D02*
X2951Y1078D01*
X0Y1077D02*
X7Y1077D01*
X2944Y1077D02*
X2951Y1077D01*
X0Y1076D02*
X7Y1076D01*
X2944Y1076D02*
X2951Y1076D01*
X0Y1075D02*
X7Y1075D01*
X2944Y1075D02*
X2951Y1075D01*
X0Y1074D02*
X7Y1074D01*
X2944Y1074D02*
X2951Y1074D01*
X0Y1073D02*
X7Y1073D01*
X2944Y1073D02*
X2951Y1073D01*
X0Y1072D02*
X7Y1072D01*
X2944Y1072D02*
X2951Y1072D01*
X0Y1071D02*
X7Y1071D01*
X2944Y1071D02*
X2951Y1071D01*
X0Y1070D02*
X7Y1070D01*
X2944Y1070D02*
X2951Y1070D01*
X0Y1069D02*
X7Y1069D01*
X2944Y1069D02*
X2951Y1069D01*
X0Y1068D02*
X7Y1068D01*
X2944Y1068D02*
X2951Y1068D01*
X0Y1067D02*
X7Y1067D01*
X2944Y1067D02*
X2951Y1067D01*
X0Y1066D02*
X7Y1066D01*
X2944Y1066D02*
X2951Y1066D01*
X0Y1065D02*
X7Y1065D01*
X2944Y1065D02*
X2951Y1065D01*
X0Y1064D02*
X7Y1064D01*
X2944Y1064D02*
X2951Y1064D01*
X0Y1063D02*
X7Y1063D01*
X2944Y1063D02*
X2951Y1063D01*
X0Y1062D02*
X7Y1062D01*
X2944Y1062D02*
X2951Y1062D01*
X0Y1061D02*
X7Y1061D01*
X2944Y1061D02*
X2951Y1061D01*
X0Y1060D02*
X7Y1060D01*
X2944Y1060D02*
X2951Y1060D01*
X0Y1059D02*
X7Y1059D01*
X2944Y1059D02*
X2951Y1059D01*
X0Y1058D02*
X7Y1058D01*
X2944Y1058D02*
X2951Y1058D01*
X0Y1057D02*
X7Y1057D01*
X2944Y1057D02*
X2951Y1057D01*
X0Y1056D02*
X7Y1056D01*
X2944Y1056D02*
X2951Y1056D01*
X0Y1055D02*
X7Y1055D01*
X2944Y1055D02*
X2951Y1055D01*
X0Y1054D02*
X7Y1054D01*
X2944Y1054D02*
X2951Y1054D01*
X0Y1053D02*
X7Y1053D01*
X2944Y1053D02*
X2951Y1053D01*
X0Y1052D02*
X7Y1052D01*
X2944Y1052D02*
X2951Y1052D01*
X0Y1051D02*
X7Y1051D01*
X2944Y1051D02*
X2951Y1051D01*
X0Y1050D02*
X7Y1050D01*
X2944Y1050D02*
X2951Y1050D01*
X0Y1049D02*
X7Y1049D01*
X2944Y1049D02*
X2951Y1049D01*
X0Y1048D02*
X7Y1048D01*
X2944Y1048D02*
X2951Y1048D01*
X0Y1047D02*
X7Y1047D01*
X2944Y1047D02*
X2951Y1047D01*
X0Y1046D02*
X7Y1046D01*
X2944Y1046D02*
X2951Y1046D01*
X0Y1045D02*
X7Y1045D01*
X2944Y1045D02*
X2951Y1045D01*
X0Y1044D02*
X7Y1044D01*
X2944Y1044D02*
X2951Y1044D01*
X0Y1043D02*
X7Y1043D01*
X2944Y1043D02*
X2951Y1043D01*
X0Y1042D02*
X7Y1042D01*
X2944Y1042D02*
X2951Y1042D01*
X0Y1041D02*
X7Y1041D01*
X2944Y1041D02*
X2951Y1041D01*
X0Y1040D02*
X7Y1040D01*
X2944Y1040D02*
X2951Y1040D01*
X0Y1039D02*
X7Y1039D01*
X2944Y1039D02*
X2951Y1039D01*
X0Y1038D02*
X7Y1038D01*
X2944Y1038D02*
X2951Y1038D01*
X0Y1037D02*
X7Y1037D01*
X2944Y1037D02*
X2951Y1037D01*
X0Y1036D02*
X7Y1036D01*
X2944Y1036D02*
X2951Y1036D01*
X0Y1035D02*
X7Y1035D01*
X2944Y1035D02*
X2951Y1035D01*
X0Y1034D02*
X7Y1034D01*
X2944Y1034D02*
X2951Y1034D01*
X0Y1033D02*
X7Y1033D01*
X2944Y1033D02*
X2951Y1033D01*
X0Y1032D02*
X7Y1032D01*
X2944Y1032D02*
X2951Y1032D01*
X0Y1031D02*
X7Y1031D01*
X2944Y1031D02*
X2951Y1031D01*
X0Y1030D02*
X7Y1030D01*
X2944Y1030D02*
X2951Y1030D01*
X0Y1029D02*
X7Y1029D01*
X2944Y1029D02*
X2951Y1029D01*
X0Y1028D02*
X7Y1028D01*
X2944Y1028D02*
X2951Y1028D01*
X0Y1027D02*
X7Y1027D01*
X2944Y1027D02*
X2951Y1027D01*
X0Y1026D02*
X7Y1026D01*
X2944Y1026D02*
X2951Y1026D01*
X0Y1025D02*
X7Y1025D01*
X2944Y1025D02*
X2951Y1025D01*
X0Y1024D02*
X7Y1024D01*
X2944Y1024D02*
X2951Y1024D01*
X0Y1023D02*
X7Y1023D01*
X2944Y1023D02*
X2951Y1023D01*
X0Y1022D02*
X7Y1022D01*
X2944Y1022D02*
X2951Y1022D01*
X0Y1021D02*
X7Y1021D01*
X2944Y1021D02*
X2951Y1021D01*
X0Y1020D02*
X7Y1020D01*
X2944Y1020D02*
X2951Y1020D01*
X0Y1019D02*
X7Y1019D01*
X2944Y1019D02*
X2951Y1019D01*
X0Y1018D02*
X7Y1018D01*
X2944Y1018D02*
X2951Y1018D01*
X0Y1017D02*
X7Y1017D01*
X2944Y1017D02*
X2951Y1017D01*
X0Y1016D02*
X7Y1016D01*
X2944Y1016D02*
X2951Y1016D01*
X0Y1015D02*
X7Y1015D01*
X2944Y1015D02*
X2951Y1015D01*
X0Y1014D02*
X7Y1014D01*
X2944Y1014D02*
X2951Y1014D01*
X0Y1013D02*
X7Y1013D01*
X2944Y1013D02*
X2951Y1013D01*
X0Y1012D02*
X7Y1012D01*
X2944Y1012D02*
X2951Y1012D01*
X0Y1011D02*
X7Y1011D01*
X2944Y1011D02*
X2951Y1011D01*
X0Y1010D02*
X7Y1010D01*
X2944Y1010D02*
X2951Y1010D01*
X0Y1009D02*
X7Y1009D01*
X2944Y1009D02*
X2951Y1009D01*
X0Y1008D02*
X7Y1008D01*
X2944Y1008D02*
X2951Y1008D01*
X0Y1007D02*
X7Y1007D01*
X2944Y1007D02*
X2951Y1007D01*
X0Y1006D02*
X7Y1006D01*
X2944Y1006D02*
X2951Y1006D01*
X0Y1005D02*
X7Y1005D01*
X2944Y1005D02*
X2951Y1005D01*
X0Y1004D02*
X7Y1004D01*
X2944Y1004D02*
X2951Y1004D01*
X0Y1003D02*
X7Y1003D01*
X2944Y1003D02*
X2951Y1003D01*
X0Y1002D02*
X7Y1002D01*
X2944Y1002D02*
X2951Y1002D01*
X0Y1001D02*
X7Y1001D01*
X2944Y1001D02*
X2951Y1001D01*
X0Y1000D02*
X7Y1000D01*
X2944Y1000D02*
X2951Y1000D01*
X0Y999D02*
X7Y999D01*
X2944Y999D02*
X2951Y999D01*
X0Y998D02*
X7Y998D01*
X2944Y998D02*
X2951Y998D01*
X0Y997D02*
X7Y997D01*
X2944Y997D02*
X2951Y997D01*
X0Y996D02*
X7Y996D01*
X2944Y996D02*
X2951Y996D01*
X0Y995D02*
X7Y995D01*
X2944Y995D02*
X2951Y995D01*
X0Y994D02*
X7Y994D01*
X2944Y994D02*
X2951Y994D01*
X0Y993D02*
X7Y993D01*
X2944Y993D02*
X2951Y993D01*
X0Y992D02*
X7Y992D01*
X2944Y992D02*
X2951Y992D01*
X0Y991D02*
X7Y991D01*
X2944Y991D02*
X2951Y991D01*
X0Y990D02*
X7Y990D01*
X2944Y990D02*
X2951Y990D01*
X0Y989D02*
X7Y989D01*
X2944Y989D02*
X2951Y989D01*
X0Y988D02*
X7Y988D01*
X2944Y988D02*
X2951Y988D01*
X0Y987D02*
X7Y987D01*
X2944Y987D02*
X2951Y987D01*
X0Y986D02*
X7Y986D01*
X2944Y986D02*
X2951Y986D01*
X0Y985D02*
X7Y985D01*
X2944Y985D02*
X2951Y985D01*
X0Y984D02*
X7Y984D01*
X2944Y984D02*
X2951Y984D01*
X0Y983D02*
X7Y983D01*
X2944Y983D02*
X2951Y983D01*
X0Y982D02*
X7Y982D01*
X2944Y982D02*
X2951Y982D01*
X0Y981D02*
X7Y981D01*
X2944Y981D02*
X2951Y981D01*
X0Y980D02*
X7Y980D01*
X2944Y980D02*
X2951Y980D01*
X0Y979D02*
X7Y979D01*
X2944Y979D02*
X2951Y979D01*
X0Y978D02*
X7Y978D01*
X2944Y978D02*
X2951Y978D01*
X0Y977D02*
X7Y977D01*
X2944Y977D02*
X2951Y977D01*
X0Y976D02*
X7Y976D01*
X2944Y976D02*
X2951Y976D01*
X0Y975D02*
X7Y975D01*
X2944Y975D02*
X2951Y975D01*
X0Y974D02*
X7Y974D01*
X2944Y974D02*
X2951Y974D01*
X0Y973D02*
X7Y973D01*
X2944Y973D02*
X2951Y973D01*
X0Y972D02*
X7Y972D01*
X2944Y972D02*
X2951Y972D01*
X0Y971D02*
X7Y971D01*
X2944Y971D02*
X2951Y971D01*
X0Y970D02*
X7Y970D01*
X2944Y970D02*
X2951Y970D01*
X0Y969D02*
X7Y969D01*
X2944Y969D02*
X2951Y969D01*
X0Y968D02*
X7Y968D01*
X2944Y968D02*
X2951Y968D01*
X0Y967D02*
X7Y967D01*
X2944Y967D02*
X2951Y967D01*
X0Y966D02*
X7Y966D01*
X2944Y966D02*
X2951Y966D01*
X0Y965D02*
X7Y965D01*
X2944Y965D02*
X2951Y965D01*
X0Y964D02*
X7Y964D01*
X2944Y964D02*
X2951Y964D01*
X0Y963D02*
X7Y963D01*
X2944Y963D02*
X2951Y963D01*
X0Y962D02*
X7Y962D01*
X2944Y962D02*
X2951Y962D01*
X0Y961D02*
X7Y961D01*
X2944Y961D02*
X2951Y961D01*
X0Y960D02*
X7Y960D01*
X2944Y960D02*
X2951Y960D01*
X0Y959D02*
X7Y959D01*
X2944Y959D02*
X2951Y959D01*
X0Y958D02*
X7Y958D01*
X2944Y958D02*
X2951Y958D01*
X0Y957D02*
X7Y957D01*
X2944Y957D02*
X2951Y957D01*
X0Y956D02*
X7Y956D01*
X2944Y956D02*
X2951Y956D01*
X0Y955D02*
X7Y955D01*
X2944Y955D02*
X2951Y955D01*
X0Y954D02*
X7Y954D01*
X2944Y954D02*
X2951Y954D01*
X0Y953D02*
X7Y953D01*
X2944Y953D02*
X2951Y953D01*
X0Y952D02*
X7Y952D01*
X2944Y952D02*
X2951Y952D01*
X0Y951D02*
X7Y951D01*
X2944Y951D02*
X2951Y951D01*
X0Y950D02*
X7Y950D01*
X2944Y950D02*
X2951Y950D01*
X0Y949D02*
X7Y949D01*
X2944Y949D02*
X2951Y949D01*
X0Y948D02*
X7Y948D01*
X2944Y948D02*
X2951Y948D01*
X0Y947D02*
X7Y947D01*
X2944Y947D02*
X2951Y947D01*
X0Y946D02*
X7Y946D01*
X2944Y946D02*
X2951Y946D01*
X0Y945D02*
X7Y945D01*
X2944Y945D02*
X2951Y945D01*
X0Y944D02*
X7Y944D01*
X2944Y944D02*
X2951Y944D01*
X0Y943D02*
X7Y943D01*
X2944Y943D02*
X2951Y943D01*
X0Y942D02*
X7Y942D01*
X2944Y942D02*
X2951Y942D01*
X0Y941D02*
X7Y941D01*
X2944Y941D02*
X2951Y941D01*
X0Y940D02*
X7Y940D01*
X2944Y940D02*
X2951Y940D01*
X0Y939D02*
X7Y939D01*
X2944Y939D02*
X2951Y939D01*
X0Y938D02*
X7Y938D01*
X2944Y938D02*
X2951Y938D01*
X0Y937D02*
X7Y937D01*
X2944Y937D02*
X2951Y937D01*
X0Y936D02*
X7Y936D01*
X2944Y936D02*
X2951Y936D01*
X0Y935D02*
X7Y935D01*
X2944Y935D02*
X2951Y935D01*
X0Y934D02*
X7Y934D01*
X2944Y934D02*
X2951Y934D01*
X0Y933D02*
X7Y933D01*
X2944Y933D02*
X2951Y933D01*
X0Y932D02*
X7Y932D01*
X2944Y932D02*
X2951Y932D01*
X0Y931D02*
X7Y931D01*
X2944Y931D02*
X2951Y931D01*
X0Y930D02*
X7Y930D01*
X2944Y930D02*
X2951Y930D01*
X0Y929D02*
X7Y929D01*
X2944Y929D02*
X2951Y929D01*
X0Y928D02*
X7Y928D01*
X2944Y928D02*
X2951Y928D01*
X0Y927D02*
X7Y927D01*
X2944Y927D02*
X2951Y927D01*
X0Y926D02*
X7Y926D01*
X2944Y926D02*
X2951Y926D01*
X0Y925D02*
X7Y925D01*
X2944Y925D02*
X2951Y925D01*
X0Y924D02*
X7Y924D01*
X2944Y924D02*
X2951Y924D01*
X0Y923D02*
X7Y923D01*
X2944Y923D02*
X2951Y923D01*
X0Y922D02*
X7Y922D01*
X2944Y922D02*
X2951Y922D01*
X0Y921D02*
X7Y921D01*
X2944Y921D02*
X2951Y921D01*
X0Y920D02*
X7Y920D01*
X2944Y920D02*
X2951Y920D01*
X0Y919D02*
X7Y919D01*
X2944Y919D02*
X2951Y919D01*
X0Y918D02*
X7Y918D01*
X2944Y918D02*
X2951Y918D01*
X0Y917D02*
X7Y917D01*
X2944Y917D02*
X2951Y917D01*
X0Y916D02*
X7Y916D01*
X2944Y916D02*
X2951Y916D01*
X0Y915D02*
X7Y915D01*
X2944Y915D02*
X2951Y915D01*
X0Y914D02*
X7Y914D01*
X2944Y914D02*
X2951Y914D01*
X0Y913D02*
X7Y913D01*
X2944Y913D02*
X2951Y913D01*
X0Y912D02*
X7Y912D01*
X2944Y912D02*
X2951Y912D01*
X0Y911D02*
X7Y911D01*
X2944Y911D02*
X2951Y911D01*
X0Y910D02*
X7Y910D01*
X2944Y910D02*
X2951Y910D01*
X0Y909D02*
X7Y909D01*
X2944Y909D02*
X2951Y909D01*
X0Y908D02*
X7Y908D01*
X2944Y908D02*
X2951Y908D01*
X0Y907D02*
X7Y907D01*
X2944Y907D02*
X2951Y907D01*
X0Y906D02*
X7Y906D01*
X2944Y906D02*
X2951Y906D01*
X0Y905D02*
X7Y905D01*
X2944Y905D02*
X2951Y905D01*
X0Y904D02*
X7Y904D01*
X2944Y904D02*
X2951Y904D01*
X0Y903D02*
X7Y903D01*
X2944Y903D02*
X2951Y903D01*
X0Y902D02*
X7Y902D01*
X2944Y902D02*
X2951Y902D01*
X0Y901D02*
X7Y901D01*
X2944Y901D02*
X2951Y901D01*
X0Y900D02*
X7Y900D01*
X2944Y900D02*
X2951Y900D01*
X0Y899D02*
X7Y899D01*
X2944Y899D02*
X2951Y899D01*
X0Y898D02*
X7Y898D01*
X2944Y898D02*
X2951Y898D01*
X0Y897D02*
X7Y897D01*
X2944Y897D02*
X2951Y897D01*
X0Y896D02*
X7Y896D01*
X2944Y896D02*
X2951Y896D01*
X0Y895D02*
X7Y895D01*
X2944Y895D02*
X2951Y895D01*
X0Y894D02*
X7Y894D01*
X2944Y894D02*
X2951Y894D01*
X0Y893D02*
X7Y893D01*
X2944Y893D02*
X2951Y893D01*
X0Y892D02*
X7Y892D01*
X2944Y892D02*
X2951Y892D01*
X0Y891D02*
X7Y891D01*
X2944Y891D02*
X2951Y891D01*
X0Y890D02*
X7Y890D01*
X2944Y890D02*
X2951Y890D01*
X0Y889D02*
X7Y889D01*
X2944Y889D02*
X2951Y889D01*
X0Y888D02*
X7Y888D01*
X2944Y888D02*
X2951Y888D01*
X0Y887D02*
X7Y887D01*
X2944Y887D02*
X2951Y887D01*
X0Y886D02*
X7Y886D01*
X2944Y886D02*
X2951Y886D01*
X0Y885D02*
X7Y885D01*
X2944Y885D02*
X2951Y885D01*
X0Y884D02*
X7Y884D01*
X2944Y884D02*
X2951Y884D01*
X0Y883D02*
X7Y883D01*
X2944Y883D02*
X2951Y883D01*
X0Y882D02*
X7Y882D01*
X2944Y882D02*
X2951Y882D01*
X0Y881D02*
X7Y881D01*
X2944Y881D02*
X2951Y881D01*
X0Y880D02*
X7Y880D01*
X2944Y880D02*
X2951Y880D01*
X0Y879D02*
X7Y879D01*
X2944Y879D02*
X2951Y879D01*
X0Y878D02*
X7Y878D01*
X2944Y878D02*
X2951Y878D01*
X0Y877D02*
X7Y877D01*
X2944Y877D02*
X2951Y877D01*
X0Y876D02*
X7Y876D01*
X2944Y876D02*
X2951Y876D01*
X0Y875D02*
X7Y875D01*
X2944Y875D02*
X2951Y875D01*
X0Y874D02*
X7Y874D01*
X2944Y874D02*
X2951Y874D01*
X0Y873D02*
X7Y873D01*
X2944Y873D02*
X2951Y873D01*
X0Y872D02*
X7Y872D01*
X2944Y872D02*
X2951Y872D01*
X0Y871D02*
X7Y871D01*
X2944Y871D02*
X2951Y871D01*
X0Y870D02*
X7Y870D01*
X2944Y870D02*
X2951Y870D01*
X0Y869D02*
X7Y869D01*
X2944Y869D02*
X2951Y869D01*
X0Y868D02*
X7Y868D01*
X2944Y868D02*
X2951Y868D01*
X0Y867D02*
X7Y867D01*
X2944Y867D02*
X2951Y867D01*
X0Y866D02*
X7Y866D01*
X2944Y866D02*
X2951Y866D01*
X0Y865D02*
X7Y865D01*
X2944Y865D02*
X2951Y865D01*
X0Y864D02*
X7Y864D01*
X2944Y864D02*
X2951Y864D01*
X0Y863D02*
X7Y863D01*
X2944Y863D02*
X2951Y863D01*
X0Y862D02*
X7Y862D01*
X2944Y862D02*
X2951Y862D01*
X0Y861D02*
X7Y861D01*
X2944Y861D02*
X2951Y861D01*
X0Y860D02*
X7Y860D01*
X2944Y860D02*
X2951Y860D01*
X0Y859D02*
X7Y859D01*
X2944Y859D02*
X2951Y859D01*
X0Y858D02*
X7Y858D01*
X2944Y858D02*
X2951Y858D01*
X0Y857D02*
X7Y857D01*
X2944Y857D02*
X2951Y857D01*
X0Y856D02*
X7Y856D01*
X2944Y856D02*
X2951Y856D01*
X0Y855D02*
X7Y855D01*
X2944Y855D02*
X2951Y855D01*
X0Y854D02*
X7Y854D01*
X2944Y854D02*
X2951Y854D01*
X0Y853D02*
X7Y853D01*
X2944Y853D02*
X2951Y853D01*
X0Y852D02*
X7Y852D01*
X2944Y852D02*
X2951Y852D01*
X0Y851D02*
X7Y851D01*
X2944Y851D02*
X2951Y851D01*
X0Y850D02*
X7Y850D01*
X2944Y850D02*
X2951Y850D01*
X0Y849D02*
X7Y849D01*
X2944Y849D02*
X2951Y849D01*
X0Y848D02*
X7Y848D01*
X2944Y848D02*
X2951Y848D01*
X0Y847D02*
X7Y847D01*
X2944Y847D02*
X2951Y847D01*
X0Y846D02*
X7Y846D01*
X2944Y846D02*
X2951Y846D01*
X0Y845D02*
X7Y845D01*
X2944Y845D02*
X2951Y845D01*
X0Y844D02*
X7Y844D01*
X2944Y844D02*
X2951Y844D01*
X0Y843D02*
X7Y843D01*
X2944Y843D02*
X2951Y843D01*
X0Y842D02*
X7Y842D01*
X2944Y842D02*
X2951Y842D01*
X0Y841D02*
X7Y841D01*
X2944Y841D02*
X2951Y841D01*
X0Y840D02*
X7Y840D01*
X2944Y840D02*
X2951Y840D01*
X0Y839D02*
X7Y839D01*
X2944Y839D02*
X2951Y839D01*
X0Y838D02*
X7Y838D01*
X2944Y838D02*
X2951Y838D01*
X0Y837D02*
X7Y837D01*
X2944Y837D02*
X2951Y837D01*
X0Y836D02*
X7Y836D01*
X2944Y836D02*
X2951Y836D01*
X0Y835D02*
X7Y835D01*
X2944Y835D02*
X2951Y835D01*
X0Y834D02*
X7Y834D01*
X2944Y834D02*
X2951Y834D01*
X0Y833D02*
X7Y833D01*
X2944Y833D02*
X2951Y833D01*
X0Y832D02*
X7Y832D01*
X2944Y832D02*
X2951Y832D01*
X0Y831D02*
X7Y831D01*
X2944Y831D02*
X2951Y831D01*
X0Y830D02*
X7Y830D01*
X2944Y830D02*
X2951Y830D01*
X0Y829D02*
X7Y829D01*
X2944Y829D02*
X2951Y829D01*
X0Y828D02*
X7Y828D01*
X2944Y828D02*
X2951Y828D01*
X0Y827D02*
X7Y827D01*
X2944Y827D02*
X2951Y827D01*
X0Y826D02*
X7Y826D01*
X2944Y826D02*
X2951Y826D01*
X0Y825D02*
X7Y825D01*
X2944Y825D02*
X2951Y825D01*
X0Y824D02*
X7Y824D01*
X2944Y824D02*
X2951Y824D01*
X0Y823D02*
X7Y823D01*
X2944Y823D02*
X2951Y823D01*
X0Y822D02*
X7Y822D01*
X2944Y822D02*
X2951Y822D01*
X0Y821D02*
X7Y821D01*
X2944Y821D02*
X2951Y821D01*
X0Y820D02*
X7Y820D01*
X2944Y820D02*
X2951Y820D01*
X0Y819D02*
X7Y819D01*
X2944Y819D02*
X2951Y819D01*
X0Y818D02*
X7Y818D01*
X2944Y818D02*
X2951Y818D01*
X0Y817D02*
X7Y817D01*
X2944Y817D02*
X2951Y817D01*
X0Y816D02*
X7Y816D01*
X2944Y816D02*
X2951Y816D01*
X0Y815D02*
X7Y815D01*
X2944Y815D02*
X2951Y815D01*
X0Y814D02*
X7Y814D01*
X2944Y814D02*
X2951Y814D01*
X0Y813D02*
X7Y813D01*
X2944Y813D02*
X2951Y813D01*
X0Y812D02*
X7Y812D01*
X2944Y812D02*
X2951Y812D01*
X0Y811D02*
X7Y811D01*
X2944Y811D02*
X2951Y811D01*
X0Y810D02*
X7Y810D01*
X2944Y810D02*
X2951Y810D01*
X0Y809D02*
X7Y809D01*
X2944Y809D02*
X2951Y809D01*
X0Y808D02*
X7Y808D01*
X2944Y808D02*
X2951Y808D01*
X0Y807D02*
X7Y807D01*
X2944Y807D02*
X2951Y807D01*
X0Y806D02*
X7Y806D01*
X2944Y806D02*
X2951Y806D01*
X0Y805D02*
X7Y805D01*
X2944Y805D02*
X2951Y805D01*
X0Y804D02*
X7Y804D01*
X2944Y804D02*
X2951Y804D01*
X0Y803D02*
X7Y803D01*
X2944Y803D02*
X2951Y803D01*
X0Y802D02*
X7Y802D01*
X2944Y802D02*
X2951Y802D01*
X0Y801D02*
X7Y801D01*
X2944Y801D02*
X2951Y801D01*
X0Y800D02*
X7Y800D01*
X2944Y800D02*
X2951Y800D01*
X0Y799D02*
X7Y799D01*
X2944Y799D02*
X2951Y799D01*
X0Y798D02*
X7Y798D01*
X2944Y798D02*
X2951Y798D01*
X0Y797D02*
X7Y797D01*
X2944Y797D02*
X2951Y797D01*
X0Y796D02*
X7Y796D01*
X2944Y796D02*
X2951Y796D01*
X0Y795D02*
X7Y795D01*
X2944Y795D02*
X2951Y795D01*
X0Y794D02*
X7Y794D01*
X2944Y794D02*
X2951Y794D01*
X0Y793D02*
X7Y793D01*
X2944Y793D02*
X2951Y793D01*
X0Y792D02*
X7Y792D01*
X2944Y792D02*
X2951Y792D01*
X0Y791D02*
X7Y791D01*
X2944Y791D02*
X2951Y791D01*
X0Y790D02*
X7Y790D01*
X2944Y790D02*
X2951Y790D01*
X0Y789D02*
X7Y789D01*
X2944Y789D02*
X2951Y789D01*
X0Y788D02*
X7Y788D01*
X2944Y788D02*
X2951Y788D01*
X0Y787D02*
X7Y787D01*
X2944Y787D02*
X2951Y787D01*
X0Y786D02*
X7Y786D01*
X2944Y786D02*
X2951Y786D01*
X0Y785D02*
X7Y785D01*
X2944Y785D02*
X2951Y785D01*
X0Y784D02*
X7Y784D01*
X2944Y784D02*
X2951Y784D01*
X0Y783D02*
X7Y783D01*
X2944Y783D02*
X2951Y783D01*
X0Y782D02*
X7Y782D01*
X2944Y782D02*
X2951Y782D01*
X0Y781D02*
X7Y781D01*
X2944Y781D02*
X2951Y781D01*
X0Y780D02*
X7Y780D01*
X2944Y780D02*
X2951Y780D01*
X0Y779D02*
X7Y779D01*
X2944Y779D02*
X2951Y779D01*
X0Y778D02*
X7Y778D01*
X2944Y778D02*
X2951Y778D01*
X0Y777D02*
X7Y777D01*
X2944Y777D02*
X2951Y777D01*
X0Y776D02*
X7Y776D01*
X2944Y776D02*
X2951Y776D01*
X0Y775D02*
X7Y775D01*
X2944Y775D02*
X2951Y775D01*
X0Y774D02*
X7Y774D01*
X2944Y774D02*
X2951Y774D01*
X0Y773D02*
X7Y773D01*
X2944Y773D02*
X2951Y773D01*
X0Y772D02*
X7Y772D01*
X2944Y772D02*
X2951Y772D01*
X0Y771D02*
X7Y771D01*
X2944Y771D02*
X2951Y771D01*
X0Y770D02*
X7Y770D01*
X2944Y770D02*
X2951Y770D01*
X0Y769D02*
X7Y769D01*
X2944Y769D02*
X2951Y769D01*
X0Y768D02*
X7Y768D01*
X2944Y768D02*
X2951Y768D01*
X0Y767D02*
X7Y767D01*
X2944Y767D02*
X2951Y767D01*
X0Y766D02*
X7Y766D01*
X2944Y766D02*
X2951Y766D01*
X0Y765D02*
X7Y765D01*
X2944Y765D02*
X2951Y765D01*
X0Y764D02*
X7Y764D01*
X2944Y764D02*
X2951Y764D01*
X0Y763D02*
X7Y763D01*
X2944Y763D02*
X2951Y763D01*
X0Y762D02*
X7Y762D01*
X2944Y762D02*
X2951Y762D01*
X0Y761D02*
X7Y761D01*
X2944Y761D02*
X2951Y761D01*
X0Y760D02*
X7Y760D01*
X2944Y760D02*
X2951Y760D01*
X0Y759D02*
X7Y759D01*
X2944Y759D02*
X2951Y759D01*
X0Y758D02*
X7Y758D01*
X2944Y758D02*
X2951Y758D01*
X0Y757D02*
X7Y757D01*
X2944Y757D02*
X2951Y757D01*
X0Y756D02*
X7Y756D01*
X2944Y756D02*
X2951Y756D01*
X0Y755D02*
X7Y755D01*
X2944Y755D02*
X2951Y755D01*
X0Y754D02*
X7Y754D01*
X2944Y754D02*
X2951Y754D01*
X0Y753D02*
X7Y753D01*
X2944Y753D02*
X2951Y753D01*
X0Y752D02*
X7Y752D01*
X2944Y752D02*
X2951Y752D01*
X0Y751D02*
X7Y751D01*
X2944Y751D02*
X2951Y751D01*
X0Y750D02*
X7Y750D01*
X2944Y750D02*
X2951Y750D01*
X0Y749D02*
X7Y749D01*
X2944Y749D02*
X2951Y749D01*
X0Y748D02*
X7Y748D01*
X2944Y748D02*
X2951Y748D01*
X0Y747D02*
X7Y747D01*
X2944Y747D02*
X2951Y747D01*
X0Y746D02*
X7Y746D01*
X2944Y746D02*
X2951Y746D01*
X0Y745D02*
X7Y745D01*
X2944Y745D02*
X2951Y745D01*
X0Y744D02*
X7Y744D01*
X2944Y744D02*
X2951Y744D01*
X0Y743D02*
X7Y743D01*
X2944Y743D02*
X2951Y743D01*
X0Y742D02*
X7Y742D01*
X2944Y742D02*
X2951Y742D01*
X0Y741D02*
X7Y741D01*
X2944Y741D02*
X2951Y741D01*
X0Y740D02*
X7Y740D01*
X2944Y740D02*
X2951Y740D01*
X0Y739D02*
X7Y739D01*
X2944Y739D02*
X2951Y739D01*
X0Y738D02*
X7Y738D01*
X2944Y738D02*
X2951Y738D01*
X0Y737D02*
X7Y737D01*
X2944Y737D02*
X2951Y737D01*
X0Y736D02*
X7Y736D01*
X2944Y736D02*
X2951Y736D01*
X0Y735D02*
X7Y735D01*
X2944Y735D02*
X2951Y735D01*
X0Y734D02*
X7Y734D01*
X2944Y734D02*
X2951Y734D01*
X0Y733D02*
X7Y733D01*
X2944Y733D02*
X2951Y733D01*
X0Y732D02*
X7Y732D01*
X2944Y732D02*
X2951Y732D01*
X0Y731D02*
X7Y731D01*
X2944Y731D02*
X2951Y731D01*
X0Y730D02*
X7Y730D01*
X2944Y730D02*
X2951Y730D01*
X0Y729D02*
X7Y729D01*
X2944Y729D02*
X2951Y729D01*
X0Y728D02*
X7Y728D01*
X2944Y728D02*
X2951Y728D01*
X0Y727D02*
X7Y727D01*
X2944Y727D02*
X2951Y727D01*
X0Y726D02*
X7Y726D01*
X2944Y726D02*
X2951Y726D01*
X0Y725D02*
X7Y725D01*
X2944Y725D02*
X2951Y725D01*
X0Y724D02*
X7Y724D01*
X2944Y724D02*
X2951Y724D01*
X0Y723D02*
X7Y723D01*
X2944Y723D02*
X2951Y723D01*
X0Y722D02*
X7Y722D01*
X2944Y722D02*
X2951Y722D01*
X0Y721D02*
X7Y721D01*
X2944Y721D02*
X2951Y721D01*
X0Y720D02*
X7Y720D01*
X2944Y720D02*
X2951Y720D01*
X0Y719D02*
X7Y719D01*
X2944Y719D02*
X2951Y719D01*
X0Y718D02*
X7Y718D01*
X2944Y718D02*
X2951Y718D01*
X0Y717D02*
X7Y717D01*
X2944Y717D02*
X2951Y717D01*
X0Y716D02*
X7Y716D01*
X2944Y716D02*
X2951Y716D01*
X0Y715D02*
X7Y715D01*
X2944Y715D02*
X2951Y715D01*
X0Y714D02*
X7Y714D01*
X2944Y714D02*
X2951Y714D01*
X0Y713D02*
X7Y713D01*
X2944Y713D02*
X2951Y713D01*
X0Y712D02*
X7Y712D01*
X2944Y712D02*
X2951Y712D01*
X0Y711D02*
X7Y711D01*
X2944Y711D02*
X2951Y711D01*
X0Y710D02*
X7Y710D01*
X2944Y710D02*
X2951Y710D01*
X0Y709D02*
X7Y709D01*
X2944Y709D02*
X2951Y709D01*
X0Y708D02*
X7Y708D01*
X2944Y708D02*
X2951Y708D01*
X0Y707D02*
X7Y707D01*
X2944Y707D02*
X2951Y707D01*
X0Y706D02*
X7Y706D01*
X2944Y706D02*
X2951Y706D01*
X0Y705D02*
X7Y705D01*
X2944Y705D02*
X2951Y705D01*
X0Y704D02*
X7Y704D01*
X2944Y704D02*
X2951Y704D01*
X0Y703D02*
X7Y703D01*
X2944Y703D02*
X2951Y703D01*
X0Y702D02*
X7Y702D01*
X2944Y702D02*
X2951Y702D01*
X0Y701D02*
X7Y701D01*
X2944Y701D02*
X2951Y701D01*
X0Y700D02*
X7Y700D01*
X2944Y700D02*
X2951Y700D01*
X0Y699D02*
X7Y699D01*
X2944Y699D02*
X2951Y699D01*
X0Y698D02*
X7Y698D01*
X2944Y698D02*
X2951Y698D01*
X0Y697D02*
X7Y697D01*
X2944Y697D02*
X2951Y697D01*
X0Y696D02*
X7Y696D01*
X2944Y696D02*
X2951Y696D01*
X0Y695D02*
X7Y695D01*
X2944Y695D02*
X2951Y695D01*
X0Y694D02*
X7Y694D01*
X2944Y694D02*
X2951Y694D01*
X0Y693D02*
X7Y693D01*
X2944Y693D02*
X2951Y693D01*
X0Y692D02*
X7Y692D01*
X2944Y692D02*
X2951Y692D01*
X0Y691D02*
X7Y691D01*
X2944Y691D02*
X2951Y691D01*
X0Y690D02*
X7Y690D01*
X2944Y690D02*
X2951Y690D01*
X0Y689D02*
X7Y689D01*
X2944Y689D02*
X2951Y689D01*
X0Y688D02*
X7Y688D01*
X2944Y688D02*
X2951Y688D01*
X0Y687D02*
X7Y687D01*
X2944Y687D02*
X2951Y687D01*
X0Y686D02*
X7Y686D01*
X2944Y686D02*
X2951Y686D01*
X0Y685D02*
X7Y685D01*
X2944Y685D02*
X2951Y685D01*
X0Y684D02*
X7Y684D01*
X2944Y684D02*
X2951Y684D01*
X0Y683D02*
X7Y683D01*
X2944Y683D02*
X2951Y683D01*
X0Y682D02*
X7Y682D01*
X2944Y682D02*
X2951Y682D01*
X0Y681D02*
X7Y681D01*
X2944Y681D02*
X2951Y681D01*
X0Y680D02*
X7Y680D01*
X2944Y680D02*
X2951Y680D01*
X0Y679D02*
X7Y679D01*
X2944Y679D02*
X2951Y679D01*
X0Y678D02*
X7Y678D01*
X2944Y678D02*
X2951Y678D01*
X0Y677D02*
X7Y677D01*
X2944Y677D02*
X2951Y677D01*
X0Y676D02*
X7Y676D01*
X2944Y676D02*
X2951Y676D01*
X0Y675D02*
X7Y675D01*
X2944Y675D02*
X2951Y675D01*
X0Y674D02*
X7Y674D01*
X2944Y674D02*
X2951Y674D01*
X0Y673D02*
X7Y673D01*
X2944Y673D02*
X2951Y673D01*
X0Y672D02*
X7Y672D01*
X2944Y672D02*
X2951Y672D01*
X0Y671D02*
X7Y671D01*
X2944Y671D02*
X2951Y671D01*
X0Y670D02*
X7Y670D01*
X2944Y670D02*
X2951Y670D01*
X0Y669D02*
X7Y669D01*
X2944Y669D02*
X2951Y669D01*
X0Y668D02*
X7Y668D01*
X2944Y668D02*
X2951Y668D01*
X0Y667D02*
X7Y667D01*
X2944Y667D02*
X2951Y667D01*
X0Y666D02*
X7Y666D01*
X2944Y666D02*
X2951Y666D01*
X0Y665D02*
X7Y665D01*
X2944Y665D02*
X2951Y665D01*
X0Y664D02*
X7Y664D01*
X2944Y664D02*
X2951Y664D01*
X0Y663D02*
X7Y663D01*
X2944Y663D02*
X2951Y663D01*
X0Y662D02*
X7Y662D01*
X2944Y662D02*
X2951Y662D01*
X0Y661D02*
X7Y661D01*
X2944Y661D02*
X2951Y661D01*
X0Y660D02*
X7Y660D01*
X2944Y660D02*
X2951Y660D01*
X0Y659D02*
X7Y659D01*
X2944Y659D02*
X2951Y659D01*
X0Y658D02*
X7Y658D01*
X2944Y658D02*
X2951Y658D01*
X0Y657D02*
X7Y657D01*
X2944Y657D02*
X2951Y657D01*
X0Y656D02*
X7Y656D01*
X2944Y656D02*
X2951Y656D01*
X0Y655D02*
X7Y655D01*
X2944Y655D02*
X2951Y655D01*
X0Y654D02*
X7Y654D01*
X2944Y654D02*
X2951Y654D01*
X0Y653D02*
X7Y653D01*
X2944Y653D02*
X2951Y653D01*
X0Y652D02*
X7Y652D01*
X2944Y652D02*
X2951Y652D01*
X0Y651D02*
X7Y651D01*
X2944Y651D02*
X2951Y651D01*
X0Y650D02*
X7Y650D01*
X2944Y650D02*
X2951Y650D01*
X0Y649D02*
X7Y649D01*
X2944Y649D02*
X2951Y649D01*
X0Y648D02*
X7Y648D01*
X2944Y648D02*
X2951Y648D01*
X0Y647D02*
X7Y647D01*
X2944Y647D02*
X2951Y647D01*
X0Y646D02*
X7Y646D01*
X2944Y646D02*
X2951Y646D01*
X0Y645D02*
X7Y645D01*
X2944Y645D02*
X2951Y645D01*
X0Y644D02*
X7Y644D01*
X2944Y644D02*
X2951Y644D01*
X0Y643D02*
X7Y643D01*
X2944Y643D02*
X2951Y643D01*
X0Y642D02*
X7Y642D01*
X2944Y642D02*
X2951Y642D01*
X0Y641D02*
X7Y641D01*
X2944Y641D02*
X2951Y641D01*
X0Y640D02*
X7Y640D01*
X2944Y640D02*
X2951Y640D01*
X0Y639D02*
X7Y639D01*
X2944Y639D02*
X2951Y639D01*
X0Y638D02*
X7Y638D01*
X2944Y638D02*
X2951Y638D01*
X0Y637D02*
X7Y637D01*
X2944Y637D02*
X2951Y637D01*
X0Y636D02*
X7Y636D01*
X2944Y636D02*
X2951Y636D01*
X0Y635D02*
X7Y635D01*
X2944Y635D02*
X2951Y635D01*
X0Y634D02*
X7Y634D01*
X2944Y634D02*
X2951Y634D01*
X0Y633D02*
X7Y633D01*
X2944Y633D02*
X2951Y633D01*
X0Y632D02*
X7Y632D01*
X2944Y632D02*
X2951Y632D01*
X0Y631D02*
X7Y631D01*
X2944Y631D02*
X2951Y631D01*
X0Y630D02*
X7Y630D01*
X2944Y630D02*
X2951Y630D01*
X0Y629D02*
X7Y629D01*
X2944Y629D02*
X2951Y629D01*
X0Y628D02*
X7Y628D01*
X2944Y628D02*
X2951Y628D01*
X0Y627D02*
X7Y627D01*
X2944Y627D02*
X2951Y627D01*
X0Y626D02*
X7Y626D01*
X2944Y626D02*
X2951Y626D01*
X0Y625D02*
X7Y625D01*
X2944Y625D02*
X2951Y625D01*
X0Y624D02*
X7Y624D01*
X2944Y624D02*
X2951Y624D01*
X0Y623D02*
X7Y623D01*
X2944Y623D02*
X2951Y623D01*
X0Y622D02*
X7Y622D01*
X2944Y622D02*
X2951Y622D01*
X0Y621D02*
X7Y621D01*
X2944Y621D02*
X2951Y621D01*
X0Y620D02*
X7Y620D01*
X2944Y620D02*
X2951Y620D01*
X0Y619D02*
X7Y619D01*
X2944Y619D02*
X2951Y619D01*
X0Y618D02*
X7Y618D01*
X2944Y618D02*
X2951Y618D01*
X0Y617D02*
X7Y617D01*
X2944Y617D02*
X2951Y617D01*
X0Y616D02*
X7Y616D01*
X2944Y616D02*
X2951Y616D01*
X0Y615D02*
X7Y615D01*
X2944Y615D02*
X2951Y615D01*
X0Y614D02*
X7Y614D01*
X2944Y614D02*
X2951Y614D01*
X0Y613D02*
X7Y613D01*
X2944Y613D02*
X2951Y613D01*
X0Y612D02*
X7Y612D01*
X2944Y612D02*
X2951Y612D01*
X0Y611D02*
X7Y611D01*
X2944Y611D02*
X2951Y611D01*
X0Y610D02*
X7Y610D01*
X2944Y610D02*
X2951Y610D01*
X0Y609D02*
X7Y609D01*
X2944Y609D02*
X2951Y609D01*
X0Y608D02*
X7Y608D01*
X2944Y608D02*
X2951Y608D01*
X0Y607D02*
X7Y607D01*
X2944Y607D02*
X2951Y607D01*
X0Y606D02*
X7Y606D01*
X2944Y606D02*
X2951Y606D01*
X0Y605D02*
X7Y605D01*
X2944Y605D02*
X2951Y605D01*
X0Y604D02*
X7Y604D01*
X2944Y604D02*
X2951Y604D01*
X0Y603D02*
X7Y603D01*
X2944Y603D02*
X2951Y603D01*
X0Y602D02*
X7Y602D01*
X2944Y602D02*
X2951Y602D01*
X0Y601D02*
X7Y601D01*
X2944Y601D02*
X2951Y601D01*
X0Y600D02*
X7Y600D01*
X2944Y600D02*
X2951Y600D01*
X0Y599D02*
X7Y599D01*
X2944Y599D02*
X2951Y599D01*
X0Y598D02*
X7Y598D01*
X2944Y598D02*
X2951Y598D01*
X0Y597D02*
X7Y597D01*
X2944Y597D02*
X2951Y597D01*
X0Y596D02*
X7Y596D01*
X2944Y596D02*
X2951Y596D01*
X0Y595D02*
X7Y595D01*
X2944Y595D02*
X2951Y595D01*
X0Y594D02*
X7Y594D01*
X2944Y594D02*
X2951Y594D01*
X0Y593D02*
X7Y593D01*
X2944Y593D02*
X2951Y593D01*
X0Y592D02*
X7Y592D01*
X2944Y592D02*
X2951Y592D01*
X0Y591D02*
X7Y591D01*
X2944Y591D02*
X2951Y591D01*
X0Y590D02*
X7Y590D01*
X2944Y590D02*
X2951Y590D01*
X0Y589D02*
X7Y589D01*
X2944Y589D02*
X2951Y589D01*
X0Y588D02*
X7Y588D01*
X2944Y588D02*
X2951Y588D01*
X0Y587D02*
X7Y587D01*
X2944Y587D02*
X2951Y587D01*
X0Y586D02*
X7Y586D01*
X2944Y586D02*
X2951Y586D01*
X0Y585D02*
X7Y585D01*
X2944Y585D02*
X2951Y585D01*
X0Y584D02*
X7Y584D01*
X2944Y584D02*
X2951Y584D01*
X0Y583D02*
X7Y583D01*
X2944Y583D02*
X2951Y583D01*
X0Y582D02*
X7Y582D01*
X2944Y582D02*
X2951Y582D01*
X0Y581D02*
X7Y581D01*
X2944Y581D02*
X2951Y581D01*
X0Y580D02*
X7Y580D01*
X2944Y580D02*
X2951Y580D01*
X0Y579D02*
X7Y579D01*
X2944Y579D02*
X2951Y579D01*
X0Y578D02*
X7Y578D01*
X2944Y578D02*
X2951Y578D01*
X0Y577D02*
X7Y577D01*
X2944Y577D02*
X2951Y577D01*
X0Y576D02*
X7Y576D01*
X2944Y576D02*
X2951Y576D01*
X0Y575D02*
X7Y575D01*
X2944Y575D02*
X2951Y575D01*
X0Y574D02*
X7Y574D01*
X2944Y574D02*
X2951Y574D01*
X0Y573D02*
X7Y573D01*
X2944Y573D02*
X2951Y573D01*
X0Y572D02*
X7Y572D01*
X2944Y572D02*
X2951Y572D01*
X0Y571D02*
X7Y571D01*
X2944Y571D02*
X2951Y571D01*
X0Y570D02*
X7Y570D01*
X2944Y570D02*
X2951Y570D01*
X0Y569D02*
X7Y569D01*
X2944Y569D02*
X2951Y569D01*
X0Y568D02*
X7Y568D01*
X2944Y568D02*
X2951Y568D01*
X0Y567D02*
X7Y567D01*
X2944Y567D02*
X2951Y567D01*
X0Y566D02*
X7Y566D01*
X2944Y566D02*
X2951Y566D01*
X0Y565D02*
X7Y565D01*
X2944Y565D02*
X2951Y565D01*
X0Y564D02*
X7Y564D01*
X2944Y564D02*
X2951Y564D01*
X0Y563D02*
X7Y563D01*
X2944Y563D02*
X2951Y563D01*
X0Y562D02*
X7Y562D01*
X2944Y562D02*
X2951Y562D01*
X0Y561D02*
X7Y561D01*
X2944Y561D02*
X2951Y561D01*
X0Y560D02*
X7Y560D01*
X2944Y560D02*
X2951Y560D01*
X0Y559D02*
X7Y559D01*
X2944Y559D02*
X2951Y559D01*
X0Y558D02*
X7Y558D01*
X2944Y558D02*
X2951Y558D01*
X0Y557D02*
X7Y557D01*
X2944Y557D02*
X2951Y557D01*
X0Y556D02*
X7Y556D01*
X2944Y556D02*
X2951Y556D01*
X0Y555D02*
X7Y555D01*
X2944Y555D02*
X2951Y555D01*
X0Y554D02*
X7Y554D01*
X2944Y554D02*
X2951Y554D01*
X0Y553D02*
X7Y553D01*
X2944Y553D02*
X2951Y553D01*
X0Y552D02*
X7Y552D01*
X2944Y552D02*
X2951Y552D01*
X0Y551D02*
X7Y551D01*
X2944Y551D02*
X2951Y551D01*
X0Y550D02*
X7Y550D01*
X2944Y550D02*
X2951Y550D01*
X0Y549D02*
X7Y549D01*
X2944Y549D02*
X2951Y549D01*
X0Y548D02*
X7Y548D01*
X2944Y548D02*
X2951Y548D01*
X0Y547D02*
X7Y547D01*
X2944Y547D02*
X2951Y547D01*
X0Y546D02*
X7Y546D01*
X2944Y546D02*
X2951Y546D01*
X0Y545D02*
X7Y545D01*
X2944Y545D02*
X2951Y545D01*
X0Y544D02*
X7Y544D01*
X2944Y544D02*
X2951Y544D01*
X0Y543D02*
X7Y543D01*
X2944Y543D02*
X2951Y543D01*
X0Y542D02*
X7Y542D01*
X2944Y542D02*
X2951Y542D01*
X0Y541D02*
X7Y541D01*
X2944Y541D02*
X2951Y541D01*
X0Y540D02*
X7Y540D01*
X2944Y540D02*
X2951Y540D01*
X0Y539D02*
X7Y539D01*
X2944Y539D02*
X2951Y539D01*
X0Y538D02*
X7Y538D01*
X2944Y538D02*
X2951Y538D01*
X0Y537D02*
X7Y537D01*
X2944Y537D02*
X2951Y537D01*
X0Y536D02*
X7Y536D01*
X2944Y536D02*
X2951Y536D01*
X0Y535D02*
X7Y535D01*
X2944Y535D02*
X2951Y535D01*
X0Y534D02*
X7Y534D01*
X2944Y534D02*
X2951Y534D01*
X0Y533D02*
X7Y533D01*
X2944Y533D02*
X2951Y533D01*
X0Y532D02*
X7Y532D01*
X2944Y532D02*
X2951Y532D01*
X0Y531D02*
X7Y531D01*
X2944Y531D02*
X2951Y531D01*
X0Y530D02*
X7Y530D01*
X2944Y530D02*
X2951Y530D01*
X0Y529D02*
X7Y529D01*
X2944Y529D02*
X2951Y529D01*
X0Y528D02*
X7Y528D01*
X2944Y528D02*
X2951Y528D01*
X0Y527D02*
X7Y527D01*
X2944Y527D02*
X2951Y527D01*
X0Y526D02*
X7Y526D01*
X2944Y526D02*
X2951Y526D01*
X0Y525D02*
X7Y525D01*
X2944Y525D02*
X2951Y525D01*
X0Y524D02*
X7Y524D01*
X2944Y524D02*
X2951Y524D01*
X0Y523D02*
X7Y523D01*
X2944Y523D02*
X2951Y523D01*
X0Y522D02*
X7Y522D01*
X2944Y522D02*
X2951Y522D01*
X0Y521D02*
X7Y521D01*
X2944Y521D02*
X2951Y521D01*
X0Y520D02*
X7Y520D01*
X2944Y520D02*
X2951Y520D01*
X0Y519D02*
X7Y519D01*
X2944Y519D02*
X2951Y519D01*
X0Y518D02*
X7Y518D01*
X2944Y518D02*
X2951Y518D01*
X0Y517D02*
X7Y517D01*
X2944Y517D02*
X2951Y517D01*
X0Y516D02*
X7Y516D01*
X2944Y516D02*
X2951Y516D01*
X0Y515D02*
X7Y515D01*
X2944Y515D02*
X2951Y515D01*
X0Y514D02*
X7Y514D01*
X2944Y514D02*
X2951Y514D01*
X0Y513D02*
X7Y513D01*
X2944Y513D02*
X2951Y513D01*
X0Y512D02*
X7Y512D01*
X2944Y512D02*
X2951Y512D01*
X0Y511D02*
X7Y511D01*
X2944Y511D02*
X2951Y511D01*
X0Y510D02*
X7Y510D01*
X2944Y510D02*
X2951Y510D01*
X0Y509D02*
X7Y509D01*
X2944Y509D02*
X2951Y509D01*
X0Y508D02*
X7Y508D01*
X2944Y508D02*
X2951Y508D01*
X0Y507D02*
X7Y507D01*
X2944Y507D02*
X2951Y507D01*
X0Y506D02*
X7Y506D01*
X2944Y506D02*
X2951Y506D01*
X0Y505D02*
X7Y505D01*
X2944Y505D02*
X2951Y505D01*
X0Y504D02*
X7Y504D01*
X2944Y504D02*
X2951Y504D01*
X0Y503D02*
X7Y503D01*
X2944Y503D02*
X2951Y503D01*
X0Y502D02*
X7Y502D01*
X2944Y502D02*
X2951Y502D01*
X0Y501D02*
X7Y501D01*
X2944Y501D02*
X2951Y501D01*
X0Y500D02*
X7Y500D01*
X2944Y500D02*
X2951Y500D01*
X0Y499D02*
X7Y499D01*
X2944Y499D02*
X2951Y499D01*
X0Y498D02*
X7Y498D01*
X2944Y498D02*
X2951Y498D01*
X0Y497D02*
X7Y497D01*
X2944Y497D02*
X2951Y497D01*
X0Y496D02*
X7Y496D01*
X2944Y496D02*
X2951Y496D01*
X0Y495D02*
X7Y495D01*
X2944Y495D02*
X2951Y495D01*
X0Y494D02*
X7Y494D01*
X2944Y494D02*
X2951Y494D01*
X0Y493D02*
X7Y493D01*
X2944Y493D02*
X2951Y493D01*
X0Y492D02*
X7Y492D01*
X2944Y492D02*
X2951Y492D01*
X0Y491D02*
X7Y491D01*
X2944Y491D02*
X2951Y491D01*
X0Y490D02*
X7Y490D01*
X2944Y490D02*
X2951Y490D01*
X0Y489D02*
X7Y489D01*
X2944Y489D02*
X2951Y489D01*
X0Y488D02*
X7Y488D01*
X2944Y488D02*
X2951Y488D01*
X0Y487D02*
X7Y487D01*
X2944Y487D02*
X2951Y487D01*
X0Y486D02*
X7Y486D01*
X2944Y486D02*
X2951Y486D01*
X0Y485D02*
X7Y485D01*
X2944Y485D02*
X2951Y485D01*
X0Y484D02*
X7Y484D01*
X2944Y484D02*
X2951Y484D01*
X0Y483D02*
X7Y483D01*
X2944Y483D02*
X2951Y483D01*
X0Y482D02*
X7Y482D01*
X2944Y482D02*
X2951Y482D01*
X0Y481D02*
X7Y481D01*
X2944Y481D02*
X2951Y481D01*
X0Y480D02*
X7Y480D01*
X2944Y480D02*
X2951Y480D01*
X0Y479D02*
X7Y479D01*
X2944Y479D02*
X2951Y479D01*
X0Y478D02*
X7Y478D01*
X2944Y478D02*
X2951Y478D01*
X0Y477D02*
X7Y477D01*
X2944Y477D02*
X2951Y477D01*
X0Y476D02*
X7Y476D01*
X2944Y476D02*
X2951Y476D01*
X0Y475D02*
X7Y475D01*
X2944Y475D02*
X2951Y475D01*
X0Y474D02*
X7Y474D01*
X2944Y474D02*
X2951Y474D01*
X0Y473D02*
X7Y473D01*
X2944Y473D02*
X2951Y473D01*
X0Y472D02*
X7Y472D01*
X2944Y472D02*
X2951Y472D01*
X0Y471D02*
X7Y471D01*
X2944Y471D02*
X2951Y471D01*
X0Y470D02*
X7Y470D01*
X2944Y470D02*
X2951Y470D01*
X0Y469D02*
X7Y469D01*
X2944Y469D02*
X2951Y469D01*
X0Y468D02*
X7Y468D01*
X2944Y468D02*
X2951Y468D01*
X0Y467D02*
X7Y467D01*
X2944Y467D02*
X2951Y467D01*
X0Y466D02*
X7Y466D01*
X2944Y466D02*
X2951Y466D01*
X0Y465D02*
X7Y465D01*
X2944Y465D02*
X2951Y465D01*
X0Y464D02*
X7Y464D01*
X2944Y464D02*
X2951Y464D01*
X0Y463D02*
X7Y463D01*
X2944Y463D02*
X2951Y463D01*
X0Y462D02*
X7Y462D01*
X2944Y462D02*
X2951Y462D01*
X0Y461D02*
X7Y461D01*
X2944Y461D02*
X2951Y461D01*
X0Y460D02*
X7Y460D01*
X2944Y460D02*
X2951Y460D01*
X0Y459D02*
X7Y459D01*
X2944Y459D02*
X2951Y459D01*
X0Y458D02*
X7Y458D01*
X2944Y458D02*
X2951Y458D01*
X0Y457D02*
X7Y457D01*
X2944Y457D02*
X2951Y457D01*
X0Y456D02*
X7Y456D01*
X2944Y456D02*
X2951Y456D01*
X0Y455D02*
X7Y455D01*
X2944Y455D02*
X2951Y455D01*
X0Y454D02*
X7Y454D01*
X2944Y454D02*
X2951Y454D01*
X0Y453D02*
X7Y453D01*
X2944Y453D02*
X2951Y453D01*
X0Y452D02*
X7Y452D01*
X2944Y452D02*
X2951Y452D01*
X0Y451D02*
X7Y451D01*
X2944Y451D02*
X2951Y451D01*
X0Y450D02*
X7Y450D01*
X2944Y450D02*
X2951Y450D01*
X0Y449D02*
X7Y449D01*
X2944Y449D02*
X2951Y449D01*
X0Y448D02*
X7Y448D01*
X2944Y448D02*
X2951Y448D01*
X0Y447D02*
X7Y447D01*
X2944Y447D02*
X2951Y447D01*
X0Y446D02*
X7Y446D01*
X2944Y446D02*
X2951Y446D01*
X0Y445D02*
X7Y445D01*
X2944Y445D02*
X2951Y445D01*
X0Y444D02*
X7Y444D01*
X2944Y444D02*
X2951Y444D01*
X0Y443D02*
X7Y443D01*
X2944Y443D02*
X2951Y443D01*
X0Y442D02*
X7Y442D01*
X2944Y442D02*
X2951Y442D01*
X0Y441D02*
X7Y441D01*
X2944Y441D02*
X2951Y441D01*
X0Y440D02*
X7Y440D01*
X2944Y440D02*
X2951Y440D01*
X0Y439D02*
X7Y439D01*
X2944Y439D02*
X2951Y439D01*
X0Y438D02*
X7Y438D01*
X2944Y438D02*
X2951Y438D01*
X0Y437D02*
X7Y437D01*
X2944Y437D02*
X2951Y437D01*
X0Y436D02*
X7Y436D01*
X2944Y436D02*
X2951Y436D01*
X0Y435D02*
X7Y435D01*
X2944Y435D02*
X2951Y435D01*
X0Y434D02*
X7Y434D01*
X2944Y434D02*
X2951Y434D01*
X0Y433D02*
X7Y433D01*
X2944Y433D02*
X2951Y433D01*
X0Y432D02*
X7Y432D01*
X2944Y432D02*
X2951Y432D01*
X0Y431D02*
X7Y431D01*
X2944Y431D02*
X2951Y431D01*
X0Y430D02*
X7Y430D01*
X2944Y430D02*
X2951Y430D01*
X0Y429D02*
X7Y429D01*
X2944Y429D02*
X2951Y429D01*
X0Y428D02*
X7Y428D01*
X2944Y428D02*
X2951Y428D01*
X0Y427D02*
X7Y427D01*
X2944Y427D02*
X2951Y427D01*
X0Y426D02*
X7Y426D01*
X2944Y426D02*
X2951Y426D01*
X0Y425D02*
X7Y425D01*
X2944Y425D02*
X2951Y425D01*
X0Y424D02*
X7Y424D01*
X2944Y424D02*
X2951Y424D01*
X0Y423D02*
X7Y423D01*
X2944Y423D02*
X2951Y423D01*
X0Y422D02*
X7Y422D01*
X2944Y422D02*
X2951Y422D01*
X0Y421D02*
X7Y421D01*
X2944Y421D02*
X2951Y421D01*
X0Y420D02*
X7Y420D01*
X2944Y420D02*
X2951Y420D01*
X0Y419D02*
X7Y419D01*
X2944Y419D02*
X2951Y419D01*
X0Y418D02*
X7Y418D01*
X2944Y418D02*
X2951Y418D01*
X0Y417D02*
X7Y417D01*
X2944Y417D02*
X2951Y417D01*
X0Y416D02*
X7Y416D01*
X2944Y416D02*
X2951Y416D01*
X0Y415D02*
X7Y415D01*
X2944Y415D02*
X2951Y415D01*
X0Y414D02*
X7Y414D01*
X2944Y414D02*
X2951Y414D01*
X0Y413D02*
X7Y413D01*
X2944Y413D02*
X2951Y413D01*
X0Y412D02*
X7Y412D01*
X2944Y412D02*
X2951Y412D01*
X0Y411D02*
X7Y411D01*
X2944Y411D02*
X2951Y411D01*
X0Y410D02*
X7Y410D01*
X2944Y410D02*
X2951Y410D01*
X0Y409D02*
X7Y409D01*
X2944Y409D02*
X2951Y409D01*
X0Y408D02*
X7Y408D01*
X2944Y408D02*
X2951Y408D01*
X0Y407D02*
X7Y407D01*
X2944Y407D02*
X2951Y407D01*
X0Y406D02*
X7Y406D01*
X2944Y406D02*
X2951Y406D01*
X0Y405D02*
X7Y405D01*
X2944Y405D02*
X2951Y405D01*
X0Y404D02*
X7Y404D01*
X2944Y404D02*
X2951Y404D01*
X0Y403D02*
X7Y403D01*
X2944Y403D02*
X2951Y403D01*
X0Y402D02*
X7Y402D01*
X2944Y402D02*
X2951Y402D01*
X0Y401D02*
X7Y401D01*
X2944Y401D02*
X2951Y401D01*
X0Y400D02*
X7Y400D01*
X2944Y400D02*
X2951Y400D01*
X0Y399D02*
X7Y399D01*
X2944Y399D02*
X2951Y399D01*
X0Y398D02*
X7Y398D01*
X2944Y398D02*
X2951Y398D01*
X0Y397D02*
X7Y397D01*
X2944Y397D02*
X2951Y397D01*
X0Y396D02*
X7Y396D01*
X2944Y396D02*
X2951Y396D01*
X0Y395D02*
X7Y395D01*
X2944Y395D02*
X2951Y395D01*
X0Y394D02*
X7Y394D01*
X2944Y394D02*
X2951Y394D01*
X0Y393D02*
X7Y393D01*
X2944Y393D02*
X2951Y393D01*
X0Y392D02*
X7Y392D01*
X2944Y392D02*
X2951Y392D01*
X0Y391D02*
X7Y391D01*
X2944Y391D02*
X2951Y391D01*
X0Y390D02*
X7Y390D01*
X2944Y390D02*
X2951Y390D01*
X0Y389D02*
X7Y389D01*
X2944Y389D02*
X2951Y389D01*
X0Y388D02*
X7Y388D01*
X2944Y388D02*
X2951Y388D01*
X0Y387D02*
X7Y387D01*
X2944Y387D02*
X2951Y387D01*
X0Y386D02*
X7Y386D01*
X2944Y386D02*
X2951Y386D01*
X0Y385D02*
X7Y385D01*
X2944Y385D02*
X2951Y385D01*
X0Y384D02*
X7Y384D01*
X2944Y384D02*
X2951Y384D01*
X0Y383D02*
X7Y383D01*
X2944Y383D02*
X2951Y383D01*
X0Y382D02*
X7Y382D01*
X2944Y382D02*
X2951Y382D01*
X0Y381D02*
X7Y381D01*
X2944Y381D02*
X2951Y381D01*
X0Y380D02*
X7Y380D01*
X2944Y380D02*
X2951Y380D01*
X0Y379D02*
X7Y379D01*
X2944Y379D02*
X2951Y379D01*
X0Y378D02*
X7Y378D01*
X2944Y378D02*
X2951Y378D01*
X0Y377D02*
X7Y377D01*
X2944Y377D02*
X2951Y377D01*
X0Y376D02*
X7Y376D01*
X2944Y376D02*
X2951Y376D01*
X0Y375D02*
X7Y375D01*
X2944Y375D02*
X2951Y375D01*
X0Y374D02*
X7Y374D01*
X2944Y374D02*
X2951Y374D01*
X0Y373D02*
X7Y373D01*
X2944Y373D02*
X2951Y373D01*
X0Y372D02*
X7Y372D01*
X2944Y372D02*
X2951Y372D01*
X0Y371D02*
X7Y371D01*
X2944Y371D02*
X2951Y371D01*
X0Y370D02*
X7Y370D01*
X2944Y370D02*
X2951Y370D01*
X0Y369D02*
X7Y369D01*
X2944Y369D02*
X2951Y369D01*
X0Y368D02*
X7Y368D01*
X2944Y368D02*
X2951Y368D01*
X0Y367D02*
X7Y367D01*
X2944Y367D02*
X2951Y367D01*
X0Y366D02*
X7Y366D01*
X2944Y366D02*
X2951Y366D01*
X0Y365D02*
X7Y365D01*
X2944Y365D02*
X2951Y365D01*
X0Y364D02*
X7Y364D01*
X2944Y364D02*
X2951Y364D01*
X0Y363D02*
X7Y363D01*
X2944Y363D02*
X2951Y363D01*
X0Y362D02*
X7Y362D01*
X2944Y362D02*
X2951Y362D01*
X0Y361D02*
X7Y361D01*
X2944Y361D02*
X2951Y361D01*
X0Y360D02*
X7Y360D01*
X2944Y360D02*
X2951Y360D01*
X0Y359D02*
X7Y359D01*
X2944Y359D02*
X2951Y359D01*
X0Y358D02*
X7Y358D01*
X2944Y358D02*
X2951Y358D01*
X0Y357D02*
X7Y357D01*
X2944Y357D02*
X2951Y357D01*
X0Y356D02*
X7Y356D01*
X2944Y356D02*
X2951Y356D01*
X0Y355D02*
X7Y355D01*
X2944Y355D02*
X2951Y355D01*
X0Y354D02*
X7Y354D01*
X2944Y354D02*
X2951Y354D01*
X0Y353D02*
X7Y353D01*
X2944Y353D02*
X2951Y353D01*
X0Y352D02*
X7Y352D01*
X2944Y352D02*
X2951Y352D01*
X0Y351D02*
X7Y351D01*
X2944Y351D02*
X2951Y351D01*
X0Y350D02*
X7Y350D01*
X2944Y350D02*
X2951Y350D01*
X0Y349D02*
X7Y349D01*
X2944Y349D02*
X2951Y349D01*
X0Y348D02*
X7Y348D01*
X2944Y348D02*
X2951Y348D01*
X0Y347D02*
X7Y347D01*
X2944Y347D02*
X2951Y347D01*
X0Y346D02*
X7Y346D01*
X2944Y346D02*
X2951Y346D01*
X0Y345D02*
X7Y345D01*
X2944Y345D02*
X2951Y345D01*
X0Y344D02*
X7Y344D01*
X2944Y344D02*
X2951Y344D01*
X0Y343D02*
X7Y343D01*
X2944Y343D02*
X2951Y343D01*
X0Y342D02*
X7Y342D01*
X2944Y342D02*
X2951Y342D01*
X0Y341D02*
X7Y341D01*
X2944Y341D02*
X2951Y341D01*
X0Y340D02*
X7Y340D01*
X2944Y340D02*
X2951Y340D01*
X0Y339D02*
X7Y339D01*
X2944Y339D02*
X2951Y339D01*
X0Y338D02*
X7Y338D01*
X2944Y338D02*
X2951Y338D01*
X0Y337D02*
X7Y337D01*
X2944Y337D02*
X2951Y337D01*
X0Y336D02*
X7Y336D01*
X2944Y336D02*
X2951Y336D01*
X0Y335D02*
X7Y335D01*
X2944Y335D02*
X2951Y335D01*
X0Y334D02*
X7Y334D01*
X2944Y334D02*
X2951Y334D01*
X0Y333D02*
X7Y333D01*
X2944Y333D02*
X2951Y333D01*
X0Y332D02*
X7Y332D01*
X2944Y332D02*
X2951Y332D01*
X0Y331D02*
X7Y331D01*
X2944Y331D02*
X2951Y331D01*
X0Y330D02*
X7Y330D01*
X2944Y330D02*
X2951Y330D01*
X0Y329D02*
X7Y329D01*
X2944Y329D02*
X2951Y329D01*
X0Y328D02*
X7Y328D01*
X2944Y328D02*
X2951Y328D01*
X0Y327D02*
X7Y327D01*
X2944Y327D02*
X2951Y327D01*
X0Y326D02*
X7Y326D01*
X2944Y326D02*
X2951Y326D01*
X0Y325D02*
X7Y325D01*
X2944Y325D02*
X2951Y325D01*
X0Y324D02*
X7Y324D01*
X2944Y324D02*
X2951Y324D01*
X0Y323D02*
X7Y323D01*
X2944Y323D02*
X2951Y323D01*
X0Y322D02*
X7Y322D01*
X2944Y322D02*
X2951Y322D01*
X0Y321D02*
X7Y321D01*
X2944Y321D02*
X2951Y321D01*
X0Y320D02*
X7Y320D01*
X2944Y320D02*
X2951Y320D01*
X0Y319D02*
X7Y319D01*
X2944Y319D02*
X2951Y319D01*
X0Y318D02*
X7Y318D01*
X2944Y318D02*
X2951Y318D01*
X0Y317D02*
X7Y317D01*
X2944Y317D02*
X2951Y317D01*
X0Y316D02*
X7Y316D01*
X2944Y316D02*
X2951Y316D01*
X0Y315D02*
X7Y315D01*
X2944Y315D02*
X2951Y315D01*
X0Y314D02*
X7Y314D01*
X2944Y314D02*
X2951Y314D01*
X0Y313D02*
X7Y313D01*
X2944Y313D02*
X2951Y313D01*
X0Y312D02*
X7Y312D01*
X2944Y312D02*
X2951Y312D01*
X0Y311D02*
X7Y311D01*
X2944Y311D02*
X2951Y311D01*
X0Y310D02*
X7Y310D01*
X2944Y310D02*
X2951Y310D01*
X0Y309D02*
X7Y309D01*
X2944Y309D02*
X2951Y309D01*
X0Y308D02*
X7Y308D01*
X2944Y308D02*
X2951Y308D01*
X0Y307D02*
X7Y307D01*
X2944Y307D02*
X2951Y307D01*
X0Y306D02*
X7Y306D01*
X2944Y306D02*
X2951Y306D01*
X0Y305D02*
X7Y305D01*
X2944Y305D02*
X2951Y305D01*
X0Y304D02*
X7Y304D01*
X2944Y304D02*
X2951Y304D01*
X0Y303D02*
X7Y303D01*
X2944Y303D02*
X2951Y303D01*
X0Y302D02*
X7Y302D01*
X2944Y302D02*
X2951Y302D01*
X0Y301D02*
X7Y301D01*
X2944Y301D02*
X2951Y301D01*
X0Y300D02*
X7Y300D01*
X2944Y300D02*
X2951Y300D01*
X0Y299D02*
X7Y299D01*
X2944Y299D02*
X2951Y299D01*
X0Y298D02*
X7Y298D01*
X2944Y298D02*
X2951Y298D01*
X0Y297D02*
X7Y297D01*
X2944Y297D02*
X2951Y297D01*
X0Y296D02*
X7Y296D01*
X2944Y296D02*
X2951Y296D01*
X0Y295D02*
X7Y295D01*
X2944Y295D02*
X2951Y295D01*
X0Y294D02*
X7Y294D01*
X2944Y294D02*
X2951Y294D01*
X0Y293D02*
X7Y293D01*
X2944Y293D02*
X2951Y293D01*
X0Y292D02*
X7Y292D01*
X2944Y292D02*
X2951Y292D01*
X0Y291D02*
X7Y291D01*
X2944Y291D02*
X2951Y291D01*
X0Y290D02*
X7Y290D01*
X2944Y290D02*
X2951Y290D01*
X0Y289D02*
X7Y289D01*
X2944Y289D02*
X2951Y289D01*
X0Y288D02*
X7Y288D01*
X2944Y288D02*
X2951Y288D01*
X0Y287D02*
X7Y287D01*
X2944Y287D02*
X2951Y287D01*
X0Y286D02*
X7Y286D01*
X2944Y286D02*
X2951Y286D01*
X0Y285D02*
X7Y285D01*
X2944Y285D02*
X2951Y285D01*
X0Y284D02*
X7Y284D01*
X2944Y284D02*
X2951Y284D01*
X0Y283D02*
X7Y283D01*
X2944Y283D02*
X2951Y283D01*
X0Y282D02*
X7Y282D01*
X2944Y282D02*
X2951Y282D01*
X0Y281D02*
X7Y281D01*
X2944Y281D02*
X2951Y281D01*
X0Y280D02*
X7Y280D01*
X2944Y280D02*
X2951Y280D01*
X0Y279D02*
X7Y279D01*
X2944Y279D02*
X2951Y279D01*
X0Y278D02*
X7Y278D01*
X2944Y278D02*
X2951Y278D01*
X0Y277D02*
X7Y277D01*
X2944Y277D02*
X2951Y277D01*
X0Y276D02*
X7Y276D01*
X2944Y276D02*
X2951Y276D01*
X0Y275D02*
X7Y275D01*
X2944Y275D02*
X2951Y275D01*
X0Y274D02*
X7Y274D01*
X2944Y274D02*
X2951Y274D01*
X0Y273D02*
X7Y273D01*
X2944Y273D02*
X2951Y273D01*
X0Y272D02*
X7Y272D01*
X2944Y272D02*
X2951Y272D01*
X0Y271D02*
X7Y271D01*
X2944Y271D02*
X2951Y271D01*
X0Y270D02*
X7Y270D01*
X2944Y270D02*
X2951Y270D01*
X0Y269D02*
X7Y269D01*
X2944Y269D02*
X2951Y269D01*
X0Y268D02*
X7Y268D01*
X2944Y268D02*
X2951Y268D01*
X0Y267D02*
X7Y267D01*
X2944Y267D02*
X2951Y267D01*
X0Y266D02*
X7Y266D01*
X2944Y266D02*
X2951Y266D01*
X0Y265D02*
X7Y265D01*
X2944Y265D02*
X2951Y265D01*
X0Y264D02*
X7Y264D01*
X2944Y264D02*
X2951Y264D01*
X0Y263D02*
X7Y263D01*
X2944Y263D02*
X2951Y263D01*
X0Y262D02*
X7Y262D01*
X2944Y262D02*
X2951Y262D01*
X0Y261D02*
X7Y261D01*
X2944Y261D02*
X2951Y261D01*
X0Y260D02*
X7Y260D01*
X2944Y260D02*
X2951Y260D01*
X0Y259D02*
X7Y259D01*
X2944Y259D02*
X2951Y259D01*
X0Y258D02*
X7Y258D01*
X2944Y258D02*
X2951Y258D01*
X0Y257D02*
X7Y257D01*
X2944Y257D02*
X2951Y257D01*
X0Y256D02*
X7Y256D01*
X2944Y256D02*
X2951Y256D01*
X0Y255D02*
X7Y255D01*
X2944Y255D02*
X2951Y255D01*
X0Y254D02*
X7Y254D01*
X2944Y254D02*
X2951Y254D01*
X0Y253D02*
X7Y253D01*
X2944Y253D02*
X2951Y253D01*
X0Y252D02*
X7Y252D01*
X2944Y252D02*
X2951Y252D01*
X0Y251D02*
X7Y251D01*
X2944Y251D02*
X2951Y251D01*
X0Y250D02*
X7Y250D01*
X2944Y250D02*
X2951Y250D01*
X0Y249D02*
X7Y249D01*
X2944Y249D02*
X2951Y249D01*
X0Y248D02*
X7Y248D01*
X2944Y248D02*
X2951Y248D01*
X0Y247D02*
X7Y247D01*
X2944Y247D02*
X2951Y247D01*
X0Y246D02*
X7Y246D01*
X2944Y246D02*
X2951Y246D01*
X0Y245D02*
X7Y245D01*
X2944Y245D02*
X2951Y245D01*
X0Y244D02*
X7Y244D01*
X2944Y244D02*
X2951Y244D01*
X0Y243D02*
X7Y243D01*
X2944Y243D02*
X2951Y243D01*
X0Y242D02*
X7Y242D01*
X2944Y242D02*
X2951Y242D01*
X0Y241D02*
X7Y241D01*
X2944Y241D02*
X2951Y241D01*
X0Y240D02*
X7Y240D01*
X2944Y240D02*
X2951Y240D01*
X0Y239D02*
X7Y239D01*
X2944Y239D02*
X2951Y239D01*
X0Y238D02*
X7Y238D01*
X2944Y238D02*
X2951Y238D01*
X0Y237D02*
X7Y237D01*
X2944Y237D02*
X2951Y237D01*
X0Y236D02*
X7Y236D01*
X2944Y236D02*
X2951Y236D01*
X0Y235D02*
X7Y235D01*
X2944Y235D02*
X2951Y235D01*
X0Y234D02*
X7Y234D01*
X2944Y234D02*
X2951Y234D01*
X0Y233D02*
X7Y233D01*
X2944Y233D02*
X2951Y233D01*
X0Y232D02*
X7Y232D01*
X2944Y232D02*
X2951Y232D01*
X0Y231D02*
X7Y231D01*
X2944Y231D02*
X2951Y231D01*
X0Y230D02*
X7Y230D01*
X2944Y230D02*
X2951Y230D01*
X0Y229D02*
X7Y229D01*
X2944Y229D02*
X2951Y229D01*
X0Y228D02*
X7Y228D01*
X2944Y228D02*
X2951Y228D01*
X0Y227D02*
X7Y227D01*
X2944Y227D02*
X2951Y227D01*
X0Y226D02*
X7Y226D01*
X2944Y226D02*
X2951Y226D01*
X0Y225D02*
X7Y225D01*
X2944Y225D02*
X2951Y225D01*
X0Y224D02*
X7Y224D01*
X2944Y224D02*
X2951Y224D01*
X0Y223D02*
X7Y223D01*
X2944Y223D02*
X2951Y223D01*
X0Y222D02*
X7Y222D01*
X2944Y222D02*
X2951Y222D01*
X0Y221D02*
X7Y221D01*
X2944Y221D02*
X2951Y221D01*
X0Y220D02*
X7Y220D01*
X2944Y220D02*
X2951Y220D01*
X0Y219D02*
X7Y219D01*
X2944Y219D02*
X2951Y219D01*
X0Y218D02*
X7Y218D01*
X2944Y218D02*
X2951Y218D01*
X0Y217D02*
X7Y217D01*
X2944Y217D02*
X2951Y217D01*
X0Y216D02*
X7Y216D01*
X2944Y216D02*
X2951Y216D01*
X0Y215D02*
X7Y215D01*
X2944Y215D02*
X2951Y215D01*
X0Y214D02*
X7Y214D01*
X2944Y214D02*
X2951Y214D01*
X0Y213D02*
X7Y213D01*
X2944Y213D02*
X2951Y213D01*
X0Y212D02*
X7Y212D01*
X2944Y212D02*
X2951Y212D01*
X0Y211D02*
X7Y211D01*
X2944Y211D02*
X2951Y211D01*
X0Y210D02*
X7Y210D01*
X2944Y210D02*
X2951Y210D01*
X0Y209D02*
X7Y209D01*
X2944Y209D02*
X2951Y209D01*
X0Y208D02*
X7Y208D01*
X2944Y208D02*
X2951Y208D01*
X0Y207D02*
X7Y207D01*
X2944Y207D02*
X2951Y207D01*
X0Y206D02*
X7Y206D01*
X2944Y206D02*
X2951Y206D01*
X0Y205D02*
X7Y205D01*
X2944Y205D02*
X2951Y205D01*
X0Y204D02*
X7Y204D01*
X2944Y204D02*
X2951Y204D01*
X0Y203D02*
X7Y203D01*
X2944Y203D02*
X2951Y203D01*
X0Y202D02*
X7Y202D01*
X2944Y202D02*
X2951Y202D01*
X0Y201D02*
X7Y201D01*
X2944Y201D02*
X2951Y201D01*
X0Y200D02*
X7Y200D01*
X2944Y200D02*
X2951Y200D01*
X0Y199D02*
X7Y199D01*
X2944Y199D02*
X2951Y199D01*
X0Y198D02*
X7Y198D01*
X2944Y198D02*
X2951Y198D01*
X0Y197D02*
X7Y197D01*
X2944Y197D02*
X2951Y197D01*
X0Y196D02*
X7Y196D01*
X2944Y196D02*
X2951Y196D01*
X0Y195D02*
X7Y195D01*
X2944Y195D02*
X2951Y195D01*
X0Y194D02*
X7Y194D01*
X2944Y194D02*
X2951Y194D01*
X0Y193D02*
X7Y193D01*
X2944Y193D02*
X2951Y193D01*
X0Y192D02*
X7Y192D01*
X2944Y192D02*
X2951Y192D01*
X0Y191D02*
X7Y191D01*
X2944Y191D02*
X2951Y191D01*
X0Y190D02*
X7Y190D01*
X2944Y190D02*
X2951Y190D01*
X0Y189D02*
X7Y189D01*
X2944Y189D02*
X2951Y189D01*
X0Y188D02*
X7Y188D01*
X2944Y188D02*
X2951Y188D01*
X0Y187D02*
X7Y187D01*
X2944Y187D02*
X2951Y187D01*
X0Y186D02*
X7Y186D01*
X2944Y186D02*
X2951Y186D01*
X0Y185D02*
X7Y185D01*
X2944Y185D02*
X2951Y185D01*
X0Y184D02*
X7Y184D01*
X2944Y184D02*
X2951Y184D01*
X0Y183D02*
X7Y183D01*
X2944Y183D02*
X2951Y183D01*
X0Y182D02*
X7Y182D01*
X2944Y182D02*
X2951Y182D01*
X0Y181D02*
X7Y181D01*
X2944Y181D02*
X2951Y181D01*
X0Y180D02*
X7Y180D01*
X2944Y180D02*
X2951Y180D01*
X0Y179D02*
X7Y179D01*
X2944Y179D02*
X2951Y179D01*
X0Y178D02*
X7Y178D01*
X2944Y178D02*
X2951Y178D01*
X0Y177D02*
X7Y177D01*
X2944Y177D02*
X2951Y177D01*
X0Y176D02*
X7Y176D01*
X2944Y176D02*
X2951Y176D01*
X0Y175D02*
X7Y175D01*
X2944Y175D02*
X2951Y175D01*
X0Y174D02*
X7Y174D01*
X2944Y174D02*
X2951Y174D01*
X0Y173D02*
X7Y173D01*
X2944Y173D02*
X2951Y173D01*
X0Y172D02*
X7Y172D01*
X2944Y172D02*
X2951Y172D01*
X0Y171D02*
X7Y171D01*
X2944Y171D02*
X2951Y171D01*
X0Y170D02*
X7Y170D01*
X2944Y170D02*
X2951Y170D01*
X0Y169D02*
X7Y169D01*
X2944Y169D02*
X2951Y169D01*
X0Y168D02*
X7Y168D01*
X2944Y168D02*
X2951Y168D01*
X0Y167D02*
X7Y167D01*
X2944Y167D02*
X2951Y167D01*
X0Y166D02*
X7Y166D01*
X2944Y166D02*
X2951Y166D01*
X0Y165D02*
X7Y165D01*
X2944Y165D02*
X2951Y165D01*
X0Y164D02*
X7Y164D01*
X2944Y164D02*
X2951Y164D01*
X0Y163D02*
X7Y163D01*
X2944Y163D02*
X2951Y163D01*
X0Y162D02*
X7Y162D01*
X2944Y162D02*
X2951Y162D01*
X0Y161D02*
X7Y161D01*
X2944Y161D02*
X2951Y161D01*
X0Y160D02*
X7Y160D01*
X2944Y160D02*
X2951Y160D01*
X0Y159D02*
X7Y159D01*
X2944Y159D02*
X2951Y159D01*
X0Y158D02*
X7Y158D01*
X2944Y158D02*
X2951Y158D01*
X0Y157D02*
X7Y157D01*
X2944Y157D02*
X2951Y157D01*
X0Y156D02*
X7Y156D01*
X2944Y156D02*
X2951Y156D01*
X0Y155D02*
X7Y155D01*
X2944Y155D02*
X2951Y155D01*
X0Y154D02*
X7Y154D01*
X2944Y154D02*
X2951Y154D01*
X0Y153D02*
X7Y153D01*
X2944Y153D02*
X2951Y153D01*
X0Y152D02*
X7Y152D01*
X2944Y152D02*
X2951Y152D01*
X0Y151D02*
X7Y151D01*
X2944Y151D02*
X2951Y151D01*
X0Y150D02*
X7Y150D01*
X2944Y150D02*
X2951Y150D01*
X0Y149D02*
X7Y149D01*
X2944Y149D02*
X2951Y149D01*
X0Y148D02*
X7Y148D01*
X2944Y148D02*
X2951Y148D01*
X0Y147D02*
X7Y147D01*
X2944Y147D02*
X2951Y147D01*
X0Y146D02*
X7Y146D01*
X2944Y146D02*
X2951Y146D01*
X0Y145D02*
X7Y145D01*
X2944Y145D02*
X2951Y145D01*
X0Y144D02*
X7Y144D01*
X2944Y144D02*
X2951Y144D01*
X0Y143D02*
X7Y143D01*
X2944Y143D02*
X2951Y143D01*
X0Y142D02*
X7Y142D01*
X2944Y142D02*
X2951Y142D01*
X0Y141D02*
X7Y141D01*
X2944Y141D02*
X2951Y141D01*
X0Y140D02*
X7Y140D01*
X2944Y140D02*
X2951Y140D01*
X0Y139D02*
X7Y139D01*
X2944Y139D02*
X2951Y139D01*
X0Y138D02*
X7Y138D01*
X2944Y138D02*
X2951Y138D01*
X0Y137D02*
X7Y137D01*
X2944Y137D02*
X2951Y137D01*
X0Y136D02*
X7Y136D01*
X2944Y136D02*
X2951Y136D01*
X0Y135D02*
X7Y135D01*
X2944Y135D02*
X2951Y135D01*
X0Y134D02*
X7Y134D01*
X2944Y134D02*
X2951Y134D01*
X0Y133D02*
X7Y133D01*
X2944Y133D02*
X2951Y133D01*
X0Y132D02*
X7Y132D01*
X2944Y132D02*
X2951Y132D01*
X0Y131D02*
X7Y131D01*
X2944Y131D02*
X2951Y131D01*
X0Y130D02*
X7Y130D01*
X2944Y130D02*
X2951Y130D01*
X0Y129D02*
X7Y129D01*
X2944Y129D02*
X2951Y129D01*
X0Y128D02*
X7Y128D01*
X2944Y128D02*
X2951Y128D01*
X0Y127D02*
X7Y127D01*
X2944Y127D02*
X2951Y127D01*
X0Y126D02*
X7Y126D01*
X2944Y126D02*
X2951Y126D01*
X0Y125D02*
X7Y125D01*
X2944Y125D02*
X2951Y125D01*
X0Y124D02*
X7Y124D01*
X2944Y124D02*
X2951Y124D01*
X0Y123D02*
X7Y123D01*
X2944Y123D02*
X2951Y123D01*
X0Y122D02*
X7Y122D01*
X2944Y122D02*
X2951Y122D01*
X0Y121D02*
X7Y121D01*
X2944Y121D02*
X2951Y121D01*
X0Y120D02*
X7Y120D01*
X2944Y120D02*
X2951Y120D01*
X0Y119D02*
X7Y119D01*
X2944Y119D02*
X2951Y119D01*
X0Y118D02*
X7Y118D01*
X2944Y118D02*
X2951Y118D01*
X0Y117D02*
X7Y117D01*
X2944Y117D02*
X2951Y117D01*
X0Y116D02*
X7Y116D01*
X2944Y116D02*
X2951Y116D01*
X0Y115D02*
X7Y115D01*
X2944Y115D02*
X2951Y115D01*
X0Y114D02*
X7Y114D01*
X2944Y114D02*
X2951Y114D01*
X0Y113D02*
X7Y113D01*
X2944Y113D02*
X2951Y113D01*
X0Y112D02*
X7Y112D01*
X2944Y112D02*
X2951Y112D01*
X0Y111D02*
X7Y111D01*
X2944Y111D02*
X2951Y111D01*
X0Y110D02*
X7Y110D01*
X2944Y110D02*
X2951Y110D01*
X0Y109D02*
X7Y109D01*
X2944Y109D02*
X2951Y109D01*
X0Y108D02*
X7Y108D01*
X2944Y108D02*
X2951Y108D01*
X0Y107D02*
X7Y107D01*
X2944Y107D02*
X2951Y107D01*
X0Y106D02*
X7Y106D01*
X2944Y106D02*
X2951Y106D01*
X0Y105D02*
X7Y105D01*
X2944Y105D02*
X2951Y105D01*
X0Y104D02*
X7Y104D01*
X2944Y104D02*
X2951Y104D01*
X0Y103D02*
X7Y103D01*
X2944Y103D02*
X2951Y103D01*
X0Y102D02*
X7Y102D01*
X2944Y102D02*
X2951Y102D01*
X0Y101D02*
X7Y101D01*
X2944Y101D02*
X2951Y101D01*
X0Y100D02*
X7Y100D01*
X2944Y100D02*
X2951Y100D01*
X0Y99D02*
X7Y99D01*
X2944Y99D02*
X2951Y99D01*
X0Y98D02*
X7Y98D01*
X2944Y98D02*
X2951Y98D01*
X0Y97D02*
X7Y97D01*
X2944Y97D02*
X2951Y97D01*
X0Y96D02*
X7Y96D01*
X2944Y96D02*
X2951Y96D01*
X0Y95D02*
X7Y95D01*
X2944Y95D02*
X2951Y95D01*
X0Y94D02*
X7Y94D01*
X2944Y94D02*
X2951Y94D01*
X0Y93D02*
X7Y93D01*
X2944Y93D02*
X2951Y93D01*
X0Y92D02*
X7Y92D01*
X2944Y92D02*
X2951Y92D01*
X0Y91D02*
X7Y91D01*
X2944Y91D02*
X2951Y91D01*
X0Y90D02*
X7Y90D01*
X2944Y90D02*
X2951Y90D01*
X0Y89D02*
X7Y89D01*
X2944Y89D02*
X2951Y89D01*
X0Y88D02*
X7Y88D01*
X2944Y88D02*
X2951Y88D01*
X0Y87D02*
X7Y87D01*
X2944Y87D02*
X2951Y87D01*
X0Y86D02*
X7Y86D01*
X2944Y86D02*
X2951Y86D01*
X0Y85D02*
X7Y85D01*
X2944Y85D02*
X2951Y85D01*
X0Y84D02*
X7Y84D01*
X2944Y84D02*
X2951Y84D01*
X0Y83D02*
X7Y83D01*
X2944Y83D02*
X2951Y83D01*
X0Y82D02*
X7Y82D01*
X2944Y82D02*
X2951Y82D01*
X0Y81D02*
X7Y81D01*
X2944Y81D02*
X2951Y81D01*
X0Y80D02*
X7Y80D01*
X2944Y80D02*
X2951Y80D01*
X0Y79D02*
X7Y79D01*
X2944Y79D02*
X2951Y79D01*
X0Y78D02*
X7Y78D01*
X2944Y78D02*
X2951Y78D01*
X0Y77D02*
X7Y77D01*
X2944Y77D02*
X2951Y77D01*
X0Y76D02*
X7Y76D01*
X2944Y76D02*
X2951Y76D01*
X0Y75D02*
X7Y75D01*
X2944Y75D02*
X2951Y75D01*
X0Y74D02*
X7Y74D01*
X2944Y74D02*
X2951Y74D01*
X0Y73D02*
X7Y73D01*
X2944Y73D02*
X2951Y73D01*
X0Y72D02*
X7Y72D01*
X2944Y72D02*
X2951Y72D01*
X0Y71D02*
X7Y71D01*
X2944Y71D02*
X2951Y71D01*
X0Y70D02*
X7Y70D01*
X2944Y70D02*
X2951Y70D01*
X0Y69D02*
X7Y69D01*
X2944Y69D02*
X2951Y69D01*
X0Y68D02*
X7Y68D01*
X2944Y68D02*
X2951Y68D01*
X0Y67D02*
X7Y67D01*
X2944Y67D02*
X2951Y67D01*
X0Y66D02*
X7Y66D01*
X2944Y66D02*
X2951Y66D01*
X0Y65D02*
X7Y65D01*
X2944Y65D02*
X2951Y65D01*
X0Y64D02*
X7Y64D01*
X2944Y64D02*
X2951Y64D01*
X0Y63D02*
X7Y63D01*
X2944Y63D02*
X2951Y63D01*
X0Y62D02*
X7Y62D01*
X2944Y62D02*
X2951Y62D01*
X0Y61D02*
X7Y61D01*
X2944Y61D02*
X2951Y61D01*
X0Y60D02*
X7Y60D01*
X2944Y60D02*
X2951Y60D01*
X0Y59D02*
X7Y59D01*
X2944Y59D02*
X2951Y59D01*
X0Y58D02*
X7Y58D01*
X2944Y58D02*
X2951Y58D01*
X0Y57D02*
X7Y57D01*
X2944Y57D02*
X2951Y57D01*
X0Y56D02*
X7Y56D01*
X2944Y56D02*
X2951Y56D01*
X0Y55D02*
X7Y55D01*
X2944Y55D02*
X2951Y55D01*
X0Y54D02*
X7Y54D01*
X2944Y54D02*
X2951Y54D01*
X0Y53D02*
X7Y53D01*
X2944Y53D02*
X2951Y53D01*
X0Y52D02*
X7Y52D01*
X2944Y52D02*
X2951Y52D01*
X0Y51D02*
X7Y51D01*
X2944Y51D02*
X2951Y51D01*
X0Y50D02*
X7Y50D01*
X2944Y50D02*
X2951Y50D01*
X0Y49D02*
X7Y49D01*
X2944Y49D02*
X2951Y49D01*
X0Y48D02*
X7Y48D01*
X2944Y48D02*
X2951Y48D01*
X0Y47D02*
X7Y47D01*
X2944Y47D02*
X2951Y47D01*
X0Y46D02*
X7Y46D01*
X2944Y46D02*
X2951Y46D01*
X0Y45D02*
X7Y45D01*
X2944Y45D02*
X2951Y45D01*
X0Y44D02*
X7Y44D01*
X2944Y44D02*
X2951Y44D01*
X0Y43D02*
X7Y43D01*
X2944Y43D02*
X2951Y43D01*
X0Y42D02*
X7Y42D01*
X2944Y42D02*
X2951Y42D01*
X0Y41D02*
X7Y41D01*
X2944Y41D02*
X2951Y41D01*
X0Y40D02*
X7Y40D01*
X2944Y40D02*
X2951Y40D01*
X0Y39D02*
X7Y39D01*
X2944Y39D02*
X2951Y39D01*
X0Y38D02*
X7Y38D01*
X2944Y38D02*
X2951Y38D01*
X0Y37D02*
X7Y37D01*
X2944Y37D02*
X2951Y37D01*
X0Y36D02*
X7Y36D01*
X2944Y36D02*
X2951Y36D01*
X0Y35D02*
X7Y35D01*
X2944Y35D02*
X2951Y35D01*
X0Y34D02*
X7Y34D01*
X2944Y34D02*
X2951Y34D01*
X0Y33D02*
X7Y33D01*
X2944Y33D02*
X2951Y33D01*
X0Y32D02*
X7Y32D01*
X2944Y32D02*
X2951Y32D01*
X0Y31D02*
X7Y31D01*
X2944Y31D02*
X2951Y31D01*
X0Y30D02*
X7Y30D01*
X2944Y30D02*
X2951Y30D01*
X0Y29D02*
X7Y29D01*
X2944Y29D02*
X2951Y29D01*
X0Y28D02*
X7Y28D01*
X2944Y28D02*
X2951Y28D01*
X0Y27D02*
X7Y27D01*
X2944Y27D02*
X2951Y27D01*
X0Y26D02*
X7Y26D01*
X2944Y26D02*
X2951Y26D01*
X0Y25D02*
X7Y25D01*
X2944Y25D02*
X2951Y25D01*
X0Y24D02*
X7Y24D01*
X2944Y24D02*
X2951Y24D01*
X0Y23D02*
X7Y23D01*
X2944Y23D02*
X2951Y23D01*
X0Y22D02*
X7Y22D01*
X2944Y22D02*
X2951Y22D01*
X0Y21D02*
X7Y21D01*
X2944Y21D02*
X2951Y21D01*
X0Y20D02*
X7Y20D01*
X2944Y20D02*
X2951Y20D01*
X0Y19D02*
X7Y19D01*
X2944Y19D02*
X2951Y19D01*
X0Y18D02*
X7Y18D01*
X2944Y18D02*
X2951Y18D01*
X0Y17D02*
X7Y17D01*
X2944Y17D02*
X2951Y17D01*
X0Y16D02*
X7Y16D01*
X2944Y16D02*
X2951Y16D01*
X0Y15D02*
X7Y15D01*
X2944Y15D02*
X2951Y15D01*
X0Y14D02*
X7Y14D01*
X2944Y14D02*
X2951Y14D01*
X0Y13D02*
X7Y13D01*
X2944Y13D02*
X2951Y13D01*
X0Y12D02*
X7Y12D01*
X2944Y12D02*
X2951Y12D01*
X0Y11D02*
X7Y11D01*
X2944Y11D02*
X2951Y11D01*
X0Y10D02*
X7Y10D01*
X2944Y10D02*
X2951Y10D01*
X0Y9D02*
X7Y9D01*
X2944Y9D02*
X2951Y9D01*
X0Y8D02*
X2951Y8D01*
X0Y7D02*
X2951Y7D01*
X0Y6D02*
X2951Y6D01*
X0Y5D02*
X2951Y5D01*
X0Y4D02*
X2951Y4D01*
X0Y3D02*
X2951Y3D01*
X0Y2D02*
X2951Y2D01*
X0Y1D02*
X2951Y1D01*
D02*
G04 End of Silk0*
M02*