; NON-PLATED HOLES START AT T1
; THROUGH (PLATED) HOLES START AT T100
M48
INCH
T1C0.118110
T2C0.128000
T100C0.030000
T101C0.031496
T102C0.040000
T103C0.038000
T104C0.042000
T105C0.015748
T106C0.035000
%
T1
X020727Y018921
X000908Y022705
X001003Y004264
X028571Y004080
T2
X027393Y007557
X027393Y022799
X027393Y011557
X027393Y018799
X027393Y013169
X027393Y017169
T100
X020347Y003717
X019345Y003717
T101
X013314Y012933
X002312Y016933
X002312Y014933
X003311Y014929
X012310Y010948
X012310Y011948
X002312Y013933
X003311Y017929
X013305Y010948
X013314Y014933
X003311Y019929
X013314Y015933
X002312Y019933
X012317Y019929
X013314Y013933
X003305Y011948
X012317Y013929
X012317Y014929
X012317Y017929
X003311Y013929
X002310Y010948
X003311Y018929
X003311Y015929
X002312Y017933
X012317Y015929
X013305Y011948
X003311Y016929
X013314Y016933
X013314Y017933
X012317Y016929
X003311Y012929
X013314Y018933
X013314Y019933
X002310Y011948
X012317Y012929
X003305Y010948
X002312Y018933
X012317Y018929
X002312Y015933
X002312Y012933
T102
X024893Y021049
X024893Y008807
X023893Y009307
X023893Y013919
X023893Y014919
X024893Y016419
X023893Y021549
X023893Y019549
X024893Y020049
X024893Y010807
X024893Y022049
X024893Y015419
X024893Y014419
X023893Y015919
X023893Y020549
X023893Y010307
X024893Y009807
X023893Y008307
T103
X009184Y022135
X015884Y002386
X008184Y022135
X008154Y014351
X006734Y001383
X015884Y006389
X021176Y001590
X016957Y022138
X016957Y023138
X018671Y002590
X008154Y016351
X002312Y001530
X007184Y022135
X015884Y005386
X000812Y001530
X006184Y022135
X015884Y001383
X008154Y015351
X016957Y020138
X021176Y002590
X016957Y021138
X018671Y001590
X006734Y006389
T104
X005289Y006449
X002309Y006449
T105
X007126Y008689
X020732Y009605
X021442Y008689
X008132Y009605
T106
X009684Y018942
X005684Y018942
X005684Y019936
X009684Y019936
X020914Y006466
X018914Y006466
X008132Y010413
X005132Y010413
T00
M30
