G04 MADE WITH FRITZING*
G04 WWW.FRITZING.ORG*
G04 DOUBLE SIDED*
G04 HOLES PLATED*
G04 CONTOUR ON CENTER OF CONTOUR VECTOR*
%ASAXBY*%
%FSLAX23Y23*%
%MOIN*%
%OFA0B0*%
%SFA1.0B1.0*%
%ADD10C,0.078000*%
%ADD11C,0.055118*%
%ADD12C,0.075000*%
%ADD13C,0.074000*%
%ADD14C,0.070000*%
%ADD15C,0.082000*%
%ADD16C,0.039370*%
%ADD17R,0.075000X0.075000*%
%ADD18R,0.082000X0.082000*%
%ADD19C,0.024000*%
%ADD20C,0.012000*%
%ADD21R,0.001000X0.001000*%
%LNCOPPER0*%
G90*
G70*
G54D10*
X815Y1635D03*
X815Y1535D03*
X815Y1435D03*
G54D11*
X1331Y1195D03*
X1331Y1095D03*
X1231Y1195D03*
X1231Y1095D03*
X331Y1195D03*
X331Y1095D03*
X231Y1195D03*
X231Y1095D03*
G54D10*
X918Y2214D03*
X818Y2214D03*
X718Y2214D03*
X618Y2214D03*
G54D12*
X513Y1041D03*
X813Y1041D03*
X568Y1994D03*
X968Y1994D03*
X568Y1894D03*
X968Y1894D03*
G54D13*
X2389Y831D03*
X2489Y881D03*
X2389Y931D03*
X2489Y981D03*
X2389Y1031D03*
X2489Y1081D03*
X2389Y1392D03*
X2489Y1442D03*
X2389Y1492D03*
X2489Y1542D03*
X2389Y1592D03*
X2489Y1642D03*
X2389Y1955D03*
X2489Y2005D03*
X2389Y2055D03*
X2489Y2105D03*
X2389Y2155D03*
X2489Y2205D03*
G54D12*
X2091Y647D03*
X1891Y647D03*
G54D14*
X1935Y372D03*
X2035Y372D03*
G54D10*
X673Y639D03*
X673Y138D03*
X1588Y639D03*
X1588Y539D03*
X1588Y239D03*
X1588Y138D03*
G54D11*
X1331Y1993D03*
X1331Y1893D03*
X1331Y1793D03*
X1331Y1693D03*
X1331Y1593D03*
X1331Y1493D03*
X1331Y1393D03*
X1331Y1293D03*
X1232Y1993D03*
X1232Y1893D03*
X1232Y1793D03*
X1232Y1693D03*
X1232Y1593D03*
X1232Y1493D03*
X1232Y1393D03*
X1232Y1293D03*
X231Y1993D03*
X231Y1893D03*
X231Y1793D03*
X231Y1693D03*
X231Y1593D03*
X231Y1493D03*
X231Y1393D03*
X231Y1293D03*
X331Y1993D03*
X331Y1893D03*
X331Y1793D03*
X331Y1693D03*
X331Y1593D03*
X331Y1493D03*
X331Y1393D03*
X331Y1293D03*
G54D10*
X231Y153D03*
X81Y153D03*
G54D15*
X529Y645D03*
X231Y645D03*
G54D10*
X1696Y2314D03*
X1696Y2214D03*
X1696Y2114D03*
X1696Y2014D03*
X2118Y259D03*
X2118Y159D03*
X1867Y259D03*
X1867Y159D03*
G54D16*
X713Y869D03*
X2144Y869D03*
X813Y961D03*
X2073Y961D03*
G54D17*
X2091Y647D03*
G54D18*
X530Y645D03*
G54D19*
X1588Y55D02*
X1588Y108D01*
D02*
X2286Y55D02*
X1588Y55D01*
D02*
X2205Y159D02*
X2205Y372D01*
D02*
X2205Y372D02*
X2061Y372D01*
D02*
X2148Y159D02*
X2205Y159D01*
G54D20*
D02*
X2073Y974D02*
X2073Y1031D01*
D02*
X2073Y1031D02*
X2364Y1031D01*
D02*
X786Y1539D02*
X358Y1590D01*
D02*
X277Y1643D02*
X246Y1678D01*
D02*
X791Y1636D02*
X277Y1643D01*
D02*
X818Y1850D02*
X905Y1850D01*
D02*
X905Y1850D02*
X905Y1535D01*
D02*
X905Y1535D02*
X846Y1535D01*
D02*
X818Y2183D02*
X818Y1850D01*
G54D19*
D02*
X568Y1923D02*
X568Y1965D01*
D02*
X1666Y2214D02*
X949Y2214D01*
D02*
X925Y2184D02*
X962Y2022D01*
D02*
X1068Y1393D02*
X1205Y1393D01*
D02*
X1068Y1994D02*
X1068Y1393D01*
D02*
X997Y1994D02*
X1068Y1994D01*
D02*
X813Y1070D02*
X815Y1405D01*
D02*
X2462Y895D02*
X2417Y917D01*
G54D20*
D02*
X2628Y881D02*
X2515Y881D01*
D02*
X713Y882D02*
X713Y1393D01*
D02*
X713Y1393D02*
X358Y1393D01*
D02*
X2145Y882D02*
X2148Y982D01*
D02*
X2148Y982D02*
X2464Y981D01*
G54D19*
D02*
X618Y2314D02*
X1666Y2314D01*
D02*
X618Y2244D02*
X618Y2314D01*
D02*
X115Y2119D02*
X119Y915D01*
D02*
X513Y1293D02*
X358Y1293D01*
D02*
X513Y915D02*
X513Y1013D01*
D02*
X513Y1070D02*
X513Y1293D01*
D02*
X119Y915D02*
X513Y915D01*
D02*
X438Y2314D02*
X115Y2119D01*
D02*
X618Y2314D02*
X438Y2314D01*
G54D20*
D02*
X718Y1693D02*
X358Y1693D01*
D02*
X718Y2183D02*
X718Y1693D01*
G54D19*
D02*
X540Y1894D02*
X358Y1893D01*
D02*
X963Y1293D02*
X968Y1866D01*
D02*
X1205Y1293D02*
X963Y1293D01*
D02*
X2286Y931D02*
X2358Y931D01*
G54D20*
D02*
X1838Y2005D02*
X2464Y2005D01*
D02*
X1720Y2012D02*
X1838Y2005D01*
D02*
X1836Y2058D02*
X1719Y2105D01*
D02*
X2364Y2055D02*
X1836Y2058D01*
D02*
X2076Y2104D02*
X1719Y2207D01*
D02*
X2464Y2105D02*
X2076Y2104D01*
D02*
X2364Y2161D02*
X1720Y2308D01*
G54D19*
D02*
X963Y639D02*
X1558Y639D01*
D02*
X963Y1293D02*
X963Y639D01*
D02*
X231Y613D02*
X231Y183D01*
D02*
X441Y63D02*
X645Y129D01*
D02*
X81Y60D02*
X441Y63D01*
D02*
X81Y123D02*
X81Y60D01*
G54D20*
D02*
X1276Y1547D02*
X2464Y1542D01*
D02*
X1246Y1578D02*
X1276Y1547D01*
D02*
X2628Y1489D02*
X2415Y1492D01*
D02*
X2628Y881D02*
X2628Y1489D01*
D02*
X2628Y2105D02*
X2515Y2105D01*
D02*
X2628Y1489D02*
X2628Y2105D01*
G54D19*
D02*
X2286Y931D02*
X2286Y55D01*
D02*
X1891Y539D02*
X1619Y539D01*
D02*
X1891Y618D02*
X1891Y539D01*
D02*
X1883Y285D02*
X1921Y349D01*
D02*
X2086Y619D02*
X2040Y397D01*
D02*
X1846Y280D02*
X1610Y517D01*
D02*
X1838Y167D02*
X1617Y230D01*
D02*
X643Y640D02*
X561Y644D01*
G54D20*
D02*
X1696Y1749D02*
X1696Y1989D01*
D02*
X1282Y1749D02*
X1696Y1749D01*
D02*
X1246Y1709D02*
X1282Y1749D01*
D02*
X1558Y2114D02*
X1671Y2114D01*
D02*
X1558Y1848D02*
X1558Y2114D01*
D02*
X1285Y1848D02*
X1558Y1848D01*
D02*
X1246Y1808D02*
X1285Y1848D01*
G54D19*
D02*
X1897Y259D02*
X2088Y259D01*
D02*
X2088Y159D02*
X1897Y159D01*
D02*
X813Y980D02*
X813Y1013D01*
G54D21*
X2577Y395D02*
X2583Y395D01*
X2576Y394D02*
X2584Y394D01*
X2546Y393D02*
X2547Y393D01*
X2576Y393D02*
X2584Y393D01*
X2545Y392D02*
X2548Y392D01*
X2576Y392D02*
X2584Y392D01*
X2544Y391D02*
X2549Y391D01*
X2576Y391D02*
X2584Y391D01*
X2544Y390D02*
X2549Y390D01*
X2576Y390D02*
X2584Y390D01*
X2627Y390D02*
X2629Y390D01*
X2544Y389D02*
X2549Y389D01*
X2576Y389D02*
X2584Y389D01*
X2626Y389D02*
X2630Y389D01*
X2544Y388D02*
X2549Y388D01*
X2577Y388D02*
X2583Y388D01*
X2626Y388D02*
X2631Y388D01*
X2544Y387D02*
X2549Y387D01*
X2625Y387D02*
X2631Y387D01*
X2544Y386D02*
X2549Y386D01*
X2625Y386D02*
X2631Y386D01*
X2544Y385D02*
X2549Y385D01*
X2625Y385D02*
X2631Y385D01*
X2544Y384D02*
X2549Y384D01*
X2625Y384D02*
X2631Y384D01*
X2544Y383D02*
X2549Y383D01*
X2625Y383D02*
X2631Y383D01*
X2544Y382D02*
X2549Y382D01*
X2625Y382D02*
X2631Y382D01*
X2544Y381D02*
X2549Y381D01*
X2625Y381D02*
X2631Y381D01*
X2478Y380D02*
X2493Y380D01*
X2527Y380D02*
X2535Y380D01*
X2544Y380D02*
X2549Y380D01*
X2577Y380D02*
X2588Y380D01*
X2612Y380D02*
X2635Y380D01*
X2477Y379D02*
X2496Y379D01*
X2525Y379D02*
X2537Y379D01*
X2544Y379D02*
X2549Y379D01*
X2576Y379D02*
X2589Y379D01*
X2611Y379D02*
X2636Y379D01*
X2476Y378D02*
X2497Y378D01*
X2524Y378D02*
X2539Y378D01*
X2544Y378D02*
X2549Y378D01*
X2576Y378D02*
X2590Y378D01*
X2611Y378D02*
X2636Y378D01*
X2476Y377D02*
X2499Y377D01*
X2523Y377D02*
X2540Y377D01*
X2544Y377D02*
X2549Y377D01*
X2576Y377D02*
X2590Y377D01*
X2611Y377D02*
X2637Y377D01*
X2476Y376D02*
X2500Y376D01*
X2522Y376D02*
X2542Y376D01*
X2544Y376D02*
X2549Y376D01*
X2576Y376D02*
X2590Y376D01*
X2611Y376D02*
X2636Y376D01*
X2477Y375D02*
X2501Y375D01*
X2521Y375D02*
X2549Y375D01*
X2576Y375D02*
X2589Y375D01*
X2612Y375D02*
X2635Y375D01*
X2493Y374D02*
X2502Y374D01*
X2521Y374D02*
X2528Y374D01*
X2534Y374D02*
X2549Y374D01*
X2576Y374D02*
X2581Y374D01*
X2625Y374D02*
X2631Y374D01*
X2495Y373D02*
X2503Y373D01*
X2521Y373D02*
X2526Y373D01*
X2536Y373D02*
X2549Y373D01*
X2576Y373D02*
X2581Y373D01*
X2625Y373D02*
X2631Y373D01*
X2496Y372D02*
X2504Y372D01*
X2521Y372D02*
X2526Y372D01*
X2538Y372D02*
X2549Y372D01*
X2576Y372D02*
X2581Y372D01*
X2625Y372D02*
X2631Y372D01*
X2497Y371D02*
X2504Y371D01*
X2521Y371D02*
X2526Y371D01*
X2539Y371D02*
X2549Y371D01*
X2576Y371D02*
X2581Y371D01*
X2625Y371D02*
X2631Y371D01*
X2498Y370D02*
X2505Y370D01*
X2521Y370D02*
X2526Y370D01*
X2541Y370D02*
X2549Y370D01*
X2576Y370D02*
X2581Y370D01*
X2625Y370D02*
X2631Y370D01*
X2499Y369D02*
X2505Y369D01*
X2521Y369D02*
X2526Y369D01*
X2542Y369D02*
X2549Y369D01*
X2576Y369D02*
X2581Y369D01*
X2625Y369D02*
X2631Y369D01*
X2500Y368D02*
X2505Y368D01*
X2521Y368D02*
X2526Y368D01*
X2544Y368D02*
X2549Y368D01*
X2576Y368D02*
X2581Y368D01*
X2625Y368D02*
X2631Y368D01*
X2500Y367D02*
X2505Y367D01*
X2521Y367D02*
X2526Y367D01*
X2544Y367D02*
X2549Y367D01*
X2576Y367D02*
X2581Y367D01*
X2625Y367D02*
X2631Y367D01*
X2500Y366D02*
X2505Y366D01*
X2521Y366D02*
X2526Y366D01*
X2544Y366D02*
X2549Y366D01*
X2576Y366D02*
X2581Y366D01*
X2625Y366D02*
X2631Y366D01*
X2500Y365D02*
X2505Y365D01*
X2520Y365D02*
X2526Y365D01*
X2544Y365D02*
X2549Y365D01*
X2576Y365D02*
X2581Y365D01*
X2625Y365D02*
X2631Y365D01*
X2500Y364D02*
X2505Y364D01*
X2520Y364D02*
X2526Y364D01*
X2544Y364D02*
X2549Y364D01*
X2576Y364D02*
X2581Y364D01*
X2625Y364D02*
X2631Y364D01*
X2500Y363D02*
X2505Y363D01*
X2520Y363D02*
X2525Y363D01*
X2544Y363D02*
X2549Y363D01*
X2576Y363D02*
X2581Y363D01*
X2625Y363D02*
X2631Y363D01*
X2500Y362D02*
X2505Y362D01*
X2520Y362D02*
X2525Y362D01*
X2544Y362D02*
X2549Y362D01*
X2576Y362D02*
X2581Y362D01*
X2625Y362D02*
X2631Y362D01*
X2500Y361D02*
X2505Y361D01*
X2520Y361D02*
X2525Y361D01*
X2544Y361D02*
X2549Y361D01*
X2576Y361D02*
X2581Y361D01*
X2625Y361D02*
X2631Y361D01*
X2500Y360D02*
X2505Y360D01*
X2520Y360D02*
X2525Y360D01*
X2544Y360D02*
X2549Y360D01*
X2576Y360D02*
X2581Y360D01*
X2625Y360D02*
X2631Y360D01*
X2500Y359D02*
X2505Y359D01*
X2520Y359D02*
X2525Y359D01*
X2544Y359D02*
X2549Y359D01*
X2576Y359D02*
X2581Y359D01*
X2625Y359D02*
X2631Y359D01*
X2500Y358D02*
X2505Y358D01*
X2520Y358D02*
X2525Y358D01*
X2544Y358D02*
X2549Y358D01*
X2576Y358D02*
X2581Y358D01*
X2625Y358D02*
X2631Y358D01*
X2499Y357D02*
X2505Y357D01*
X2520Y357D02*
X2525Y357D01*
X2544Y357D02*
X2549Y357D01*
X2576Y357D02*
X2581Y357D01*
X2609Y357D02*
X2611Y357D01*
X2625Y357D02*
X2631Y357D01*
X2498Y356D02*
X2505Y356D01*
X2520Y356D02*
X2525Y356D01*
X2544Y356D02*
X2549Y356D01*
X2576Y356D02*
X2581Y356D01*
X2608Y356D02*
X2612Y356D01*
X2625Y356D02*
X2631Y356D01*
X2496Y355D02*
X2504Y355D01*
X2520Y355D02*
X2525Y355D01*
X2544Y355D02*
X2549Y355D01*
X2576Y355D02*
X2581Y355D01*
X2608Y355D02*
X2612Y355D01*
X2625Y355D02*
X2631Y355D01*
X2495Y354D02*
X2503Y354D01*
X2520Y354D02*
X2525Y354D01*
X2544Y354D02*
X2549Y354D01*
X2576Y354D02*
X2581Y354D01*
X2607Y354D02*
X2613Y354D01*
X2625Y354D02*
X2631Y354D01*
X2494Y353D02*
X2502Y353D01*
X2520Y353D02*
X2525Y353D01*
X2544Y353D02*
X2549Y353D01*
X2576Y353D02*
X2581Y353D01*
X2608Y353D02*
X2614Y353D01*
X2625Y353D02*
X2630Y353D01*
X2479Y352D02*
X2501Y352D01*
X2520Y352D02*
X2525Y352D01*
X2544Y352D02*
X2549Y352D01*
X2569Y352D02*
X2587Y352D01*
X2608Y352D02*
X2630Y352D01*
X2477Y351D02*
X2500Y351D01*
X2520Y351D02*
X2525Y351D01*
X2544Y351D02*
X2549Y351D01*
X2568Y351D02*
X2589Y351D01*
X2608Y351D02*
X2630Y351D01*
X2476Y350D02*
X2499Y350D01*
X2520Y350D02*
X2525Y350D01*
X2544Y350D02*
X2549Y350D01*
X2567Y350D02*
X2590Y350D01*
X2609Y350D02*
X2629Y350D01*
X2476Y349D02*
X2498Y349D01*
X2520Y349D02*
X2525Y349D01*
X2544Y349D02*
X2549Y349D01*
X2567Y349D02*
X2590Y349D01*
X2610Y349D02*
X2628Y349D01*
X2476Y348D02*
X2497Y348D01*
X2520Y348D02*
X2525Y348D01*
X2544Y348D02*
X2549Y348D01*
X2567Y348D02*
X2590Y348D01*
X2611Y348D02*
X2627Y348D01*
X2477Y347D02*
X2495Y347D01*
X2521Y347D02*
X2524Y347D01*
X2545Y347D02*
X2548Y347D01*
X2568Y347D02*
X2589Y347D01*
X2612Y347D02*
X2626Y347D01*
X2479Y346D02*
X2491Y346D01*
X2570Y346D02*
X2587Y346D01*
X2616Y346D02*
X2622Y346D01*
D02*
G04 End of Copper0*
M02*